/* XPM */
static char *dummy[]={
"64 64 13 1",
"j c #543c1c",
"b c #5c4020",
"i c #6c4824",
"h c #744c28",
"# c #80502c",
"e c #885830",
"a c #905c34",
"f c #9c6038",
"d c #a0643c",
"c c #a86840",
"g c #b47044",
"k c #c87c4c",
". c #d08050",
".........#a........ab.........c......................de.........",
"cacadaaccb.daadccccb.f#fdaccgdb.dfdaaac#adaaaaafafdafb.afcdddaea",
"gccaeacegb.ccdaffgdb.gcecccffcb.aadh#daaaaddcc#aaaccdb.cffaaadfa",
"cgacfccgab.caagfdghb.cdd#faaefb.ahh#eacdffdadaaeacchdb.caadcddaf",
"cccccdcchb.adcc#adcb.eee#feeeeb.f#afheaedc#dca##dcdddb.fadddadad",
"#aafa#hffb.ggagfcfabhbbbbbbbbb##bbbbbbbbbbbbbbbbbbbbbb.#fcaacfd#",
"acggffggfb.fggccfffbbb................h..............e.eahhaehaf",
"#gecgggggb.afcce#egbb.fc#heehehhafheeab.hd#ehh##acdafb.aaeaf#aha",
"ggcafdcaab.ee#hha#gb.acaafhaaf##fdha#ab.d#addaihefhaab.aeh#ahfhh",
"#ehheaee#b.eeeffacab.#fh#hh##edfhaad#b.aaeaca#ee#hahababbbbbhhdf",
"jfhfha#feb.#echfh#ab.hhhfgchaddhfcac#b.eadgcca#hahchhb......bbbb",
"jhhhhhe#hb.eadh#hh#b.feafdagggag##hh#b.eaadcgggggcdeh.f#adhd....",
"bbbbbbbbbb.#eh#ffaeb.dac#dfefcafafaa#b.aa#hhchddadadb.d#e###heef",
".......bbb.hfeadaaeb.eeha#f##f##ehhdb.ee#affa#eehcecb.faef#ah#hb",
"hehehhdbbb.hdffahaeb.ehfaaaaaddfdfchb.ehafefhafaihieb.#haaecadb.",
"fh#heheebb.hacaahhfb.fda#ccafeefachhb.ahcaea#eeefehhb.hhahffbb.c",
"hehfeaafab.#hah##hab.e#chcaacaeaahheb.aaha#hehf#ee#db.heed#b..dg",
"hhaacfdddb.aa#e#heabcbbbbbbbbbbbbbbb##bbbbbbbbbbbbbbb.aehfb.aaad",
"ehacfaadab.adfe##fhbh.........#b....................f.ffab.acfaa",
"hfedceecdb.dfce#hhib.hhaiheaahb.effaf##fae#ad#ddahehb.fhab.#dhaa",
"#a#effaffb.hfhhhh#hb.hhhee#hh#b.ea#fd#aahcdef#aaadcfb.iheb.#dec#",
"h#e#faahhb.a#fhc#hab.ah#ceehffb.fhefdcaa##e#eeh#ga#hb.aahb.hhaca",
"ha#aefdaeb.g##fefacb.#ccaehhefb.caafeefhhaaaafhadh##b.#aab.iaa##",
"bbbbbbbbbbffbbbbbbbbfbbbbbbbbbb#bbbbbbbbbbbbbbbbbbbbbdbbbbabbbbb",
"........................e.........................a.............",
"aacfefefff#gfh#cgfafaa#db.fdfhahe#eeeehhhf#g#agadcb.dhaaf#ca#fhf",
"#eeeddcaccafgccccchafchgb.adhah#ehae#ahefhaehe##ecb.fhdchcaf##a#",
"fdfaafeaccehadadcdaddfefb.fd#ffaaf#edfafahhhhahahab.eaahhfd#h##a",
"fcedaafah#adadh#dfc#aaf#b.egccfcaa#e#ddahe#dfaeaahb.h#hf#ch###hf",
"gddafdhhaaeh#afcgafcdccgb.gcegfagcgagghadaa#eae#aab.heaaecacdded",
"eddgaaahdcaffggdfagacca#b.cgechgccgacgfaadeddadc#fb.aagfcacagage",
"ffefhfgfafggfceghggagegcb.acfccdfafagcgcccddfehe#db.ecgcgee##dca",
"ahaaacgcgggfgfhdcdgggafab.addadhhdffadgcaagacda#aeb.agchaaahacca",
"hdgcfgdcbbbbbbbbbbbbbbbbb.#cfdfdafcd#afgdggecfcffeb.achechaafhh#",
"hggecfab................d.addaa#acchfcehacfccfcgcgb.ddehfehfeaaa",
"dghfgee.hafeacaeh#hfddhfb.ae#acffddccadc#cffegccffb.fafac#aehaa#",
"bbbbbbb.afac#caafcfaechcb.agcf#aacg#gaf#haahedefadb.ebbbbbbbbbbb",
"......e.ce##eaaffcf#dcdab.a#fhgaghgcfh#dfhe#hahhdebe............",
".gggchb.fcacaea#fhgfd#cgbabbbbbbbbbbbbbbbeadaaeaa#b.a#hdddaaaffh",
".accffb.ccd#affacfkcggfcbf..............egc#dedcdab.#e#eaah#efaa",
".ffac#b.fdd#gdhcahafccdab.c#dahhehfa#hhcbabbbbbbbbb.aae##aedaaaa",
"cffacfb.fgdhfgaacegaaahab.aahha#efadhehcb..........ebbbbbbbbbfha",
"bbbbbbe.fc#cafdfff#ad#a#b.ahehhddhacaeadb.daadcfaecd........ebbb",
"......b.fccafdcaafec#fahb.hhhf#ceffheaeeb.hfhaahafefcfadadaha...",
"dfdfdcb.#fafad#a#fbbbbbbb.eff#cafa#aaacfb.c#aeaffeaaeh#aeaefefee",
"ehfdacb.cfcdddfcab......e.haadheaaa#aca#b.accadd#deafaaacafahaef",
"cecc#fb.dcff#eaab.ehhaa#b.#aaea#ffdaaggeb.fcdagfcccgdd#dhaefadcd",
"hfddaeb.fdf#aafb.fh##eehcb.acdgacfcccgf#b.fafggccdgfcccgcgaff#cf",
"ahdffdb.cdc#hfeb.defaaaehb.gfccgcccfhcgcfbad#fcgccgcaacgfccc#fcg",
"acheheb.aca#heab.e#ea#hheb.afccacg#ccda#gb.ggdcgagd#achghgfgccfg",
"dhfahhb.hhed#aeb.heedfhdeb.cafagfccdda#afb.ecccddedc##fccgccaccc",
"bbbbbbbebbbbbbbb.a#f#gadab.ddagddecaeaadab.eedc#ec#ccfaa#aehaaab",
"...............d.haac##fab.#aadfahdaedcgfb.faeaacfa#ccffedaaecb.",
"hdccaaacadehcadb.ecdfgaaab.adahddhafhafc#bebbbbbbbbbbbbbbbbbbb.h",
"ac#hgadaaacgadcb.feddcfahb.ahh#dhaaaafdahb...................e.a",
"gggaaffgcdadeaab.fgcafddab.heee#aeehahhc#b.faeaea#cacdd#dacddb.d",
"gdee#a#eaadaeahb.gfaagedhb.ahha###faafefhb.a#eaaaghfdeffaaddeb.a",
"#fheheeaechdaacb.f#ada#afb.bbbbbbbbbbbbbbb.aaafahfheadacafccab.a",
"gh#aedcfd#ahhhdb.aacfcacebe......eb......e.cceaeehefgaecedfadb.g",
"ahhdhfhaheccffab.ceaeffa#b.dg#edeb.g#fae#b.faafaaeahehhaa#afab.a",
"edddgdfafdaggfgb.aacfdfecb.eafacdb.heaafab.aeacaecdfe#aahdaaab.c",
"cedccfagfcaf#ccb.fff#d#acb.aeffdfb.aaeeadb.hcfaafhfheheaeaadfb.f",
"#dadg#hafcacheab.ecaaaadab.cacc#cb.dedacab.cc#gdfadafcc###agcb.a",
"bbbbbbbbbbbbbbbbebbbbbbbbbebbbbbbbebbbbbbbebbbbbbbbbbbbbbbbbbbbb"};
