/* XPM */
static char *dummy[]={
"64 64 8 1",
". c #28200c",
"f c #302410",
"# c #403018",
". c #483818",
"a c #543c1c",
". c #5c4020",
". c #6c4824",
". c #80502c",
".........#..........b.........c......................de.........",
".acadaac.....adccccb.a#adacccdb.dadaaac#adaaaaaaaada.b..........",
"c..aeacecb.ccdaaacdb.ccecccaacb.aadf#daaaaddc.#aaaccdb.caaaaada.",
".cacacccab.caacadcfb.cdd#aaaeab.aff#ea...........ccfdb......ddaa",
"cccccdccfb.adcc#adcb.eee#aeeeeb.a#......dc...a##dcdddb.a.......d",
"#aaaa#faab.ccacacaabfbbbbbbbbb##.........b......bbbbbb.#acaacad#",
"acccaaccab.accccaaabbb................f..............e.eaf.ae...",
"#cecc....b.a..c.....b....fe..eff...eeab.........a.daa....eaa#afa",
"c.caadcaa.....ffa#c.......faaa##a...#ab.d#...aff...aab.a...afaff",
"#e.....e#b...e..aca....f#ff##e.....d#b.a...ca#ee#f....abbbbbffda",
"b.....#a......faf#ab.f.faccfaddfacac......ccca#fafcffb......bbbb",
"bf..ffe#fb...df#ff#b...aadacccac..ff#b.....ccccccc....a#adfd....",
"bbbbbbbbbb........e..dac#......a.aaa#b.aa....fd...adb.....##feea",
"...........fa......b.ee.....#a##eff...ee#aaaa#eefc.........af#fb",
".ef........fdaaaf.....faaaaaadda....b.efaae.....fffe....aaecadb.",
"a.#fefe..b.faca.......da#ccaae...cff........#eeeae.fb.ffafaa.b.c",
"fe.........#faf..fab.e................aafa#fefa..e#...fe......dc",
"f....ad..b.aa..#feabcbb................b...........bb.ae....aaad",
"...caaada....ae##afbf.........#b....................a.aaab.acaaa",
"...dceecdb.dace#fffb.ffaffeaafb.eaaaa##aae#ad#ddafefb.afab.#dfaa",
".a#......b.faff...fb.fffee#ff#b.ea#ad#aafcdea#aaadcab.ffeb.#de..",
".#e........a#afc#fab.af#ceefaab.afeadcaa##e#eef#ca#fb.aafb......",
"fa#aeadaeb.c##aeaacb.#ccaeffeab.caaaeeaffaa......f##b.........##",
"bbbbbbbbbbaabbbbbbbbabbbbbbbbbb#bbbbbbbbbbbbbbbbbb.b.......bbbbb",
"........................e.......................................",
"aacaeaeaaa#caf#ccaaaaa#db.adafafe#eeeefff..c#acadc.....aa#.a#a##",
"#eeeddcaccaaccccccfaacfcb.adfaf.........afaefe..ecb.afdcfcaa#bbb",
"adaaaaeaccefadadcdaddaeab.ad#aaaaa#edaaaaffffafafab.........f#..",
"acedaaaaf#adadf#dac#aaa#b.ecccacaa#e#ddafe#da...afb.....#c...#fa",
"..daadffaaef#aaccaacdcccb.ccecaacccaccfadaa#ea....b.feaae...dded",
"eddcaaafdcaaaccdaacacca#b.ccecfcccc.......eddadc....a.c.c.cccdcd",
"aaeafacaaaccacecfccaceccb.acaccdaaaac.ccccddae.............##dca",
"afaaaccccccacafdcdcccaaab.addadffdaaadcc........aeb.acc.........",
"fdccacdcbbbbbbbbbbbbbbbbb.#cadadaacd........cacaa...........bfab",
"fccecaab................d.addaa#accface.......ccc....de#cefaeaaa",
"dcfacee.faaeacaef#faddfab.ae#aca......dc#caaecccaab.aabac#aef#c#",
"bbbbbbb.aaac#caaacaaecfcb..c..#aacc#caa.faafe..#cadfbaebbbba#aeb",
"......e.ce##eaaaaca#d.........c...ccaf.....cadgeaebe...fbfd....c",
".ccccfb.acacaea#afcad....abbbbbbbbbbbbbbbeadaaehgeabfgdfd...aaaf",
".accaab.cc..aaaaca.cccacbafa..hh......gab..#dedcdab.....a...eaaa",
".aaac#....d#c...a....aehdfbfdhgfffagdffc...bbbbbbbb.aae##a.daaaa",
"caaacab.acdfacaacecaaafab.aaffa#eaadfefcb..........ebbbbbbbbbafa",
"bbbbbbe.ac#caadaaa#ad#a#b.afeffddfacaeadb.daadcaaecd........ebbb",
"......b.accaadcaaaec#aafb.fffa#ce......eb.......faeacaadadafa...",
"dadadcb.#aaaad#a#abbbbbbb.eaa#caaa#aaacab........aeaef#aeaeaeaee",
"efadacb.cacdddacab......e....dfea......#b.accedddeefffaab####..a",
"cecc#ab.dca........ffaa...feddg#aadefffeb.acdacaccccd.......adc.",
"f.....b.ada#aaab.a...fedghhacdcac#baaaa#b.a#.......accccccaaa.ca",
"afdaadb.cdc#faeb.deaaaaefb.caccccccafcccabad#accccccaaccaccc#acc",
"acfefeb.aca#feab.e#ea#ffeb.aaccacc#ccda#cb.ccdccacd#acfcfcacccac",
"dfaaffb.ffed#aeb.feedafdeb.caaacaccdda#aab.ecccddedc##acccccaccc",
"bbbbbbbebbbbbbbb.a#a#cadab.ddacddecaeaadab.eedc#ec#ccaaa#aefaaab",
"...............d.faac##aab.#aadaafdaedccab.aaeaacaa#ccaaedaaecb.",
"fdccaaacadefcadb.ecdacaaab.adafddfaafaac#bebbbbbbbbbbbbbbbbbbb.f",
"ac#fcadaaaccadcb.aeddcaafb.aff#dfaaaaadafb...................e.a",
"cccaaaaccdadeaab.accaaddab.feee#aeefaffc#b.aaeaea#cacdd#dacddb.d",
"cdee#a#eaadaeafb.caaacedfb.affa###aaaaeafb.a#eaaacfadeaaaaddeb.a",
"#afefeeaecfdaacb.a#ada#aab.bbbbbbbbbbbbbbb.aaaaafafeadacaaccab.a",
"cf#aedcad#afffdb.aacacacebe......eb......e.cceaeefeacaecedaadb.c",
"affdfafafeccaaab.ceaeaaa#b.dc#edeb.c#aae#b.aaaaaaeafeffaa#aaab.a",
"edddcdaaadaccacb.aacadaecb.eaaacdb.feaaaab.aeacaecdae#aafdaaab.c",
"cedccaacacaa#ccb.aaa#d#acb.aeaadab.aaeeadb.fcaaaafafefeaeaadab.a",
"#dadc#faacacfeab.ecaaaadab.cacc#cb.dedacab.cc#cdaadaacc###accb.a",
"bbbbbbbbbbbbbbbbebbbbbbbbbebbbbbbbebbbbbbbebbbbbbbbbbbbbbbbbbbbb"};
