/* XPM */
static char *dummy[]={
"64 64 437 2",
"bY c #000000",
"dA c #090702",
"cj c #130f05",
"eg c #141006",
"bP c #181307",
"ce c #1c150a",
"bP c #271c0e",
"cl c #291e0e",
"cr c #2b210d",
"b0 c #2c1f0f",
"aK c #4c3519",
"cr c #4d371b",
"#R c #4e361f",
"a1 c #5b3c1f",
"ek c #614021",
"#S c #704a27",
"bn c #714a26",
".f c #724b27",
"bK c #744c28",
"#R c #764c28",
"cH c #764d2c",
"dx c #764e28",
"#w c #794d29",
".e c #7b4f2a",
".K c #7c4e2a",
".e c #7d4f2b",
".m c #7d512b",
"## c #80502c",
".N c #80522c",
"aD c #81512c",
"cW c #81532d",
"#G c #82522d",
".i c #82542e",
"dn c #83532d",
"ao c #83542d",
".R c #84542e",
".k c #85542e",
"dY c #864e20",
"ao c #864f21",
"#w c #86552f",
".O c #86562f",
"ap c #87552f",
"#w c #885630",
"dy c #885830",
"aY c #895730",
"b. c #8b5931",
"#a c #8c5831",
"#Q c #8c5a32",
"#w c #8d4e16",
".Q c #8d5731",
".9 c #8d5a32",
"d4 c #8e5424",
"a. c #8e5832",
"#y c #8e5b33",
"dW c #904f16",
"bn c #905932",
"#T c #905b33",
"#w c #905c34",
"d1 c #915625",
"aK c #915b33",
"#p c #915c34",
"dF c #925a33",
"aP c #925c34",
".p c #935219",
"dU c #935319",
"ab c #935c34",
"a# c #935d35",
"#Q c #944c0a",
"d9 c #945217",
"b. c #945c34",
"#9 c #945d35",
"d8 c #955417",
".S c #95541a",
"#A c #955a27",
".P c #955d35",
".6 c #965e36",
".X c #975518",
".X c #975618",
"#p c #975f37",
"dS c #984f0c",
"dN c #985317",
"#u c #98561a",
"dL c #985b28",
"d4 c #985e36",
"#f c #986038",
".o c #995f37",
"d4 c #9a6038",
"ed c #9a6139",
"dN c #9b571b",
"dX c #9b581a",
"d4 c #9b5c29",
"#r c #9b6139",
"d3 c #9c510c",
"d4 c #9c5b28",
"d4 c #9c6038",
"ee c #9c6139",
"#B c #9c623a",
"d4 c #9d6139",
"dP c #9d623a",
"dO c #9e530c",
"d4 c #9e540d",
"d4 c #9e591b",
".V c #9e6139",
"#G c #9e623a",
"d4 c #9e633a",
"dG c #9f540c",
".q c #9f623a",
"d4 c #9f633a",
"d4 c #9f633b",
"#k c #a0633b",
"d4 c #a0643c",
"d4 c #a14f00",
"dS c #a1560d",
"d4 c #a15a1c",
"d4 c #a15f2c",
".W c #a1633a",
"d4 c #a1633b",
"d4 c #a1643b",
"#E c #a1643c",
"dp c #a1653b",
".p c #a2643c",
"#w c #a2653c",
"cV c #a2653d",
"#t c #a3653d",
"eB c #a44f00",
"eE c #a4530c",
"#A c #a4653c",
"#q c #a4663c",
"#C c #a4663e",
"du c #a5653c",
"#s c #a5663d",
"#H c #a5663e",
"#M c #a6673e",
"#P c #a6673f",
"eA c #a74f00",
"em c #a75100",
"eC c #a7560d",
".u c #a7673d",
".s c #a7673e",
"df c #a7683f",
"d5 c #a85400",
".X c #a8683e",
"#d c #a8683f",
".5 c #a86840",
".Y c #a9683e",
"#o c #a9693f",
"#l c #a96940",
"eG c #aa5400",
".v c #aa693f",
"#m c #aa6940",
"dn c #aa6a3f",
"cX c #aa6a40",
"#u c #ab693f",
"#r c #ab6a40",
"#O c #ab6a41",
"#N c #ac6a40",
"c6 c #ac6b41",
"#v c #ac6c40",
"eF c #ad5400",
"dv c #ad6b3f",
".t c #ad6b41",
"c2 c #ad6c41",
".D c #ae6c42",
"dw c #af6d41",
".Z c #af6d42",
".w c #b06d42",
"c1 c #b06e43",
".G c #b06f43",
".E c #b16e43",
"#n c #b16f43",
".H c #b26e42",
".0 c #b26f43",
"#D c #b27044",
"ea c #b35b0f",
"dh c #b36f43",
"dg c #b37043",
".A c #b47044",
"#c c #b47144",
"eN c #b56822",
".I c #b57044",
".3 c #b57144",
"di c #b57145",
"c5 c #b57245",
"eH c #b65600",
"er c #b65700",
"dj c #b67145",
"#3 c #b67245",
".C c #b76931",
"#4 c #b77145",
"#I c #b77345",
".F c #b87245",
".y c #b87246",
".1 c #b87446",
"en c #b95900",
"eX c #b96420",
"de c #b96b32",
"ac c #b97546",
"dm c #ba7346",
"dl c #ba7347",
"#Y c #ba7446",
"#Z c #ba7647",
".x c #bb7447",
".4 c #bb7547",
"ey c #bc5a00",
"dk c #bc7448",
"#2 c #bc7647",
"#Q c #bc7848",
"#J c #bd7547",
"aV c #bd7748",
".z c #be7648",
"#S c #be7848",
"ez c #bf5900",
"es c #bf5c00",
"cC c #bf7748",
"#X c #bf7949",
"c4 c #c07748",
"c3 c #c07849",
"cW c #c17849",
"#R c #c17949",
"ex c #c25c00",
".B c #c26922",
"cc c #c2784a",
"#0 c #c27a4a",
"cB c #c37136",
"#5 c #c37a4a",
".2 c #c47a4a",
"cU c #c47b4b",
"et c #c55c00",
"ev c #c55f00",
"cd c #c57a4a",
"#V c #c57b4b",
"aG c #c67b4b",
"aU c #c67c4c",
"eq c #c85f00",
"#W c #c87c4c",
"al c #c87d4c",
"#T c #c97c4c",
"cY c #c97d4c",
"aj c #c97d4d",
"cZ c #c97e4d",
"aF c #ca7d4d",
"eu c #cb5f00",
"#U c #cb7d4d",
"ak c #cb7f4d",
"eb c #cc6000",
"aE c #cc7e4e",
"aT c #cc804e",
"ag c #cd7e4e",
"eo c #ce6607",
"#1 c #ce7f4e",
"ai c #ce7f4f",
"ao c #ce804e",
"cw c #cf814f",
"ae c #d0804f",
"#6 c #d08050",
"ec c #d16200",
"ew c #d16607",
"ad c #d1814f",
"aD c #d18150",
"eO c #d2782e",
"ah c #d28150",
"aa c #d28250",
"af c #d38250",
"aY c #d38251",
"am c #d48250",
"ab c #d48351",
"cv c #d58250",
"#7 c #d58351",
"cx c #d68351",
"a# c #d68452",
"ed c #d76500",
"eI c #d76907",
"ep c #d76d0f",
"ap c #d78351",
"cQ c #d78549",
"an c #d88452",
"#8 c #d88552",
"aq c #d98452",
"cT c #d98553",
"a. c #d98653",
"cy c #da8553",
"dd c #db7b2e",
"dc c #db7f34",
"cO c #db8653",
"aQ c #dc8654",
"#9 c #dc8854",
"a2 c #dd874c",
"a3 c #dd874d",
"d# c #de8035",
"aH c #de8854",
"cS c #df884c",
"cR c #df8944",
"aX c #df8955",
"cq c #e08a56",
"d. c #e18136",
"cG c #e18946",
"aS c #e1894d",
"av c #e18955",
"eT c #e28235",
"cP c #e28a45",
"aC c #e28a56",
"ee c #e3730f",
"cJ c #e38a46",
"cH c #e38a47",
"c. c #e38b4e",
"c# c #e38b4f",
"bd c #e38b56",
"eY c #e46c00",
"aM c #e48a56",
"ce c #e48b46",
"cs c #e48c57",
"ar c #e58b48",
"aW c #e58b57",
"bc c #e58d57",
"aR c #e68c47",
"aZ c #e68c4f",
"a0 c #e68c50",
"cr c #e68e58",
"aB c #e78c4f",
"aA c #e78d4f",
"db c #e87d22",
"da c #e87d23",
"au c #e88c58",
"as c #e88d49",
"ct c #e88e58",
"eS c #e97e22",
"a4 c #e98d50",
"a6 c #e98d58",
"cf c #e98e48",
"cN c #e98f50",
"bb c #ea9059",
"at c #eb8f4a",
"a7 c #eb8f59",
"eP c #ec8329",
"aL c #ec8e51",
"aJ c #ec8e52",
"aP c #ec9049",
"cu c #ec905a",
"cg c #ec925a",
"aK c #ed8f51",
"a8 c #ed915a",
"c9 c #ee842a",
"cF c #ee8c3a",
"b9 c #ee904b",
"cM c #ee9052",
"eJ c #ef790f",
"aO c #ef914a",
"eR c #f07a10",
"cI c #f08d3b",
"cE c #f08d3c",
"a9 c #f0945c",
"a1 c #f1914b",
"aw c #f1914c",
"b# c #f19253",
"aI c #f2924b",
"cA c #f29253",
"b. c #f29454",
"b5 c #f29455",
"be c #f2955c",
"bf c #f2985c",
"b4 c #f3965d",
"az c #f49444",
"ci c #f49555",
"ch c #f4955c",
"cz c #f4965d",
"b6 c #f5954e",
"b7 c #f59656",
"bg c #f59d5c",
"eQ c #f68118",
"aN c #f69445",
"ax c #f69446",
"ba c #f6964d",
"b3 c #f6985e",
"cj c #f69954",
"b2 c #f69b5c",
"bS c #f69d54",
"bY c #f69e5c",
"a5 c #f79545",
"co c #f89646",
"bh c #f8a25c",
"cn c #f99746",
"cm c #f99a4d",
"cb c #f99b55",
"bX c #f9a05c",
"bZ c #f9a35c",
"c8 c #fc8820",
"cK c #fc8b27",
"cD c #fc8f2f",
"cL c #fc9337",
"ay c #fc9840",
"ca c #fc9847",
"cp c #fc9b46",
"b8 c #fc9c60",
"cl c #fc9f4d",
"bT c #fca04e",
"b0 c #fca156",
"bW c #fca25d",
"ck c #fca354",
"b1 c #fca455",
"bU c #fca45c",
"bi c #fca85c",
"bk c #fca964",
"bq c #fcaa65",
"bj c #fcab6d",
"br c #fcac6e",
"bx c #fcad76",
"bH c #fcae77",
"bv c #fcb080",
"bp c #fcbd64",
"bV c #fcbd65",
"bG c #fcbe64",
"bw c #fcc176",
"bQ c #fcc177",
"bP c #fcc276",
"bn c #fcc27e",
"bO c #fcc37e",
"bF c #fcd05c",
"bo c #fcd36e",
"bR c #fcd46d",
"bu c #fcd476",
"bE c #fcd575",
"bm c #fcd57e",
"bL c #fcd67d",
"by c #fce774",
"bz c #fce775",
"bN c #fce874",
"bM c #fce87c",
"bl c #fcf96b",
"bt c #fcfa74",
"bD c #fcfb74",
"bs c #fcfc7c",
"bA c #fcfc83",
"bC c #fcfc8b",
"bI c #fcfc8c",
"bB c #fcfc93",
"bJ c #fcfc94",
"bK c #fcfc9c",
"Qt.#.a.b.c.d.e.f.gQt.a.a.c.h.i.j.k.j.l.b.b.k.m.m.m.n.o.p.p.q.r.s.t.u.u.v.v.u.w.x.y.z.A.B.C.A.D.w.t.A.w.t.w.A.A.E.D.A.A.F.G.H.I.y",
".J.J.h.b.K.b.L.M.N.h.O.b.b.b.K.b.h.h.h.h.P.Q.Q.Q.J.R.S.Q.T.U.V.W.X.Y.Z.D.X.D.0.A.A.A.A.D.A.1.2.z.A.3.3.4.A.A.A.A.A.A.D.5.V.r.r.U",
".r.o.6.7.7.8.9#..7.7####.Q.J.J.k.k#a#b.u#c.A#d.q.r#e.V.r.r#f.7#g.T.7#h.9.7#i#j#e.r.r#k.o.6.6.o.q.5#l#m.t.0.0.t.t.t.w.A.t#n.Z.t#o",
"#i.7#i.T#####p#q#r#s#t.D#o#o.X#u#o.X#v.H.X#w#x#y.p#y.7.9.P.9#i.r.r.r#z.6#p.q.U.p.U.U#t#A.q#j.7.7.7.7.9.6.q#B#k.p.X#C#C#d#D.D#C#C",
"#e#E#F#E#C#F#G#k#t#F#H#m.t#m.t.t.t.t.5#G.U.U.U.U#H.t.t.t#m#r#r.w.A#I#J#I#I.3.A.A.A.w.5.5#H#t#t#t#t#e#e#k#t#t.t#c.w.t.t.0.A.3#I#J",
"#K.6.8.9.7#L.9.6#G#k#M#N#O#P.5.5.5#H#t#t.w.A.3.A.A.3#Q#R#Q#S#T#U#T#V#W#W#W#X.A.A.A.t.t.3#I#Y#Y#I#Y#J#J#R#R#R#R#R#W#W#W.2.2#S#Z.1",
".A.w#r#o#o#M.X#o#o#o#o.t.5.5.t.A.D.D.D.D.A.3#I.A.A.1.A.1.1#S#0.1#D.D.D.D.D.D.D#D.w.3.1#0#0#0#0#Q.3#Q#Q.2#W#R#R#R#R#R#T#1#U#U#R#R",
"#R#R#J#2#S#S#S#Q#3.A.A.A.A.w.w.A.A.w.t.t.A.3#3.3.A.t#m.5.5.w.t.t.t.t.Z#n#4#J#J#J#J#V#5#R#V#R.2#W#T#T#W#W#T#6#7#7#8#9#8a.a#aaab#6",
".1.1ac#Q#Q.1.1.1#Q#I#I#I#I#Q#Q.1.A.A.A.w.w.A.A.A.3#I#I#Iac#R.2#R.2#U#1adaeaf#7agagagah#U#U#U#U#Tag#6#U#W#6#6aha#aiaj#5#W#W#U#Uad",
"#5akal#1adadadadamanaf#7ad#1al#V#V#W#U#V#V#5#V#V#VadaoaoamapaqarasatatauavawaxayayayayayazaAaBaAaCa#a#aDaEaEaF.2#W#Q#RaG#U#6#6#6",
"a#aHaCaCaHaIaJaxaIaIaKauaLaIaKauauaMauavauauaNaIaIaIaIaOaPaPaAaCaQaRaSan#7aaaT#WaUaUaU#0#X#Q#Q#QaV.1#I#Q#Q#Q#X#Q#Q#0#0#0#0#T#W#W",
"#1#7#7#9#9#9aHaCaNaNauaWaCaXaCaX#9#9#9#9#9a.a.aY#6#6aEaF#V#V.2#W#R#R#Q#S#Q#Q#Q#Q#Q#Q#Q#Q#Q#Q#R#Q#S#Q#Q#Q#Q#Q#R#R#R#R#RaG#W#T#U#U",
"#9#9#9#9#9#9#9#9#9#9#9#9aZavatat#9#9#9#9#9#9aYai#6#6ag#W#W#0#Q#Q#Q#W#Q#Q#R#R#R#R#Q#Q#Q#Q#Q#R#W#R#R#R#R#R.2#W#W#W#W#T#T#U#U#6#6#6",
"#9aZavaZa0a0ataMaNawa1aPaAaBaPaA#9#9#9#9#9#9aH#7a2ara3arara2#7#7afad#7#7#9a##6aE#W#W#W.2#W#W#W#W#W#T#U#U#U#U#6#6#6ah#7#9#9#9#6#6",
"#9aCaPauaBaPaAaCaCaPaAaCaXaX#9#9#9#9#9#9a4aIaNaNaIaIaya5aIaOaCaCaCaC#9a.aY#6#6#6#6#6#6#6#6#6#6#6#6ahah#7#7#9#9#9#9#9#9#9#9#9#9#9",
"#9#9#9#9#8#9#9#9a##8#9#9#9#9#9#9#9#9a.#9#9#9#9#9#9#9#9#9#9#9#9#9#9#9#9#9#9#9#9#9#9#9#9#9#9#9#9#9#9#9#9#9#9#9#9#9#9auaC#9aH#9aHau",
"#9#9#9#9#9#9#9#9#9#9#9#9#9#9#9#9#9#9#8#8#8#9#9#9#9#9#9#9ah#7#8#9#9#9#9#9#9#9#9#9#9#9#9#9#9#9#9#9#9auaMavavavauauauauauauauauauau",
"#9#9#9#9#9#9#9#9#9#9#9#9#9#9#9#9#9#9#9#9#9#9#9#9#9#9#9#9#9#9#9#9#9#9#9#9#9#9#9#9#9#9#9#9#9#9#9#9#9#9auaHauauauauauauauawaLauauau",
"#9#9#9#9#9#9#9#9#9#9#9#9#9#9#9#9#9#9#9#9#9#9#9#9#9#9#9#9#9#9#9#9#9#9#9#9#9#9#9#9#9#9#9#9avavauauauaua6a7a7a7a7a7a7a8a8a9b.b#baa7",
"bba9bcbcbcbd#9#9#9#9#9#9#9#9#9#9#9#9#9aH#9#9#9#9#9#9#9#9#9#9#9#9#9#9#9#9#9#9#9#9#9#9#9#9avauaua7a7a7a8a9a9a9a9a9a9a9a9a9a9bebfbg",
"bhbgbgbgbgbgbgbgbgbgbgbgbgbgbgbgbgbgbgbgbgbgbgbgbgbgbgbgbgbgbgbgbfa9a9a9a9a9a9a9a9bba9a9a9a9a9a9bgbfbfa9a9a9bhbhbfa9bfbgbibibibi",
"bibibibibibibibibibibibibibibibibibibibibibibibibibibibibibibibibibibibibibibibgbgbgbibibibibhbibibibibibibibibibibgbibibibibibi",
"bibibibibibibibibibibibibibibibibibibibibibibibibibibibibibibibibibibibibibibibibibibibibibibibibibibibibibibibibibibibibibibibi",
"bjbjbjbjbjbjbjbjbjbjbjbjbibjbibibibibibibibibibibibibibibibibibibibibibibibibibibibibibkbjbjbibibibjbkbjbjbibibibibibibibibibibi",
"blblblblblblblblblblblblblblbmbnbobobobobpbjbjbjbjbjbibibibibibibkbkbkbibibibibibibibibibkbqbibibibrbrbrbrbibibkbibibibibibibibi",
"bsbsbsbsbsbsbsbsbsbsbsbsbsbsbsbsbsbsbsbsbtblblblblblbmbubvbobobobwbxbjbibibibkbjbxbvbvbkbibibibibibibibibibibibibibibibibibibibi",
"bsbsbsbsbsbsbsbsbsbsbsbsbsbsbsbsbsbsbsbsbsbsbsbsbsbsbsbsbsbsbsbsbsblbybyblblbybzblblbybvbvbvbvbvbjbibibibibibibibibibibibibibibi",
"bAbBbCbCbCbCbCbCbAbsbsbsbsbsbsbsbsbsbsbsbsbsbsbsbsbsbsbsbsbsbsbsbsbsbsbsbsbDbEbwbFbGbHbHbrbrbrbrbqbibibibibibibibibibibibibibibi",
"bIbIbJbKbKbKbKbKbJbsbsbsbsbsbsbsbsbDbLbMbsbLbLbLbNbLbvbvbvbLbObvbvbvbvbvbvbPbvbjbkbibibibibibibibibibibibibibibibibibibibibibibi",
"bsbsbsbsbsbsbsbsbsbsbsbsbsbsbsbsbsbsbmbmbmblbyblbnbQbobwbvbvbvbqbkbrbrbxbrbrbrbrbibibibibibibibibibibibibibibibibibibibibibibibi",
"bMbsbsbsbsbsbsbsbsbsbsbsbsbsbsbsbsbsbsbsbsbsbsbsbsbsbsblbRbRbobvbkbibibibibibibibibibibibibibibibibibibibibibibibibibibibibkbjbj",
"bSbTbTbUbkbqbrbrbrbVbrbVbGbrbrbVbFbFbFbGbrbrbrbibibibibibibibibibibibibibibibibibibibibibibibibibkbjbjbibibibibibibibibibibibibi",
"bibibibibibibibibibibibibibibibibibvbxbxbvbjbjbibibkbjbkbkbkbibibibibibibibibibibibibibibibibibrbrbHbrbrbrbqbibibibibibibibibibi",
"bgbgbhbibibibibibibibibibibibWbXbYbYbYbYbYbWbTbTbTbTbYbYbYbYbYbYbYbhbibibibibibibibibibibibibibZbYbUbibibibibibibibibibibibibibi",
"bTbTbTbTbTb0bTb1b2b3b4a9a9a9a9a9bea9b5b6b7b8ayayayayayaNaNb9atatatatc.#9#8#9a#a#a#a##9#9c#atatataxaycacbbibhbibYbibibibibibibibi",
".zcccdaTancecfaPcgcgchcicjbYbYbYbYbYbYbYbYbhckclcmcnbacoayaycnbTclcpclclclclclayayaycpayaycpcpayayayayb4a9a9a9a9a9a9a9a9a9bfbfbY",
".u#o#r#s#t#t.5#m.3.1#Y.zaj#WaEaaama#a#aEaaaaaa#8cqcrcrcrbdcsctcucucraCaC#9#9a#a#aacv#7cwaacxcy#7aaa#a#aQaCbdcrcrcrcua9czcicAa9bY",
"cB#J#J#J#J.F.A.FcC#J.2#W#W#W#WaEaEaUaU#0#0#0#0#TaEaF#U#T#T#UaYa##9#9a#a##8#U#U#T#W#V#V#R#W#W#V#V#Wad#7af#7#7#9#9#9#9#9#9#9#9#9#9",
"ayaycDcDcDcDcDcDcDcDcDcDcDcDcDcDcDcDcDcEcFcGcHcIcHcJcJarcEcDcDcKcKcDcDcLaycLcLayayayayayayayayayayayayayawawcMaCau#9#9#9#9#9#9#9",
"aaaaaaaaaaaaaaaqaQaCaCaCbdcNcscOaQcyanaaaaaaanaaaaaaaaaaaacwaTaacPcPcQcRcPcPcPcPcPceaRaRaRcPcPcPcPcPcPcPaRcScTaacOaX#9#8a#a#a#a#",
"#Q#Q#Q#Q#Q#Q#Q#Q#0#0#0aUcU#0#0#0#0#Q#Q#Q#Q#Q#Q#Q#Q#Q#Q#S#0#Q#Q#Q#Q#Q#Q#Q#Q#Q#Q#Q#Zac#Z.1.1.3.A.A.A.A.A.A.3.1.1#Q#Q#Q#Q#Q#Q#Q#0#0",
".3#Q#Q#Q#Q#Q#Q#Q#Q#Q#Q#Q#Q#Q#Q#Q#Q#Q#Q.1.1.1.1ac#Q#Q#Q#Q#Q#Q#Q.1.1.1.1.1.1.1.1.1.1.1.A.A.A.A.3#I.3.A.A.3#Iac#Q#Q#Q#Q#Q#Q.1.1.1.1",
".A.A.1.1#3.A.A.A.A.Aac#Q#Q#Q.1.A.A#3.A.A.A.A.A.3.1.1.A.1.A.A.1.A.A.A.A.A.A.A.A.A.A.A.A.A.A.A.1.1.1.1.1.A.A.A.A.A.3#I#Iac#Iac#Q#Q",
".w.E.w.D.w.A.A.A.A.A.A.1.1#3.A.1.A.A.A.A.A.A.E.w#O.D.D.D.D#m.D.5#O#m.5.5#m.5.D.D.D.w.A.w.A.A.A.A.A.A.A#Qac.3.3ac.1.1.1.1.D.D.5.5",
".5.5#m#m.5#m.5.5.5.5#m#m.t.t.E.5.5#m.D.D.w.A.A.A.w.t.t#m.5.5#H.5.5#E#H.5.5#t#t.5.5#H.5.5.5.5#m.D.D.D.w.D.D.D.D#m.5.5.5.w.E.D.D.D",
"ac#I#I.A.3#I#c#c.3.0#I#I.w.A.t.t.A#m.5.5.5#m#l#H.D.D.D.w.A.A.A.A.A.A.t.5.5.5#H.5#m#H#C#H.5#P#C.5.5.5#H#F#F#E.5#H#H#C#C#C#C#C#C#C",
"ac#Q#Q#Q#S#0#0#W.2#W#W#T#W#R#Q#Q#Q#Q#I#I.t#m#t#M.5.5#t#H.5.5.5.5.5.D#O.5.t.t.t#H#H.5#H#F#C#H#C#F#F#F#F#F#FcV#F#F#F#F#F#F#F#F#F#F",
"#I#Q#Q#Q#Q#Zac.1.1.1ac#Q.2#T#W#0#Q#I#Iac#I#Y#JcC#JcW#5cC#R#R#J#J#J#J#J#J#J#R#J#I#I#Y#I#I.0.t.w.t.t.t#o#o#o#t#t#t#t#t#t#t#t#t#r.t",
"#Q#Q#Q#Q#Q#Q#Q#Q#Q#Q#S#W#6a#aiaF.2#Q#Q#Q#Q#Q#0#0#0#W#WaEaaa#aY#7#9#9#9#9c##9a3a2#7#7#7ad#1#U#W#V#R#R#R#R#I#I#I#I#I#I#I#I.A.A#Q#Q",
"#Q#Z#Z.1.1.1.1.1.1.1.1.1.1#Q#Q#Q#Q#Q#Q#Q#Q#Q#Q#Q#Qac.1.1#Qac#0#0#0#0#5aUaUaaaaaaama##8#9#9#9#9#9#9#9#8#7ar#U#U#U#U#U#U#5#R#R#R#R",
".D.D.D.D.D.D.D.D#m.D.D.D.D.D.D.D.D.D.D.D.D.D.D.D.D.D.D.D.DcX#N.D.D.D.D.D.D.D.w#3.1.1#Y.z#5cYcZ#Waaaaaaa#aaaaa#a#a#aD#1aEaEaEaEaE",
"c0#F#F#F#F#F#F#F#F#F#E#F#F#F#F#F#C#F#F#F#F#F#E#F#E#F#C#C#CcV#H.5.5#m.w.w#m#m.t.t.D.5.D.D.D.D.3.1c1c1.D.D.D.D#D#D#D.D.D.D.D.D.D.D",
"#p#F#F#F#F#F#E#t#M#M#o#o#t#M#o#o#o#o#o#o#o#o#t#t#t#t#o#o#o#oc2#n#I#I#I.A.A.A.A.A.3#I#I.A.A.A.w.5.5.5.5.5.5#P#C#C#C#C#C#C#E#F#F#F",
"#F#F#F#E#t#E#E#H.w#m.A.A.A.A.A.A.A.A.A#I#I#I#I#I#Q#Q#Q#0#0#0#0#0c3c4.z.z.z.z.4c5c1.D.D.D.D.5.5.5.5#CcV#E#F#F#F#F#F#F#F#E#F#F#F.5",
".t.t.w.A.A.5.D.D.D#Oc6#N.D#m.D.D.5.D.D.Dc6cXcXcXcXcXcX#C#C#t.p#t#C#t.p.p#G#k#F#F#F#F#F#F#F#F#K#G#F#F#F#F#F#F#F#F#E#E#F#E#C#C#E#C",
"#C#C#CcV#F#F#F#F#F#F#G#G#F#F#F#F#F#F#F#F#G#e#G#e#e#F#F#Fe.#e#e#e#F#e#e#e.r.r.r.r#G#G#K#G#G#G#G#Gc0#Gc0c7c7#p.6.6c7#p.6#i.6.6.6c7",
"#o#o#r#t#t#t#t#t#t#t#t#t#t#Fea#F#F#F#F#F#e#e#e#e#e#G#e#e.o#e#e#z#z#p#e#p#G#p#p#p#p#p#p#p#p#p#p.6.6dv#z#i.7.7.7.7.7.7.7.7.7.7.7.7",
"c8c8c8c8c8c8c8c8c8c8c8c8c9d.d.d#d.d.d.d.dadbd.dcd#d.d.ddde#O.Ddf#Mdg.Adh#4.H.Hdid8dj.A.A.y.ydkdl.ydl.z#Idm#4#4dn.u#qdodpdq#v.u#o",
"#i#idr#y#B#B#p.6c7c7#y#Kdsdt.q#K#y#B.pdu.X.X.Xdv.Hdw.X.p.r.rd3.r.r.r.r.r.r#j#z.r.r#j.r.7.7.7#i.r.r#j#i.6.6.6.6#p.6#j.r.r.6dH.6.6",
"dx.Rdydzdzdz.9.7.7.7.7.7.7#z.7.7.7#z#z#i#i#i.6#j#f.r.r#f.6.6.6.6.6.6.6.6.6.r.o.6.6#i.6.6.6#i#f.7.6.6.6#i.6.6.r#e.r.r.r#e.r.r.r.r",
"dAdBdCdDdE.ddFdGdHdI.6#idHdJdKdLdMdIdNdOdPdQdRdSdTdUdVdQdQdQdQdWdXdQdQdYdZdQdQ.hd0d1d2d3d4d1d5d6d7d8ebe.dXe#eaebecedebedeeededeb",
"efefefefefegeheiejekelemeneoepeqereseneteuevewewexeseyerenezeueneneneneAeBeCeAeDeEeFeGdTdTdJdOdTdTdSeGeHeIeJeJc8c8c8c8c8c8c8c8c8",
"efefefefefefefefefefegeKeLeMeNeOePc8c8c8c8c8c8c8c8c8c8c8c8c8c8c8djc8c8c8c8c8c8c8c8eJeJeJeJc8c8c8c8c8c8c8c8c8c8c8c8c8eQeReReSeTeR",
"diefefefefefefefefefefefefefeUeVeW.JeXeYeYeYeYeYeYeYeYeYeYeYeYc8c8dGc8c8c8c8c8c8c8c8eYeJeYeReYeYeYeYeYeYeYeJeJeYeReReReYeYeYeYeY"};
