/* XPM */
static char *dummy[]={
"64 64 118 2",
"Qt c #000000",
".a c #060606",
".b c #070707",
"#i c #080808",
".2 c #090909",
".e c #0a0a0a",
".z c #0b0b0b",
".f c #0c0c0c",
".i c #0d0d0d",
".# c #0e0e0e",
".7 c #0f0f0f",
".Z c #101010",
"#c c #111111",
".d c #121212",
".h c #131313",
".u c #141414",
".w c #151515",
".j c #161616",
".l c #171717",
"#o c #181818",
"#h c #191919",
".N c #1a1a1a",
".3 c #1b1b1b",
".P c #1c1c1c",
".q c #1d1d1d",
".R c #1e1e1e",
".S c #1f1f1f",
".A c #202020",
".D c #212121",
".6 c #222222",
".M c #232323",
".o c #242424",
".8 c #252525",
".m c #262626",
"#g c #272727",
".a c #282828",
".e c #292929",
".B c #2a2a2a",
".d c #2b2b2b",
".I c #2c2c2c",
".i c #2d2d2d",
".H c #2e2e2e",
".E c #2f2f2f",
".o c #303030",
".r c #313131",
".o c #323232",
".I c #333333",
".h c #343434",
".o c #353535",
".5 c #363636",
".o c #383838",
".L c #393939",
".o c #3a3a3a",
".T c #3b3b3b",
".o c #3c3c3c",
"#w c #3d3d3d",
".K c #3e3e3e",
".J c #3f3f3f",
".Z c #404040",
".x c #414141",
"#E c #424242",
"#m c #434343",
".L c #444444",
".U c #454545",
".L c #464646",
".L c #474747",
".L c #484848",
".L c #494949",
".o c #4a4a4a",
"ap c #4c4c4c",
"#M c #4d4d4d",
"ay c #4e4e4e",
"#s c #505050",
"al c #515151",
".Y c #525252",
"#Y c #535353",
".o c #545454",
"#P c #555555",
"#D c #565656",
"#l c #575757",
"#X c #595959",
".L c #5a5a5a",
"#I c #5c5c5c",
".L c #5d5d5d",
".k c #5e5e5e",
".5 c #606060",
".5 c #616161",
"bw c #626262",
"#C c #636363",
"#H c #646464",
"#W c #656565",
"#8 c #686868",
".o c #696969",
"aB c #6b6b6b",
".o c #6c6c6c",
".L c #6d6d6d",
".o c #6f6f6f",
".v c #707070",
".H c #737373",
".o c #747474",
"#z c #767676",
".o c #777777",
"#y c #797979",
".o c #7a7a7a",
"#P c #7e7e7e",
".o c #7f7f7f",
"#e c #818181",
".o c #858585",
".t c #898989",
".o c #8a8a8a",
".L c #929292",
".o c #949494",
"#B c #969696",
".o c #999999",
"#Z c #c1c1c1",
".o c #c3c3c3",
"#x c #d6d6d6",
".o c #d9d9d9",
"aU.L.L.L.LQtQtQt.oQt.oQtQtQt.o.o.#Qt.o.o.oQtQtQt.oQtbXbY.o.aQt.o.oQoQtQtQtQt.o.oQtQtQtQtbZb0QtQtb2.ib3QtQtQtQtQtQtQtQtQtQtQtQtQt",
".o.o.o.o.o.oQtQtQtb4Qtb5b6b7b7.b.c.dQtQtQtb8b#QtQtQtcab6Qt.aQtccQtQtQtcbQtQtcec.QtQtQtbXQtQt.e.fcibYbYQtQtQtQtclQtQtQtQtQtQtQtQt",
"QtQtQtQtQtQtQtQtQtQt.o.o.o.iQtQtQt.aQtQtQtb5QtQtQtQt.iQtQt.i.#QtQtQtbjQtQtbhQtQtQtaXa6QtcoQt.j.kQtQtQtc#c#QtQt.l.j.ab#b6Qtb6b5Qt",
"QtQtQtQtQtQtQtQtQt.iQt.n.o.o.o.o.o.o.o.o.o.o.o.o.oQt.p.q.actcuQtQtQtQtQtbjbiQtQtaXaSQtQtbgcoQtQtQtcnQtQtbrcncnco.t.u.v.oQtQtQtQt",
"Qt.o.o.o.o.o.oQtQtQtQtQtQtQtQtQtQt.o.o.o.o.o.o.o.o.o.o.fQt.b.xQtb6QtczQtQtb#b7QtQta8QtQt#H#HQtQtQtcwaSQtQtQtcCQtcDb6Qt.bQtQtQtbi",
"Qt.A.dQt.oQt.o.o.o.o.o.o.o.o.oQt.o.o.d.aQtQtQtQt.a.o.o.o.o.o.o.oQtQtcsQtQtQtQtb4b7QtQta6QtQtQtb.aSaTQtQtQtaTbiQtQtcG.o.o.o.o.o.o",
"QtQtQtQtQtQt.aQtQtQt.o.o.oQtQtQtQt.B.C.o.o.o.o.o.o.o.o.o.o.o.o.oQtQt.o.o.o.o.o.o.o.o.o.o.oQtQtcNQtQtQtc#QtQtQt.acQQtQtcSbuQtQtQt",
"QtQt.iQtQtQtQtQtQtQtQtQtQtQtQtQtQt.H.F.o.H.C.LQtQtQtQtQt.o.o.o.o.o.o.oQtQtQt.o.o.o.o.o.o.o.o.o.o.o.o.o.o.o.o.o.o.o.o.o.o.o.o.o.o",
"Qt.I.o.JQtQtQtQtQtQtQtQtQtQtQtQtQtQtcVQt.u.KQtQtQtQtQtQt.3.oQt.o.o.o.oQtQoQt.o.o.o.o.o.vQt.oQt.o.o.o.o.o.L.aQt.a.aQt.o.oQt.o.o.o",
"QtQtQt.aQtQtQtQtQtQtQtQtQtQtQtQtQtQtQt.iQtb#QtQt.o.o.o.o.o.o.oQt.o.o.M.NQtQtQtQtQtQt.o.o.o.k.j.RQtQtQtQt.o.tQt.i.o.o.o.o.o.o.o.Q",
".qQt.a.kQtQtQtQtQtcZQtQt.MQtQtQtQtQtQt.R.w.#QtQtQtQtQtQtQtQtQtQtQtQtQtQtQtQtQtQtQtQtQtQtQt.u.fQtcuQtc#cmQtQtQtb6Qt.S.TQt.U.Nb0.o",
".t.o.o.o.o.o.o.oQtQtQtQtQtQtQt.zQtQtQtQtc3c4cXQtQtQtQtQtQtQtQtQtQtQtQtQtQt.a.iQtQtQtQtQtQtQtQtQtQt.wQtQtQtQtQtQtQtQtb#Qtb7b7b#Qt",
".k.a.W.aQt.zbQ.o.oQtQtQtQtQt.o.zQtQtQtQt.q.OQtQtddQtQtQt.zdfQtQtdgQtQtQtc4di.jQtQt.a.XQtQtQtQtQtQt.YQtQtQtQtQtQtQtQtQtQtQtQt.Z.0",
"dmQt.d.bQtdqQt.aQtQtQtQtdtQtQt.advdwQtQtQtdx.o.oQtQtQtQt.r.vQtQtQtQtQt.U.o.o.o.s.vQtQt.#QtQt.B.b.bQtQtQtQtQt.PQtQtQtQtQtQtQt.2.s",
"QtQtQtQtcJcLQt.adzcJQtQtdBdBQt.wQtdDQt.3QtQtQtdGQtQtQtdzQtQtQt.abZQtQtQtb1b1QtQtdvQtQtQt.sQtQtdL.s.kQtQtQtdMQtQt.U.uQtQtQtQtQtQt",
"bgQtQtbga8aSaSbga8cwQtQtbrcncncDcbQtQt.5cbcq.#.7.D.aQtcpcDQtQtQtc6cq.8Qtcab6QtQtQtcEQtQtdPQtciQtQtQtb1QtQtQtdQdRdwQtQt.o.oQtQtbZ",
".#QtQt.i.9#.QtQtQtQtdVQtQtbCQt##QtQt#HQtQtQtQt.5.5dWdXQtQtdZd0Qt.a.W#aQtcwQtQt.a.#QtQobhcoQtcnbhQta6cwQtQtQtQtcnbjb7Qtcbb6Qtcq.a",
".a.a.a.a#b#cQtQtQtQtQtQt.a.u.iQtQtQtQtQtQtQtQtQtQtd7QtQtd9QtQte#Qt.e.MQtebQtQtedeeQtQtQtegefefefefQtQtQtejekQtQtemQtQtQtd2Qt.bep",
"ey.##deBQtQtetQtQteFeGQt.a#e.V.9QtQtQteOQtQtQteM.AeQeReSeTeRQtQtQtQteX.aQtQteZe0QtQte2Qt.7#fe5QtQtc6QtQtQtQtb6b7b6QtQtQtQtQtQtb1",
"QtQt#gQtQtQtQtQtQtQtQtQtQt#h.b.#faQtQtfbQt.i.B.P.#fgfhQtQtfjQtQtQtQtfnQtQtQtfqQtQtfsQtQt.afifvQtQtfwfx.aQtfzfiQtQteIQtQtQteSQtQt",
"QtQtQt.A.aQtQtQtQtQt.a#iQtQtQtQt.aQtQtQtQtQt.B.1QtQtQtQt.aQtQtQtQtQtQtQtQtQtQtQtQtQtQt#c.lQtQtQtQtQt.l.K.##j.0QtQtQtQtQtQtQtQtQt",
"QtQtQt.6.#QtQtQtQt.rQtQt.TQtQtQt.6.FQtQtQtQtQtQtQtQtQtQt.Z#kQtQtQtQtQtQtQtQtQtQtQtQtQt.Z#lQtQtQtQtQtQt.bQt#c#mQtQtQtQtQtQtQtQt.a",
"QtQtQtQtQtQtQtQtQtQtQtQt.9.dQtQt.j#nQtQtQtQtQtQtQtQtQtQt.2.p.aQtQtQtQtQtQtQtQtQt.a.#QtQtQtQtQtQtQtQtQtQtQtQtQtQt.aQtQtQtQtQt.a#g",
"Qt.a#oQtQtQt.a.iQtQtQtQtQtQtQtQtQt.aQtQtQtQt.aQtQtQtQtQtQtQtQtQtQtQtQtQt.n#pQt.a.#.mQtQtQtQtQtQt.i.aQtQtQtQtQtQtQtQtQtQtQtQtQtQt",
"QtQt.RQtQtQt.d#qQtQtQtQtQtQtQtQtQtQtQtQtQtQtQtQtQtQtQtQtQtQtQtQtQtQtQtQt.i#gQtQt.b#r.fQtQtQtQtQt.O.I.aQtQtQtQtQtQtQtQtQtQtQtQtQt",
"QtQtQtQtQtQtQt.#QtQtQtQtQtQtQtQtQtQtQtQtQtQtQtQtQtQtQtQtQtQtQtQtQtQtQtQtQtQtQtQtQt.a.rQtQtQtQtQt.e#h#j.XQtQtQtQtQtQtQt.aQtQtQtQt",
"QtQtQtQtQtQtQtQtQtQtQtQtQtQtQtQtQtQtQtQtQtQtQtQtQtQtQt.a#d.iQtQtQtQtQtQt.a.aQtQtQtQtQtQtQtQtQtQtQtQt.u#sQtQtQtQtQtQt.i.7QtQtQtQt",
"QtQtQtQtQtQtQtQtQtQtQtQtQtQtQtQtQtQtQtQtQtQtQtQtQtQtQtQt.U.DQtQtQtQtQtQtQtQtQtQtQtQtQtQtQtQtQtQtQtQtQtQtQtQtQtQtQtQt.3#tQtQtQtQt",
"QtQtQtQtQt.a.a.aQtQt.a.C.fQtQtQtQtQtQtQtQtQtQtQtQtQtQtQtQtQtQtQtQtQtQtQtQtQtQtQtQtQt.a.a.aQtQtQtQtQtQtQtQtQtQtQtQtQt.a##QtQt.b.b",
"QtQtQtQt.a.P.l.QQtQtQt#d#..bQtQtQtQt.a.aQtQtQt.lQtQtQtQtQtQtQtQtQtQtQtQtQtQtQtQtQtQtQt.7#uQtQtQtQtQtQtQtQtQtQtQtQtQtQtQtQtQt.l#v",
"QtQtQtQt#f.5#wQtQtQt.aQt.P.aQtQtQtQt.Q.oQtQtQtQtQtQtQtQtQtQtQtQtQtQtQtQtQtQtQtQtQtQtQtQt.bQtQtQtQt.a#mQtQtQtQtQtQtQtQtQtQtQtQt.b",
"QtQtQt.i#m#x#b.lQtQtQtQt.X.U.bQtQtQt.7.PQtQt.aQtQt.a.iQtQtQtQtQtQtQtQtQtQtQtQtQt.uQtQtQtQtQtQtQtQtQt.BQtQtQtQtQtQtQtQtQtQtQtQtQt",
"QtQtQt.a#h#y#z#AQtQtQtQt.i.JQtQtQt.u.aQtQtQtQt.iQt.i#B.aQtQtQtQtQtQtQtQtQtQtQtQt#C.aQtQtQtQtQtQtQtQtQtQtQtQtQt.w.8.b.bQtQtQtQtQt",
"QtQtQtQt.i.w#u.OQtQtQtQtQtQtQtQtQt.2QtQtQtQt.i.I.zQt#hQtQtQt.aQtQtQtQtQtQtQtQtQt.aQtQtQtQtQtQtQtQtQtQtQt.Z.aQtQt.b.U#DQtQtQtQtQt",
"QtQtQtQt.b.i#oQtQtQtQtQtQtQtQtQtQtQtQtQtQtQt.u.C#cQtQtQtQtQt.#QtQtQtQtQtQtQtQtQtQt.R.EQt.aQtQtQtQtQtQtQt.5.sQtQtQt.a.lQtQtQtQtQt",
"QtQtQtQt.aQtQtQtQtQtQtQtQtQtQtQtQtQtQtQt.a.a.W#EQtQtQtQtQtQtQtQtQtQtQtQtQt.hQtQt.a.uQtQtQtQtQtQt.#.aQt.u.S.zQtQtQt.i.i.aQtQtQtQt",
"QtQtQtQtQtQtQtQtQtQtQtQtQtQtQtQtQt.aQtQtQt#k.r#FQtQtQtQtQtQtQtQtQtQtQtQtQt.aQtQt.aQtQtQtQtQtQt.u#G.AQt.a.BQtQtQtQt.P#u.AQtQtQtQt",
"QtQtQtQtQt.a.lQtQtQtQtQtQtQtQtQtQt.A.aQtQt#A.n.bQtQtQtQtQtQtQtQtQtQtQtQtQtQtQtQtQtQtQtQtQtQtQtQt.N#iQtQtQtQtQtQt.i.a.d.wQtQtQtQt",
"QtQtQtQtQtQt.bQtQtQtQtQtQtQt.iQt.w#H.KQt.bQt.bQtQtQtQtQtQtQtQtQtQtQtQtQtQtQtQt.a.aQtQtQtQtQtQtQtQtQtQtQtQtQtQtQtQtQtQtQtQtQtQtQt",
"QtQtQtQtQtQtQtQt#h.dQtQtQt.i.v.e.u#B.AQtQtQtQtQtQtQtQtQtQtQtQtQtQtQtQtQtQt.iQt.a.eQt.a#I.aQtQtQtQtQtQtQtQtQtQtQtQtQtQtQtQtQtQtQt",
"QtQtQtQtQtQtQt.u.m#JQtQtQtQt.C.z.aQtQtQtQtQtQtQt.3#I.aQtQtQtQt.i.3QtQtQtQtQtQtQtQtQtQtQtQtQtQtQtQtQtQtQtQtQtQtQtQtQtQtQtQtQtQtQt",
"QtQtQtQtQtQt.a#J.r.bQtQtQtQtQt.i.#QtQtQtQtQtQtQt.b.vQtQtQtQtQt.Z#K.RQtQtQtQtQtQtQtQtQtQtQtQtQtQtQtQt.iQtQtQtQt.e.8QtQtQtQtQtQtQt",
"QtQtQtQtQtQtQt.Q.0QtQtQtQtQtQtQt.CQtQtQtQtQtQtQtQtQtQtQtQtQtQtQt.h#J.AQtQtQtQtQtQtQtQtQtQtQtQtQtQtQt#t.MQt.l.o.P#y.aQtQtQtQtQtQt",
"QtQtQtQtQtQtQtQtQtQtQtQtQtQtQtQtQtQtQtQt.bQt.w.XQtQtQtQtQt.a.NQtQtQtQtQtQtQtQtQtQtQtQtQtQtQtQtQtQt.i.B.AQt.u#KQtQtQtQtQtQtQtQtQt",
"QtQtQtQtQtQtQtQtQtQtQtQt.l.#QtQtQtQt.bQtQtQt.##LQtQtQtQtQt.a.MQtQtQtQtQtQtQtQtQtQtQtQtQtQtQtQt.b.a.i##QtQtQt.aQtQtQtQtQtQtQtQtQt",
"QtQtQtQtQtQt.aQtQtQtQtQt.a#wQtQtQt.a.9QtQtQt.h#oQtQtQtQtQtQtQtQtQtQtQtQtQtQtQtQtQtQtQtQtQtQt.a#M.0.u.BQtQtQtQtQtQtQtQtQtQtQtQtQt",
".a.aQtQtQt.a.J.aQtQtQtQt.i.8.eQt.iQt.a.aQtQtQtQtQtQtQtQtQtQtQtQtQtQtQtQtQtQtQtQtQtQtQtQtQtQtQt.u#pQt.jQtQtQt.aQtQtQtQtQtQtQtQtQt",
".C#yQtQtQtQt.uQt.i.GQt.i.4.aQtQt.#Qt.mQtQtQtQtQtQt.a.aQtQtQtQtQtQtQt.a.aQtQtQtQtQtQtQtQtQtQtQtQtQtQtQtQtQtQtQtQtQtQtQtQtQtQtQtQt",
".#.yQtQt.bQtQtQtQt.IQtQt#E.bQtQtQtQtQtQtQtQtQtQtQt#J.rQtQtQtQtQtQt.a.#.HQt.DQtQtQtQtQtQtQtQtQt.a.bQtQtQtQtQtQtQtQtQtQtQtQtQtQtQt",
"QtQtQtQtQtQtQtQtQtQtQtQtQtQtQtQtQtQtQtQtQtQtQtQtQt#o#gQtQtQtQtQtQt.a.bQtQtQtQtQtQtQtQtQtQtQtQtQtQtQtQt.a.bQtQtQtQtQtQtQtQtQtQtQt",
"QtQtQtQtQtQtQtQtQtQtQtQtQtQtQtQtQtQtQtQtQtQtQtQtQt.aQtQtQtQtQtQtQtQtQtQtQtQtQt.a.aQtQtQtQtQtQtQtQtQtQt#g#NQtQtQtQtQtQtQtQtQtQtQt",
"QtQtQtQtQtQt.a.#QtQtQtQtQtQtQtQtQtQtQtQtQtQtQtQtQtQtQtQtQtQtQtQtQtQtQtQtQt.iQtQtQtQt.a.iQtQtQtQtQtQtQt.a#w.aQtQtQtQtQtQtQtQtQtQt",
"QtQtQtQtQtQtQtQtQtQtQtQtQtQtQtQtQtQtQtQtQt.H.NQtQtQt.3#h.aQtQtQtQtQt.a.bQtQtQtQtQt.a.l#tQtQtQtQtQtQtQtQtQtQtQtQtQtQtQtQtQtQt#f.M",
"QtQtQtQtQtQtQtQtQtQtQtQtQtQtQtQtQtQtQtQtQt#E.J.iQtQt.a#s.D.aQtQtQtQtQt#O.KQt.aQtQtQtQt#gQtQtQtQtQtQtQtQtQt.##O.bQtQtQtQtQtQt.m#r",
"QtQtQtQtQtQtQtQtQtQtQtQtQtQtQtQtQt.aQtQtQtQtQtQtQtQt.a#n#P.wQtQtQtQtQtQt#cQtQtQtQtQtQtQt.aQtQtQtQtQtQtQtQt.V#Q#f.a.iQtQtQtQt.i.s",
".aQtQtQtQtQtQtQtQtQtQtQtQtQtQtQtQt.aQtQtQtQtQtQtQtQtQt.b.N.b.d.aQtQtQtQtQtQtQtQtQtQtQt.a#y#cQtQtQtQtQtQtQt.a#R#l.#.U.2QtQtQtQtQt",
"QtQtQtQt.a.dQtQt.iQtQtQtQtQtQtQtQtQtQtQtQtQtQtQtQtQtQtQtQtQt.q.wQtQt#o.oQtQtQtQtQtQtQtQt.B.zQtQtQtQtQtQtQt.a.R.B#S.a.#QtQtQtQtQt",
"QtQtQtQt.a#OQt.a.#QtQtQtQtQtQtQtQtQtQtQtQtQtQtQtQtQtQtQtQtQtQtQtQt.a.i#gQtQtQtQtQtQtQtQtQtQtQtQtQtQtQtQtQtQt#.#T#T.jQtQt.h.aQtQt",
"QtQtQtQt.#.Q.##UQtQtQtQtQtQtQtQtQtQtQtQtQtQtQtQtQtQtQtQtQtQtQtQtQt.Q#fQtQtQtQtQtQtQtQtQtQtQtQtQtQtQtQtQtQtQt.g.M.jQtQt.a#N#gQtQt",
"QtQtQtQt.a.n.a.KQtQtQtQt.a.iQtQtQtQtQtQtQtQtQtQtQtQtQtQtQtQtQtQtQt.o.9.aQtQtQtQtQtQtQtQtQtQtQtQtQtQtQtQtQtQt.7.i.D#kQtQt.h.NQtQt",
"QtQtQtQtQtQtQtQtQtQtQt.i.H#U.N.aQtQtQtQtQtQtQtQtQtQtQtQtQtQtQtQtQtQt.a#m#OQtQtQtQtQtQtQtQtQtQtQtQtQtQt.a.aQtQt.b#q.yQt.aQt.NQtQt",
"QtQtQt.a.aQtQtQtQtQt.Z.5.T#V#d.dQtQtQtQtQtQtQt.aQtQtQtQtQtQtQtQtQtQtQt.7#hQtQtQtQtQtQtQtQtQtQtQtQtQtQt.Y.VQtQtQt.V.bQtQt.aQtQtQt",
"Qt.a.i.P.4QtQtQtQtQt.a#W.S#d.J.#QtQtQtQtQtQtQt.uQtQt.aQtQtQtQtQtQtQtQtQtQtQtQtQtQtQtQtQtQtQt.X.aQtQtQt.3.VQtQt.a.u.C.aQt.a.b.aQt",
"Qt.b#F#M.X.aQtQtQtQtQtQtQt.a#X.mQtQtQtQtQtQtQtQtQt.a#EQtQtQtQtQtQtQtQtQtQtQtQtQtQt.b.uQtQt.a.G.A.iQtQtQtQtQtQt.i#Y#Z.iQtQtQt.aQt"};
