/* XPM */
static char *dummy[]={
"64 64 484 2",
"d1 c #000023",
"d0 c #000025",
"dy c #00002a",
"Qt c #00002c",
".# c #00002d",
".h c #00002e",
".b c #00002f",
".d c #000030",
".c c #000031",
".a c #000032",
".e c #000034",
".i c #000036",
".B c #000037",
".k c #000039",
".v c #00003a",
"bP c #000f30",
"bU c #000f32",
".E c #000f34",
".f c #000f36",
".g c #000f39",
".L c #000f3a",
".t c #000f3c",
".w c #000f3d",
"aN c #001037",
".T c #001039",
"aY c #00103a",
".K c #00103c",
"al c #00103d",
"dx c #001f37",
".n c #001f39",
"cU c #001f3c",
"a8 c #001f40",
"cV c #002038",
".l c #002039",
".y c #00203a",
".z c #00203b",
".r c #00203c",
"cS c #00203d",
".C c #002040",
"bV c #002f3a",
"#E c #002f3c",
"dz c #002f40",
"bQ c #00303b",
"cF c #00303c",
"ao c #00303d",
".A c #003040",
"dB c #004040",
".F c #004545",
"an c #004646",
".G c #004b4b",
"#j c #004c4c",
"#V c #005151",
"aI c #005252",
".I c #005858",
".N c #005a5a",
".M c #005b5b",
"#n c #005d5d",
".W c #005e5e",
"dP c #060627",
"bO c #060629",
".u c #06062b",
"a6 c #06062d",
"c3 c #06062e",
"dz c #061629",
".G c #06162e",
"cZ c #061631",
"bR c #061634",
"dA c #062732",
"d. c #062734",
"cP c #07072e",
".S c #070735",
"dK c #071832",
"dw c #071834",
"bf c #072832",
"cU c #072834",
"cA c #072835",
"bS c #073838",
"dN c #082732",
"c5 c #082834",
".R c #083737",
"c4 c #090933",
"dQ c #09192f",
"dv c #092934",
"bi c #092a36",
"bg c #093939",
"a3 c #093a3a",
"bZ c #0a3a3a",
"#t c #0a3b3b",
"cZ c #0b3a3a",
"b0 c #0b3b3b",
"bb c #0b3c3c",
"cw c #0c3b3b",
"dp c #0d0d24",
"db c #0d0d28",
"aS c #0d3d3d",
"a3 c #0d5050",
"bQ c #0e0e29",
"c8 c #0e1f2c",
"dc c #0e2f2f",
"bt c #0f0f21",
"ce c #0f0f28",
"c0 c #0f0f2a",
"b4 c #0f202b",
"a# c #0f202d",
"c1 c #0f3030",
"aX c #0f4545",
"a5 c #0f4b4b",
"a0 c #0f5151",
"#7 c #0f5252",
"d2 c #101026",
"bW c #102f2f",
"aa c #103030",
"c1 c #105151",
"e1 c #114d4d",
".Y c #115353",
"#m c #115454",
".P c #115656",
"fy c #115757",
"bX c #115959",
"#X c #123232",
"cB c #123333",
"eS c #125353",
"ca c #125454",
"bn c #125757",
"d8 c #133333",
"b. c #133434",
"fh c #135454",
"bb c #143333",
"b4 c #143535",
".O c #145959",
"eG c #145a5a",
"dq c #15151c",
"bo c #151523",
"dt c #153535",
"eT c #153636",
"bp c #155656",
"bF c #155f5f",
"#F c #16161d",
"fd c #161620",
"bC c #161624",
"#u c #163535",
"dH c #163737",
"#k c #165858",
"dj c #171725",
"dM c #172828",
"cC c #173636",
"dY c #173838",
"bY c #182727",
"dg c #182828",
"el c #183737",
"fa c #183838",
".S c #186767",
"d6 c #192929",
"cS c #193838",
"ce c #193a3a",
"cO c #1a2a2a",
"#G c #1a3939",
"dJ c #1b2c2c",
"ba c #1b3a3a",
"cb c #1b3c3c",
"e3 c #1c1c1c",
"c0 c #1c1c28",
"e0 c #1c3b3b",
"e4 c #1d1d1d",
"b3 c #1d2d2d",
"bj c #1d3e3e",
"eU c #1d4a4a",
"#w c #1e1e1e",
"b6 c #1e2e2e",
"er c #1f1f1f",
"b2 c #1f2f2f",
"cO c #1f3e3e",
"eX c #1f4040",
"fx c #1f4545",
"aT c #1f4646",
"a4 c #1f4c4c",
"dh c #202020",
"b2 c #203131",
"ft c #204040",
"dF c #212121",
"eZ c #214d4d",
"b3 c #214e4e",
"dH c #222222",
"bh c #224242",
"#H c #224d4d",
"c# c #232323",
"ct c #233333",
"#I c #234343",
"a2 c #234e4e",
"bI c #235050",
"dB c #242424",
"fQ c #243434",
"cx c #244f4f",
"#x c #245050",
"bA c #245151",
"fv c #252525",
"fR c #253434",
"c# c #253535",
"ca c #253636",
"bl c #254545",
"#Q c #255050",
"cH c #262626",
"cb c #263636",
"aL c #265151",
"## c #265252",
"#B c #265353",
"dC c #272727",
"bw c #275252",
"a7 c #275353",
"cE c #282828",
"cD c #283737",
"#a c #285353",
"#b c #285656",
"ci c #292929",
"cK c #293939",
"bs c #293a3a",
"#l c #295656",
"#x c #295858",
"af c #295959",
".1 c #295c5c",
"dI c #2a2a2a",
"fO c #2a5555",
"#J c #2b5757",
".R c #2b5a5a",
"cG c #2c2c2c",
"aK c #2c5858",
"du c #2d2d2d",
"cM c #2d3d3d",
"#s c #2d5959",
"#Z c #2d5c5c",
"cA c #2e2e2e",
"de c #2f2f2f",
"bq c #2f3f3f",
"#K c #2f5b5b",
"e5 c #302c27",
"cj c #303030",
"cN c #304040",
"c. c #313131",
"br c #314141",
"a6 c #314747",
"e6 c #322e29",
"b9 c #323232",
"cc c #333333",
"bo c #334949",
"cf c #343434",
"by c #344949",
"bc c #353535",
"bm c #354545",
"bx c #354a4a",
"#8 c #354b4b",
"#w c #354c4c",
"cd c #363636",
"aJ c #364c4c",
"#. c #364f4f",
"cl c #373737",
"aM c #374c4c",
"aY c #374d4d",
"bN c #374e4e",
"fM c #383838",
"#W c #384d4d",
"aN c #384e4e",
"ct c #393939",
"aI c #394e4e",
"#G c #394f4f",
"#F c #395050",
"cz c #3a3a3a",
"#P c #3a4f4f",
"bJ c #3a5050",
"#y c #3a5353",
"bt c #3b3b3b",
"bB c #3b5050",
"cy c #3c3c3c",
"#C c #3c5252",
"bT c #3c5353",
"et c #3d3324",
"cm c #3d3d3d",
"cu c #3e3e3e",
".V c #3e5454",
"#9 c #3e5555",
"#v c #3e5858",
"co c #3f3f3f",
"bI c #3f5454",
"#M c #3f5555",
"#u c #3f5858",
"bn c #404040",
".U c #405959",
"e7 c #413526",
"bd c #414141",
"cx c #424242",
"ay c #425858",
"#S c #425959",
"bv c #434343",
"#X c #435959",
"eu c #443524",
"cp c #443d36",
"d7 c #443f37",
"cn c #444444",
"#O c #445a5a",
"cr c #454545",
"bE c #464646",
"bg c #474747",
".2 c #476060",
"bf c #484848",
"aZ c #494949",
"a1 c #4a4a4a",
"ax c #4a6262",
"cq c #4b443d",
"be c #4b4b4b",
"aQ c #4c4c4c",
"aW c #4d4d4d",
"aP c #4e4e4e",
"ev c #4f3c2a",
"e8 c #4f3d2c",
"#L c #4f4f4f",
".9 c #505050",
"cs c #514a42",
"#I c #515151",
"dR c #524840",
"#E c #525252",
"#h c #535353",
"aO c #545454",
"d8 c #554635",
".7 c #555555",
"#p c #565656",
"d9 c #574636",
"cB c #574d45",
"#e c #575757",
"#N c #585858",
"dW c #594635",
".T c #595959",
"#g c #5a5a5a",
"dS c #5b4837",
".8 c #5b5b5b",
"e9 c #5c3f1f",
".6 c #5c5c5c",
"dU c #5d4938",
".5 c #5d5d5d",
"ew c #5e4228",
"#f c #5e5e5e",
"dY c #5f4c3a",
"#t c #5f5f5f",
"dX c #604a39",
"#2 c #606060",
".v c #616161",
"dT c #62472e",
"aH c #626262",
"dV c #634321",
"aB c #636363",
"e. c #644c3b",
".3 c #646464",
"bC c #656565",
"#T c #666666",
".4 c #676767",
"#6 c #686868",
"#0 c #696969",
"e# c #6a4b31",
"an c #6a6a6a",
"ex c #6b4925",
"cZ c #6c6c6c",
"ae c #6d6d6d",
"f. c #6e4a26",
"#U c #6f6f6f",
"#W c #707070",
"#V c #727272",
"aC c #737373",
"el c #75665c",
"ag c #757575",
"aw c #767676",
"ey c #784e2a",
"#5 c #787878",
"ed c #794d29",
"eb c #794e29",
"dZ c #7a6a61",
"aD c #7a7a7a",
"ea c #7b502a",
"aE c #7b7b7b",
"ek c #7c604d",
"ah c #7c7c7c",
"ei c #7d5f4c",
"aa c #7d7d7d",
"ec c #7e502b",
"eh c #7e583b",
"aF c #7e7e7e",
"f# c #7f522d",
"#3 c #7f7f7f",
"ee c #80522c",
"bK c #818181",
"ez c #82532d",
"a. c #838383",
"az c #848484",
"aG c #858585",
"ej c #865e40",
"bD c #868686",
"ef c #87552f",
"fa c #875630",
"#4 c #878787",
"av c #888888",
"bF c #898989",
"eg c #8a5630",
"ad c #8a8a8a",
"eA c #8b5731",
"ao c #8b8b8b",
"fb c #8c5832",
"au c #8c8c8c",
"a# c #8e8e8e",
"at c #8f8f8f",
"em c #906f5a",
"eB c #915a34",
"ab c #919191",
"bV c #935c35",
"ac c #949494",
"fg c #955e36",
"bG c #959595",
"eC c #965d36",
"aA c #969696",
"eD c #975e37",
"am c #989898",
"fc c #9b6138",
"eF c #9b6139",
"ap c #9b9b9b",
"ar c #9c9c9c",
"eI c #9d623a",
"as c #9d9d9d",
"aj c #9f9f9f",
"al c #a0a0a0",
"eH c #a2643c",
"eG c #a2653c",
"cl c #a3a3a3",
"fd c #a5693d",
"fP c #a7a7a7",
"fk c #a8a8a8",
"ca c #ab6c40",
"ak c #aeaeae",
"bK c #af6e42",
"eJ c #b06e42",
"bM c #b16f43",
"eU c #b26f43",
"b9 c #b47144",
"fl c #b57044",
"eR c #b77245",
"cz c #b87245",
"f8 c #ba7346",
"fq c #bc7447",
"dF c #be7648",
"eV c #c07749",
"f9 c #c17749",
"f0 c #c17849",
"cy c #c3794a",
"fm c #c37a4a",
"eO c #c77b4b",
"fl c #c97c4c",
"eo c #ca916e",
"fy c #cb7d4d",
"fh c #cf7f4e",
"gF c #d38150",
"cN c #d48250",
"fi c #d78351",
"ep c #d7a284",
"gC c #d98452",
"dd c #db8553",
"fj c #db8653",
"fv c #dc8854",
"fz c #e08955",
"bB c #e58f5b",
"fs c #e68c4f",
"fu c #e88c58",
"fo c #e88d49",
"fr c #eb8f4a",
"b4 c #eb925d",
"ft c #ec8e51",
"eq c #ed9e6e",
"fB c #f09863",
"fp c #f69446",
"eY c #f8a572",
"fq c #fc9840",
"fC c #fcac7b",
"fD c #fcb387",
"fE c #fcbb97",
"eZ c #fcbd9a",
"e1 c #fcc4a4",
"fH c #fcc8aa",
"e0 c #fcc9ac",
"fF c #fcd2ba",
"fG c #fcd3bb",
"#T.#QtQtQt.#.#.a.#.bQt.cQtQt.#Qt.#.#.b.c.d.c.e.c.f.e.e.g.e.e.c.#.b.d.c.d.e.#.#.a.dfK.d.h.c.c.#.b.b.e.e.e.e.e.e.ab7.e.c.e.c.e.c.e",
".#Qt.#.d.d.d.d.c.c.#Qt.b.b.#.bQt.c.c.b.c.e.#.i.e.a.j.egB.eQtac.d.#Qt.cQt.b.h.c.#.dQt.c.d.bQt.#.b.e.e.e.e.e.i.e.e.e.e.e.e.e.e.e.e",
"QtQtQtQt.b.cQt.h#U.d.a.b.h.d.#.d.#.c.#.c.e.k.i.l.m.n.e.b.a.c.e.e.#QtQt.b.b.b.b.b.h.b.hQtQt.h.c.cQt.c.c.b.c.e.aaX.e.b.e.e.k.f.m.e",
".b.#.c.c.b.c.#.c.e.e.c.e.a.#.e.c.e.e.n.m.o.p.q.p.r.s.f.e.e.e.e.d.a.cQt.c.e.e.#.d.d.e.e.d.c.e.e.e.c.e.e.a.e.e.i.e.e.t.g.f.o.t.p.p",
".a.c.c.u.e.d.7Qt.#.#.b.c.aQt.h.h.e.e.g.n.p.p.p.o.r.t.s.r.e.v.c.c.e.c.#.c.c.b.c.a.c.e.a.c.e.c.e.c.e.e.e.e.f.w.f.m.o.p.p.p.s.p.p.p",
".e.e.i.i.g.k.c.f.a.b.c.e.c.e.e.dQt.i.e.x.y.z.A#z.n.p.p.t.B.e.e.e.e.e.c.e.i.e.e.e.e.e.e.d.i.e.i.f.k.k.C.s.D.o.p.p.p.p.p.p.p.p.p.p",
".f.s.n.m.n.A.n.f.n.m.f.t.o.n.n.g.e.f.f.y.fa3.jgx.r.y.j.e.f.e.e.e.f.f.e.E.e.f.e.e.f.f.e.c.n.m.o.p.p.p.p.p.p.p.p.p.p.p.p.F.G.G.p.F",
".p.p.A.p.p.p.p.p.p.p.p.p.p.p.p.s.g.p.p.p.p.p.C.q.g.t.n.n.f.f.i.e.k.j.H.f.e.y.i.m.p.p.p.o.o.p.p.p.p.p.p.p.G.F.G.G.I.J.I.I.I.I.I.J",
".p.p#e.p.p.p.p.p.p.p.p.p.p.p.p.p.p.p.p.p.p.p.p.p.p.p.s.A.s.i.K.r.y.e.C.n.n.L.o.s.p.p.p.p.p.p.p.p.G.J.J.J.I.I.I.I.M.N.O.O.P.I.I.I",
".p.p.p.p.p.p.p.p.p.p.p.p.p.p.p.p.p.p.p.p.p.p.p.p.A.A.q.r.f.t.e.l.D.p.s.A.s.p.p.p.p.p.p.p.p.J.J.I.I.I.I.I.I.I.I.M.I.I.I.I.I.Q.I#b",
".p.p.p.p.p.p.p.p.p.p.p.p.p.p.p.p.p.p.p.p.p.p.p.A.s.p.C.p.s.s.p.s.A.s.p.p.p.p.p.p.p.p.p.p.p.G.I.I.I.I.O.R.S.T.U.V.W.X.Y.Z.I.Y.Y.I",
".p.p.p.p.p.p.p.p.p.p.p.p.p.p.p.p.p.p.p.p.p.p.p.p.p.p.p.p.p.p.p.p.p.p.p.p.p.p.F.p.p.p.F.F.F.F.I.I.I.0.1.2.3.3.4.5.6.7.8.5.6.9#..I",
".p.p.p.p.p.p.p.p.p.p.p.p.F.p.p.p.p.p.p.pci.p.p.p.p.p.p.p.p.p.p.p.p.F.G.J.G.G.J.G.J.G.I.I.J.I.I.I.Y###a#b#c#d#e#f.T.8.6#g#h#i.I.I",
".p.p.p.p.p.p.F#j.J.G.I.I.G.p.p.p.p.p.p.p.p.p.p.p.p.p.p.F.p.G.G.J.I.I#k#l.I.I.I.I.I.I.I#m.I.I.I.I.I.I.I#n.Z#o#h.6#g#p#q#r.I.I.I.I",
".p.p.p.p.F.F.F.G.J.I.I.I.I.F.p.p.p.p.p.p.p.p.p.G.J.I.J.I.I.I.I#s#e.8#t#t.8d3#v.0.0#w.Y.Q.I.I.I.I.I.I.Z#x#y.1#e#p#z.I#A.I.I.I.I.I",
".I.J.J.I.I.I.I.I.I.I.I.I.I.I.G.I.I.I.I.I.I.J.I.I.I.Y#k#B#s.U#C#g.6#g.5#D.3#D.6#E#w.I#m.I.I.I.I.I.I.I#a.9#F#G#d.Y.I.I.I.I.I.I.I#H",
".I.I.I.I.I.I.I.I.I.I.I.I.Y.N.0#I#h#J#K.R.V#L#M#gb0#D#t#t.3#D#N#a.Q.I#G#O.3#f#P#Q.I.I.I.I.I.I.I.I.I.I.I.I.I.I.I.I.I.I.I.I#R.I.I.J",
".I.I.I.I.I.I.I.I.Y.I#n#y.7#S.7.5.3#T.3#N#f.5#U#V#W#W#W#W#T#g#P.I.I.I.I.I#X#p#A.I.I.I.I.I.I#R#R.I.I.I.I.I.I.Y.I.I.I.I.I.J.I.I.I.I",
".I.I.I.I.I.Y.I.I.I.I#Y#Z#D#0#0#0#1#T#D#D#2#0#3#4#5#W#W#W#6#i.Y.I.I.I.I#7#m.Y.I.I#R.J.I.I.I.J.J.J.I.I.If3.I.I.I.I.I.p.p#H.F.F.I.I",
"e1.I.I.I.I.I.I.I.I.I#8#9#T#W#W#Va.a#aaaaa.a#abacada.#Vae.5af.Iew.I.I.I#R.I.I.I.J.G.I#j.I.I.G#j.I.I#R.p.F#j#H#H#j.p.p.p.p.p#H.I.I",
".G#j.G.I.I.I.I.I.I.I#Y.5.4agah#3abaiajajabajakalamaca#an#2.9#c.I.I.I.I.I.J.I.J.I.I#R.J.J#j#H.p.G#j#j.F.p.p.p.p.p.p.p.p.p.p.p.F.J",
"#H#j.p.F#j#j.I.I.I.N#e.3#W#4aoaha#apaqaqaramasatauauavawax#Q.Q.I.IcE#H.p#j#j.I.F#R.p.p.p.p.p.p.p#j.p.p.p.p.p.p.p.p.p.p.p.p.p.p.F",
".p.p.pdM.p.p.p.F.I.0ay#T#3auaz#5a#aAamamamaua#a#auavanaB#I.I.I.I.I.p.p.p.F.J.I.F.p#H.p.p.p.pdU.p.p.p.p.p.p.p.p.p.p.p.p.p.p.p.p.p",
".p.p.p.p.p.p.p.G.I.I.9#te2#Vaw#UaC#VaDaE#5aFauaGaaaeaH#p#Q.I#j#R.pdV.p.p.p.p.F.p.p.p.p.p.p.p.p.p.p.p.p.p.p.p.p.p.p.p.p.p.p.p.p.p",
".p.p.p.p.F.J.I.I.I.I.IaIf5.6.8#g#I.T#N#p#E.5#T#2.5#f#gaJ.IeD.p#H.p.p.p.p.p.p.p.p.p.p.p.p.p.p.p.p.p.p.pa2.p.p.p.p.p.p.p.p.p.p.p.p",
".p.J.I.J.I.I.I.I.I.I#m#w#QaKaL#a.IaM.I.Y.YaNaO#p#IaPgvaQaR.I.p.p.p.p.p.p.p.p.p.p.p.p.p.p.p.p.p.p.p.p.p.p.p.p.p.p.p.F.I.GaSaTaUaV",
".J.I.I.I.I.I.I.I.I.I.I.I.I.I.I.I.I.I.I.I.I.IgBaWaP.9aOaQaL#7.J.p.p.p.p.p.p.p.p.p.p.p.p.p.p.p.p.p.p.p.p.p.p.G.F.paX.I.IaYaZ#L.7.5",
".I.I.I.I.I.I.I.I.I.I.I.Iee.I.I.I.I.I.I.Iev.Ia1aWaQaQaPaZa2a3a4#R.p.p.p.p.p.p.p.p.p.p.p.p.p.p.p.p.p.p.p.p.Ja3.Ia5a6aQ.6bS#0#Uagag",
"#R#j.F#H#j#R#RbT#R#j.I.J.I.I.I.I.I.I.I.I.I.Ia7#I.9aPaQa8a9b.#7b#ba.p.p.p.p.p.p.p.p.p.p.p.p.p.p.p.p.pbUbbbcbcbdaZaQ.6#U#VaCawawan",
".p.p.p.p.p.p.p.p.p.p.F.J.Icp.I.I.I.I.I.I.I.I.Y.0be#ra1aZaQaQbebebfbgbhaSbibjbkblbmbnaVbobkbpbjbqbrbsbtbubtbva1aQ#L.T.5#2#2#g.T#N",
".p.p.p.p.p.p.p.p.p.p.G.I.I#R#H#j.I.I.I.I.I.M#Lbw.I.0aY#I.7#I#h.5aB.T.7#E#I#L#I.9.7.7#e.7aWa1bea1a1aPaZaZaZaQaW#L.9.9.9aPaYbxbyaR",
".p.p.p.p.p.p.p.p.p.p.F.G#H.p.p.p#j.I.I.I.I.Ibz##.IbAbBaW#haO.6#0aC#V#V#0#TaHeO.T.5bC#0.3.5.T.7egaO#E#LaWaPaQaQaQaQa1#Q.I#7aR.I#R",
".p.p.p.p.p.p.p.p.p.p.p.p.p.p.p.p.F#j#j#j#R.I.I.I.I.Ia0aQaQ#L.8.3#Tae#5#3bD#3#3a.adgnah#V#0#t.5#g#paO.9aWaZ#Q.Ya8aR.I.I.I.I#j#H#H",
".p.p.p.p.p.p.p.p.p.p.p.p.p.p.p.p.p.p.p.p#H#j.I.I.I.I.IaZaJaW#IaOaO#h#2ahaFaaahahauauau#3#5#U#D#gaOaQbg.Q.I.I.I.I.I.I.I.I#R#H.p.p",
".p.p.p.p.p.p.p.p.p.p.p.p.p.p.p.p.p.p.p.p.p.p.p.F.I.I.I.Ia4bEa1aQaW.7.8an#1aeagadababbFazahaC.3#N#E.Y.I.I.I.I#R.J.J.I.I.I#H#H.p.p",
".y.p.p.p.p.p.p.p.p.p.p.p.p.p.p.#.p.pQt.p.p.p.p.pQtQt.I.Ia0.I#QQtQt#e.4ahbDbFabbGamalbHacau#VaH.c.d.I.I.I#j#j.p.p.F#j.p.p.e.p.p.p",
".A.p.n.C.p.p.p.p.p.p.p.p.p.p.p.p.p.p.p.p.p.p.p.p.G.J.I.r.I.I.I#mbJ.T#Ua#ahaBbCbC.3bKada#aa.4#g.x.I.IQtQtQtQtQtQtQt#H.p.p.p#H.p.p",
".o.p.o.x.p.p.p.p.p.p.p.p.p.p.p.p.p.p.p.p.p.p.p.p.p#H.F.I.I.I.I.IaN#L#L#d#a.I.I.IQtQt#O#TQt.7QtQt#R#R#j#H.p.p.p.p.p.p.p.H.H.H.H.H",
".iQtQt.m.p.p.p.p.p.p.p.p.p.p.p.p.p.M.p.p.p.p.p.O.p.p.p.F#j.I.I.I.Q.i.i.k#H#H.p#j#j.I.I#c#A.I.I#R#H.p.p.p.p.p.p.p.p.p.p.p.p.p.F.J",
"bM.c.i.i.g.p.p.p.p.pQtQtQt.p.p.p.p.p.p.p.p.p.W.d.p.p.O.Y.F.I.Z#R.I.J#H.p.p.f.i.p.p.F#H.I#j#j.I.p.p.p#n.p.p.p.p.p.p.p.p.p.p.F.F.I",
".U.U.U.f.p.3.U.pQtQtQtQtQtQtQtQtQtQtQtQtQtQtQtQtQtQt.pQtQtQtQt.p.p.pQtQtQtQt.4.p.p.p.p.F#H.p.p.p.0.p.p.p.p.p.p.p.p.p.p.J.G.I.I.I",
"QtQt.e.cQt.l.p.p.p.p.p.p.p.x.pQtQtQtQt.pQtQtQt.p.p.pQtQtQtQtQtQtQtQtQt.p.p.p.s.p.p.p.p.p.p.p.p.p.p.8QtQt.p.p.p.p.F.G.J#..PbN#la1",
"Qt.b.dQtQt.s.p.p#t.p.pQtQtQtQtQtQtQtQtQtQt.p.pQpQtQtQtQtQtQt.p.p.p.p.p.p.p.p.p.p.p.p.p.p.p.p.p#a.p.p.p#b.p.p.pQtQtQtQtaQ.IQt.W.d",
".bQtQtbPQtQtQtQtQt.d.WQtQt.W.p.pQtQt.pQt.p.pQp.p.p#d.p.p.p.p#f.6Qt.p.p.p.p.p.p.p.p.pQtQtQtQt.p.p#K#g#g.p#R#w.J#I#J.Y#Sa0#gaLbT#h",
"bU.B.6bW.0.M.6.0.0.6.6cp.p.p.p.p.p.p.p.p.p.p.p.pbYQt#b#g.p.p.p.p.p.p#r.p.p#U.p.p.p.p.p.p.p.p.p#G.p.p.p.p.F#W#I#za0.I.I.I.I.I.YaN",
"bSb1b2bSbYbYb3b4b5.C.5bYb7b7b8.0c.c#cacbc.c.b9Qtbccdbc#bQtbYb7cecacfcfcfb9cgch.p.p.p.p.p.p.p.p.p#G#y.p.p.p.p.p#p#g.I#l#iQtQtQtay",
"ciQt.zckabb9b9bccjb9cl.dadclclcdaecd.AbvcnbfbfbfbvcobucfcfajaeakcfcdcdcdcfcgQtQt.pQt#hQtQtQtQtQtQt.p.p.p#Y.pam#g.p.paoap#j#j#j#j",
"cmcpcncqcraZbfbfbfbfbnbdaZcnco.obncocobfcobv.ccsaQ.CaZbtbucdcdcdbcctcucvay.A.Aas.A.p.p.p.p.p.p.p.p.p.p.paC.p.p.p.p.p.p.pQtQt.p.p",
"bnbncncucocxbvcyczbcb9cAcjccbucobta1.9aQcraQ.P#I#E#L.V.3bccfQtcCc.cfcg.p.paE.r.p.pQtQtQt.y.p.p.p.p.c.p.paIaB.p.pQtQyQtQtQtQtQt.p",
"cdcdcDcvcEcvcFcGcH.p.p.p.p.p.pb0ckczaQaQ.9aPaWbda1aQbfczcf.V.p.pb0cvcw.p.p.p.p.paOaO.p.p.vaP.p.pQtQtQtQt.p.p.paR.p.p.p.U.VQtQtQt",
"cIcJ.p.pbS.p.pbWbW.p.p.p.p.p.p.p.pbicKcLcMcNcFcDbcaVaWcPcvQtQt.p.paG.p.p.paYQtQtQtQtQtQtaW.p.p.p.vaZ.p.p.p.p.p.GQtQt#H.p#g#g#g#0",
".p.p.p.p.p.p.p.p.p.p.p.p.p.p.p.p.p.p.p.p.p.pcx.p.p.p.2.2.l.p.p.TQtQtQtQt.p.p.x.p.p.J.p.p.p.uQtQtQtQtQtaC.p.F.F.JQt.p.p.p.p.p.F.p",
".p.p.p.p.p.p.p.p.p.p.M.p.p.p.p.p.p.p.p.p.p.p.p.p.p.p.p.p.pQtQt.pQtQtQt.#.p.p.y.p.p.J.p.p.pa3.H.p.paO.o.p.p#j.pa4.p.p.pa7QtcQcRcb",
".A.A.p.p.p.A.p.p.pcS.A.p.C.p.p.x.C.r.A.p.p.p.p.p.p.p.p.p.p.p.A.p.pQt.z.s.r.i.m.p.p.p.p.p.H.J.p.papb..p.p.G.p.p.p.p.p.p.pcTbaa9.J",
"aD.EcU.A#g#gcV.r#g#g.x.q.pQtQt.p.D.C.p.p.t.p.r.A.y.s.s.p.p.p.A.A.ycV.p.p.n.p.p.p.p.p.p.p.p.p.p.s.p.paZ.p.p.p.H.R.RbacXcbbsbbb.bn",
"cVcYcZ.p.o.s.Abxbiap.p.s#T.p.p#g#g#0#g#g#h.t.k.AQtcU.p.p.p.A.mbL.e.f.pc0c1.p.s.p.p.p.A.p.p.pbSbS.pbZbYb7c2cacjb9cfcfcdbccdbtcfcz",
"#H#y#H#Hc4#w.Lc6.s.sbEc8.m.p.ocU.p.pbc.s.p.n.p.A.s.p.p#l#bc9d..t.m.qd#dadb.s.f.p.sdcddc1bSbSc1bWd#debccfcfdecfb9cfc.cbcfQtQtQtQt",
".hbJbKbLbK#I#H#H.y#y#J#z#H.p.A.pbq.p.A.y.K.pbNdf#C.pdg#gdhdi#gdidj#l#ldmdn.sdodpdqdrdhdhdhdhds.pdtcAducGc.dudududec.bcctcdbucl.B",
"Qt.h.#.#.bbP.e.c.h.m.AdvdwbS#g#g.sdxdy.s#g#gdic6#g#g#b#lbWdhdBdCdDdhdhdEdFdGcHdHdIdCdJdHdFdGcGdDcEcicGducfcfb9bcctcobfcobvbv.De6",
"aoalbMal.b.c.e.EdKbS.p#l#g#g#g#g#gdc#gdidrbWdE#gb3cTcGcAdIcjb9cccfcjcjdebcctctcmczcfcGdecjc.clbcbcc.ctcocobncncra1a1aQaQbea1bea1",
".cdO.bQt.b.#a3b4.pc1bW.p.RbabWdMdibobrcibE#G#ubccfbucobtaZaZcrapa##F#ub0bB#wbDcmcn#HcraldR#gdTdU#g#gdXdY#g#L#I#g#l#h#0#h#hgHandZ",
"Qt.hd0d1bPb6d3d4dMbSbSdfd5.pd6bDbD#FbnbXcfcjcdafcjc.ctclcfbucmbncod7d8d9dSdUe.e##gebeced#0#h#KQtQtegefefeheiej#iQtQt#Vemen#K#Keq",
"c#Qtd0dP#ubpesbSc9dEdE#h#gb4cGcAcjb9ccbYcedIdudeeteuevew#geyezeAQteBQtQteEQtbxeHQtQteJQteLQtQteKeNQteOePQteReSeTeUeVeWeXeYeZe0e1",
"e2bncme3e3e3e3#hco#galbNcEcie5e6cc#ge8e9#h#KfafbQtfdQtenQteIQtQtQtfhQtfjfkQtQteLfnfifoQtfqfrfsftfufvfkfwfxfyfifzfAfBfCfDfEfFfGgK"};
