/* XPM */
static char *dummy[]={
"64 64 503 2",
".j c #000000",
".P c #000006",
".s c #000007",
".m c #00000d",
".p c #00000e",
".q c #000014",
".g c #00001c",
".u c #00001f",
".l c #000020",
".R c #000023",
".o c #000024",
"fZ c #000025",
".i c #000027",
".k c #000028",
".v c #000029",
"fR c #00002a",
"Qt c #00002c",
".e c #00002d",
".f c #00002e",
".# c #00002f",
".h c #000030",
".b c #000031",
".n c #000032",
"fU c #000033",
".a c #000034",
".c c #000036",
".t c #000037",
"fV c #000038",
".r c #000039",
".d c #00003a",
"fW c #000f2b",
"f# c #000f34",
".9 c #000f36",
"e0 c #000f39",
".d c #000f3a",
"fN c #000f3d",
"fQ c #001034",
"fK c #001036",
".n c #001037",
"fH c #001039",
"eY c #00103a",
".6 c #001f39",
"e2 c #001f3c",
"fb c #001f3d",
"eN c #001f40",
"fP c #002036",
"fx c #002037",
"f. c #002038",
"fI c #002039",
".Z c #00203a",
".4 c #00203c",
"fJ c #00203d",
".3 c #002040",
"fi c #002f3c",
"eX c #002f40",
"e# c #00303c",
".2 c #00303d",
".1 c #003040",
".0 c #004040",
"c6 c #004545",
"c7 c #004646",
"eO c #004b4b",
"d2 c #004c4c",
"e. c #005151",
"cV c #005858",
".w c #06061c",
".x c #06061f",
"#N c #060623",
".5 c #060624",
"#0 c #060627",
".7 c #060629",
"fy c #06062a",
"fo c #061630",
".O c #07071c",
"#i c #07071f",
"#. c #070727",
"fX c #070729",
"fq c #070732",
"eL c #07172f",
"fO c #071733",
"gk c #072834",
"er c #072835",
"eK c #073636",
"fj c #073838",
"fS c #082732",
"fz c #082837",
"eI c #083737",
"dZ c #090933",
"fn c #091934",
"eq c #092a35",
"e1 c #092a39",
"ew c #093939",
"ey c #0a3939",
"dj c #0a3a3a",
"cf c #0a3b3b",
"d1 c #0a4141",
"eu c #0b3b3b",
"dI c #0c3b3b",
"hM c #0d0d1c",
"fR c #0d0d20",
"ee c #0d3c3c",
"ei c #0d4242",
"eF c #0d5050",
".F c #0e0e1c",
".Q c #0e0e1f",
".S c #0e0e21",
"#B c #0e0e23",
"hw c #0e0e27",
"eM c #0e2d2d",
"eg c #0e4343",
"#j c #0f0f1d",
"#g c #0f0f26",
"es c #0f0f2a",
"dB c #0f3030",
"eH c #0f5151",
"eP c #0f5252",
"dM c #101023",
"dL c #102026",
"fs c #102f2f",
"d0 c #104040",
"cU c #104545",
"c5 c #104b4b",
"#b c #114141",
"eV c #114848",
"d3 c #114d4d",
"ek c #115353",
"ez c #123131",
"e3 c #125454",
"ep c #135454",
".D c #14141c",
"## c #14141f",
"#h c #141420",
".E c #15151c",
"et c #151521",
"e5 c #153636",
".G c #16161d",
"#M c #161620",
"eW c #162727",
"eC c #163535",
"dv c #163636",
".W c #17171e",
"fF c #171721",
"dJ c #172828",
"cX c #173838",
"dK c #181822",
"fL c #181824",
"eJ c #182727",
"dH c #183737",
"du c #183838",
"dW c #184343",
"#f c #192929",
"eb c #193838",
"a4 c #193939",
"dX c #194444",
".X c #1a1a25",
"fM c #1a2929",
"ex c #1a2a2a",
"ef c #1a3939",
"fY c #1b2b2b",
"di c #1b3a3a",
"ff c #1b3c3c",
".C c #1c1c1c",
"dA c #1c2c2c",
"dz c #1c2d2d",
"ej c #1c3b3b",
".z c #1d1d1d",
"eA c #1d2d2d",
".B c #1e1e1e",
"eh c #1e3d3d",
"cA c #1e4343",
"#6 c #1f1d19",
".Y c #1f1f1f",
"#e c #1f3030",
"#a c #1f4c4c",
".A c #202020",
"eD c #202f2f",
"fu c #204040",
"eG c #204b4b",
"af c #211e1a",
".T c #212121",
".K c #222222",
"ev c #223232",
"fe c #224242",
"cC c #224d4d",
"dx c #233333",
"fl c #234343",
"eQ c #234e4e",
"eS c #234f4f",
".V c #24221c",
"#Z c #242424",
"#c c #243434",
"d9 c #245151",
"ag c #251f16",
"#p c #252525",
"a. c #262016",
"#7 c #262017",
".U c #26231f",
"#L c #262626",
"eE c #263535",
"dY c #263c3c",
"cD c #265151",
"#9 c #272117",
"ae c #272727",
"dG c #273636",
"ah c #282217",
".N c #28251e",
".J c #28251f",
"#q c #282828",
"cB c #283838",
"aj c #292318",
"f0 c #29251f",
"eB c #292929",
"#l c #293939",
"ak c #2a2418",
"#A c #2a2a2a",
"el c #2a5555",
"#8 c #2b2419",
"ai c #2b251a",
"e6 c #2b2b2b",
"eU c #2b5858",
"fG c #2c2c2c",
"a0 c #2d271c",
"#Y c #2d2d2d",
"dw c #2e2e2e",
"fT c #2e3e3e",
".L c #2f2514",
"aD c #2f271a",
"e7 c #2f2b25",
"#d c #2f2f2f",
"fc c #2f4545",
"#o c #303030",
"am c #312716",
".H c #31291c",
"#n c #313131",
"#z c #323232",
"fv c #324242",
"cz c #324747",
"#v c #333333",
"#w c #343434",
"cT c #344949",
"ft c #344a4a",
".I c #352b19",
"#u c #353535",
".M c #362c18",
"#X c #363636",
"dR c #364b4b",
"e8 c #373129",
"#m c #373737",
"cS c #374c4c",
"aC c #383838",
"d4 c #384d4d",
"aE c #392c12",
"fm c #39352d",
"#y c #393939",
"c4 c #395050",
"#t c #3a3a3a",
"cR c #3a4f4f",
"dS c #3a5050",
"an c #3b301b",
"aB c #3b3b3b",
"d8 c #3b5151",
"dt c #3c3c3c",
"eR c #3c5252",
"e9 c #3d3324",
"#x c #3d3d3d",
"ad c #3e3e3e",
"at c #3f3115",
"aA c #3f3f3f",
"e4 c #3f5555",
"#s c #404040",
"ec c #414141",
"dT c #415757",
"ed c #424242",
"eT c #425858",
"ao c #433116",
"#k c #434343",
"#r c #444444",
"#W c #454545",
"ds c #464646",
"fA c #474039",
"ac c #474747",
"dh c #484848",
"aF c #493618",
"#H c #494949",
"dN c #4a4a4a",
"#K c #4b4b4b",
"fB c #4c453d",
"#I c #4c4c4c",
"as c #4d3919",
"#J c #4d4d4d",
"fh c #4e381b",
"#G c #4e4e4e",
"#D c #4f4f4f",
"dr c #505050",
"aG c #513b1b",
"#E c #515151",
"fO c #525252",
"d5 c #526767",
"#C c #535353",
"a2 c #543c1c",
"aw c #545454",
"ap c #553d1c",
"#F c #555555",
"aS c #565656",
"bl c #575757",
"ar c #583e1d",
"fg c #583e1e",
"#V c #585858",
"aY c #593e1e",
"aq c #593f1d",
"aT c #595959",
"aX c #5a442b",
"bk c #5a5a5a",
"dt c #5b3f1e",
"aH c #5b401e",
"#1 c #5b5b5b",
"aZ c #5c4020",
"aW c #5c4a38",
"az c #5c5c5c",
"a0 c #5d401f",
"#O c #5d5d5d",
"a3 c #5e411f",
"aV c #5e4a39",
"cy c #5e5e5e",
"#U c #5f5f5f",
"ay c #606060",
"au c #616161",
"fw c #62442a",
"a# c #626262",
"cx c #636363",
"a4 c #644321",
"aR c #646464",
"dQ c #656565",
"e0 c #666666",
"bL c #675a4f",
"#T c #676767",
"dg c #686868",
"aI c #694623",
"#P c #696969",
"av c #6a6a6a",
"eo c #6b6b6b",
"#S c #6c6c6c",
"c8 c #6d6d6d",
"ce c #6e5f55",
"d7 c #6e6e6e",
"aN c #6f4925",
"#Q c #6f6f6f",
"bo c #705136",
"#R c #707070",
"aJ c #714926",
"en c #717171",
"cI c #724a26",
"aw c #727272",
"bn c #735d4b",
"fd c #737373",
"dP c #74645a",
"d6 c #747474",
"aK c #754b27",
"#3 c #757575",
"#2 c #767676",
"dk c #777777",
"bK c #785d49",
"bO c #786c62",
"bm c #787878",
"aL c #794d29",
"a5 c #794e29",
"ab c #797979",
"aQ c #7a7a7a",
"dD c #7b7b7b",
"#4 c #7c7c7c",
"fy c #7d512b",
"cg c #7d7d7d",
"df c #7e7e7e",
"aQ c #7f522c",
"cd c #7f6f65",
"aa c #7f7f7f",
"fE c #80522c",
"dO c #80614d",
"ax c #808080",
"ba c #81532d",
"cw c #818181",
"fC c #82532d",
"dC c #83746a",
"bN c #838383",
"b. c #84542e",
"bj c #848484",
"bi c #85542e",
"bp c #85552f",
"bP c #856d59",
"dq c #858585",
"aP c #878787",
"a7 c #885630",
"bM c #888888",
"ch c #8a8a8a",
"a9 c #8b5731",
"fD c #8b5931",
"aO c #8c8c8c",
"bb c #8e5832",
"c9 c #8e8e8e",
"a8 c #8f5933",
"bh c #8f5a33",
"dF c #8f8f8f",
"ci c #919191",
"de c #929292",
"bq c #935c35",
"bJ c #945e36",
"bg c #955e36",
"cj c #959595",
"dU c #969696",
"af c #975f37",
"cc c #97745d",
"cn c #989898",
"#o c #996038",
"bQ c #997c68",
"ck c #999999",
"be c #9b6139",
"cm c #9b9b9b",
"fg c #9c9c9c",
"dd c #9d9d9d",
"em c #9e9e9e",
"bf c #9f623a",
"cb c #9f7a62",
"b9 c #9f9f9f",
"c3 c #a0a0a0",
"cl c #a2a2a2",
"hE c #a3a3a3",
"cr c #a5673d",
"b6 c #a5a5a5",
"bI c #a6673e",
"cE c #a6a6a6",
"fh c #a88068",
"eu c #a8a8a8",
"b7 c #a9a9a9",
"fn c #ab6b40",
"co c #ababab",
"d. c #acacac",
"#I c #ad6d41",
"bU c #ad8870",
"c1 c #aeaeae",
"ea c #afafaf",
"bG c #b06e43",
"cp c #b0b0b0",
"bg c #b16f43",
"ex c #b1876e",
"c2 c #b1b1b1",
"ez c #b28f77",
".0 c #b29e92",
"fk c #b36f43",
"cq c #b3b3b3",
"e1 c #b47044",
"eF c #b47144",
"## c #b4b4b4",
"dV c #b57044",
"#e c #b6b6b6",
"ed c #b77145",
"c. c #b78d74",
"c0 c #b7b7b7",
"#d c #b87446",
"dl c #b8b8b8",
"bw c #b97446",
"cs c #b9b9b9",
"bx c #ba7346",
"bS c #ba835e",
"gB c #ba927a",
"#1 c #bc7447",
"bE c #bc7848",
"#J c #bcbcbc",
"dc c #bdbdbd",
"ey c #bf957c",
"fw c #bfbfbf",
"cu c #c0c0c0",
"bD c #c17949",
"fo c #c1c1c1",
"b0 c #c2977d",
"eL c #c2987f",
"dm c #c2c2c2",
"bB c #c37a4a",
"cO c #c3c3c3",
"#H c #c4c4c4",
"do c #c5c5c5",
"cH c #c7c7c7",
"bV c #c87d4c",
"cZ c #c8c8c8",
"cI c #cacaca",
"b2 c #cb9e84",
"cJ c #cbcbcb",
"eP c #cccccc",
"cL c #cdcdcd",
"aF c #cecece",
"db c #cfcfcf",
"fc c #d0d0d0",
"eT c #d2d2d2",
"hM c #d3d3d3",
"bh c #d5d5d5",
"a3 c #d6d6d6",
"cW c #d8d8d8",
"bW c #d98856",
"dp c #d9d9d9",
"jB c #da9c78",
"bY c #dc9b75",
"gC c #dcdcdc",
"bT c #de8e5c",
"bX c #eb9969",
"QtQtQt.#.#.a.a.a.b.a.c.d.a.a.a.#.eQtQt.f.f.fQtQtQt.g.g.g.g.g.g.g.g.g.g.g.g.g.g.g.g.g.g.g.g.g.g.g.g.g.g.g.g.g.g.g.geO.g.g.g.g.g.g",
"QtQtQteQ.a.a.e.a.#.a.a.a.a.a.aQt.h.hQtQtQtQt.i.i.i.g.g.g.g.g.g.g.g.g.g.g.g.g.g.g.g.g.g.g.g.g.g.g.g.g.g.g.g.g.g.g.g.g.g.g.g.g.g.j",
"QtQtQt.e.h.a.a.a.a.b.a.a.a.a.a.b.#.#QtQt.eQtQtQt.k.g.g.l.g.g.g.g.g#Q.g.g.g.g.g.g.g.g.g.g.g.g.g.g.g.g.g.g.g.g.g.g.g.g.g.g.g.g.g.m",
"QtQtQtQt.e.a.a.a.a.a.b.a.a.a.a.nQt.aQtQtQtQtQtQt.g.g.g.g.g.g.g.g.g.g.g.g.g.g.g.g.g.g.g.g.g.g.g.g.g.g.g.g.g.g.g.g.g.g.g.ghD.g.g.g",
"QtQtQtQt.e.#Qt.a.a.a.a.a.b.b.nQt.iQtQtQtQt.o.o.o.g.g.g.g.g.g.g.g.g.g.g.g.g.g.g.g.g.g.g.g.g.g.g.g.g.g.g.g.g.g.g.g.g.g.g.g.g.g.g.g",
"QtQtQtQt.bQt.a.a.a.a.a.a.n.hQtQtQtQtaeQtQt.g.g.g.g.g.g.g.g.g.g.g.g.g.g.g.g.g.g.g.g.g.g.g.g.g.g.g.g.g.g.g.g.g.g.g.g.g.g.g.g.g.g.g",
"Qt.#.a.a.a.a.d.a.adt.a.a.eQt.fQtQtQtQtQt.o.g.g.g.g.g.g.g.g.g.g.g.g.gcP.g.g.g.g.g.g.g.g.g.g.g.g.g.p.g.g.g.g.g.g.g.g.m.j.j.j.j.g.g",
".#.b.a.a.a.a.a.a.a.a.a.a.b.#.#QtQtQt.l.g.g.g.g.g.g.g.gdP.g.g.g.g.g.g.g.g.g.g.g.g.g.g.g.g.g.g.g.g.g.g.g.m.m.m.g.g.g.g.g.g.p.p.q.g",
".a.a.c.r.a.n.a.a.a.a.a.a.b.h.fQt.i.o.g.g.gau.g.g.g.g.g.g.g.g.g.g.g.g.g.g.g.g.g.g.g.g.g.g.g.g.g.g.g.g.g.g.g.g.g.g.g.g.g.g.q.g.s.g",
".a.a.t.a.a.a.h.h.h.h.n.haSQtQtQt.k.l.g.g.g.g.g.g.gd..g.g.g.g.g.g.g.g.g.g.g.g.g.g.g.g.g.g.g.g.g.g.g.g.g.g.g.g.g.g.g.g.g.g.g.g.m.g",
".a.n.a.f.hQtQtQtQt.eQtQt.o.k.o.u.l.g.g.g.g.g.g.g.g.g.geB.g.g.g.g.g.g.g.g.g.g.g.g.g.g.g.g.g.g.g.g.g.g.g.g.g.g.g.g.g.g.g.g.g.g.g.g",
".a.n.#.eQtQt.o.k.v.k.o.o.o.g.u.gds.g.g.g.g.g.g.g.g.g.g.g.g.g.g.g.g.g.g.g.g.g.g.g.g.g.g.g.gfe.g.g.g.g.g.g.g.g.g.g.g.g.g.g.g.g.g.g",
".#QtQtQt.o.k.g.l.u.g.g.g.g.g.g.g.g.g.g.g.g.g.g.g.g.g.g.g.g.g.g.g.g.g.g.g.g.g.g.g.g.g.g.g.g.g.g.g.g.g.g.g.g.g.g.g.g.g.g.g.g.g.g.g",
".w.x.y.y.y.y.g.g.y.y.y.y.w.g.g.g.g.g.g.g.g.g.g.g.g.g.g.g.g.g.g.g.g.g.g.g.g.g.g.g.g.g.g.g.g.g.g.g.g.g.g.g.g.g.g.g.g.g.g.g.g.g.g.g",
".z.A.A.B.B.B.z.C.D.C.C.E.C.D.w.g.g.g.g.g.g.g.g.g.g.g.g.g.g.g.g.g.g.g.g.g.g.g.g.g.g.gcQ.g.g.g.g.g.g.g.g.g.g.g.g.g.g.g.g.gh6.g.g.g",
".F.B.F.F.G.E.F.D.C.g.y.y.C.C.w.g.g.g.g.g.g.g.g.g.g.g.g.g.g.g.g.g.g.g.g.g.g.g.g.g.g.g.g.g.g.g.g.g.g.g.g.g.g.g.g.g.g.g.g.g.g.g.g.g",
".g.g.g.g.g.g.w.C.C.H.I.J.K.C.C.C.F.g.g.g.g.g.g.g.g.g.g.g.g.g.g.g.g.g.g.g.g.g.g.g.g.g.g.g.g.g.g.g.gaX.g.g.g.g.g.g.g.g.g.g.g.g.g.g",
".g.g.wi0.g.g.w.C.C.L.M.N.B.C.C.E.F.g.g.w.g.g.g.g.g.g.g.g.g.g.g.g.g.g.g.g.g.g.g.g.g.g.g.g.g.g.g.g.g.g.g.g.g.g.g.g.g.g.g.g.g.g.g.g",
".y.C.C.C.C.C.C.D.E.E.C.E.w.O.w.g.g.g.g.g.g.g.g.g.g.g.g.g.g.g.g.g.g.g.g.g.g.g.gdH.g.g.g.g.g.g.g.g.g.g.g.g.g.g.g.g.g.g.g.g.g.g.g.P",
".C.B.z.C.F.F.F.F.O.g.O.y.g.g.O.g.w.g.w.g.g.g.g.g.g.g.g.g.g.g.g.g.g.g.g.g.g.g.g.g.g.g.g.gfp.g.g.g.g.gjW.g.g.g.g.g.g.g.g.g.g.g.g.m",
".Q.R.i.R.u.g.g.g.g.g.g.g.g.g.g.g.w.D.D.y.y.w.w.g.g.g.g.g.g.g.g.g.g.g.g.g.g.g.g.g.g.g.g.g.g.g.g.g.g.g.g.g.g.g.g.g.g.g.g.g.g.g.g.g",
".e.#aN.R.o.g.g.g.y.D.C.y.D.D.D.D.C.C.B.C.C.D.F.g.g.g.g.g.g.g.g.g.g.g.g.g.gfd.g.g.g.g.g.g.g.g.g.g.g.g.g.g.g.g.g.g.g.g.g.g.g.g.g.g",
".nQtQt.i.u.S.z.B.B.T.U.V.z.z.z.C.C.F.E.F.O.OgI.F.g.g.g.g.g.g.g.g.g.g.g.g.g.g.g.g.g.g.g.g.g.g.g.g.g.g.g.g.g.g.g.g.g.g.g.g.gfk.g.g",
".#QtQt.k.i.Q.W.X.B.B.Y.z.A.C.C.E.F.g.g.g.g.g.g.g.g.g.g.g.g.g.g.g.g.g.g.g.g.g.g.g.g.g.g.g.g.g.g.g.g.g.gg3.g.g.g.g.g.g.g.g.g.g.g.g",
".a.hQt.u.R.i.i.R.R.w.F.F.O.F.g.g.g.g.g.g.g.g.g.g.g.g.g.g.g.g.g.g.g.g.g.g.g.g.g.g.g.g.g.g.g.g.g.g.g.g.g.g.g.g.g.g.g.g.g.g.g.g.g.g",
".Z.b.#.eQt.#Qt.#QtQt.u.u.g.g.g.g.g.g.g.y.w.g.g.g.g.g.g.g.g.g.g.g.g.ggf.g.g.gfb.g.g.g.g.g.g.g.g.g.g.g.g.g.g.g.g.g.g.g.g.g.g.g.g.g",
".c.a.a.a.a.#Qt.b.fQt.i.u.g.g.g.g.g.g.g.g.g.g.g.g.g.g.g.g.g.g.g.g.g.g.g.g.g.gag.g.g.g.g.g.g.g.g.g.g.g.g.g.g.g.g.g.g.g.g.g.g.g.g.g",
".0.1.2.a.b.a.eQtQtQt.l.g.g.g.y.w.g.g.g.g.g.g.g.g.g.g.g.g.gfa.g.g.g.g.g.g.g.g.g.g.g.g.gkl.g.g.g.g.g.g.g.g.g.g.g.g.g.g.g.g.g.g.g.g",
".0.3.4.Z.a.hQtQtQt.5.C.C.z.C.C.C.C.C.C.C.C.C.C.F.g.g.g.g.g.g.g.g.g.g.g.g.g.g.g.g.g.g.g.g.g.g.g.g.g.gl3.g.g.g.g.g.g.g.g.g.g.g.g.g",
"fM.0.0.c.6.a.e.h.7.8.A.B.A.B.B.B.C.C.C.C.z.D.C.D.g.w.g.g.g.g.g.g.g.g.g.g.g.g.g.g.g.g.g.g.g.gg8.g.g.g.g.g.g.g.g.g.g.g.g.g.g.g.g.g",
".0.0.0.0.0.0.9.a#..D.F.E##.E.O.y.O.D.O.g.g.u.u.x.g.u.R.u.g.g.u.g.g.g.g.g.g.g.g.g.g.g.g.g.g.g.g.g.g.g.g.g.g.g.g.g.g.g.g.g.ge5.g.g",
"#a#b#c#d#e#f.A#g.B.C.D##.C.z.B.B.z.C#h#i.RQtQtQt.iQt.u.R.i.g.l.g.l.g.g.g.g.g.g.g.g.gg3.g.g.g.g.g.g.g.g.g.g.g.g.w.w.g.w.y.w.F.w#j",
"#k#l#m#n#o#p.TfJ#p#p#p#p#q#p.K.B.A.z.R.iQtQtQtQt.l.i.o.g.g.g.g.g.g.g.g.g.g.g.g.g.g.g.g.g.g.g.g.g.g.g.g.g.g.g.y.g.O.D.y.D.g.g.g.g",
"#r#s#r#t#u#v#w#viA#x#y#u#z#o#A.K.B#B.R.i.u.u.g.i.g.g.g.g.g.g.g.g.g.g.g.g.g.g.g.g.g.g.g.g.g.g.g.g.g.g.gfN.g.g.g.O.w.g.w.C.y.F.g.g",
"#C#D#E#E#C#F#G#H#I#J#I#K#s#u#o#L#M#N.R.g.g.u.g.g.g.g.g.g.g.g.g.g.g.g.g.g.g.g.g.g.gdW.g.g.g.g.g.g.g.g.g.g.g.w.g.g.y.C.C.C.D.O.C.C",
"#F#O#P#Q#R#S#T#U#O#V#E#G#W#X#Y#Z.A#0.ue3.g.g.g.g.g.g.g.g.g.g.g.g.g.g.g.g.g.g.g.g.g.g.g.g.g.g.g.g.g.g.w.y.w.D.C.C.C.C.C.C.C.C.C.C",
"#J#1#R#2#3#4#2#S#5#V#G#K#s#u#d#L.z#Me2.y.w.D.y.y.w.E.D.D.C.C.D.C.g.g.g.w.y.g.g.g.F.g.w.g.w.y.y.C.D.C.z.C.C.C.C.C.F.C#6#7#7#8#9a.",
"#Ja##S#R#2aaab#S#Pa##C#C#Gacad#z#Z.B.T.T#p#Zae#p#p#p#p#Z#p.z.z.C.C.C.C.C.D.C.Gafagagahaiajajakaiaiaiaialaiaiaiamanaoapaqaqarasat",
"#Eauav#Pawaxaa#3ax#2#5ayaz#C#J#k#m#n#ugdad#xadaAadaB#y#waC#v#d#A#Z.Y#8aDfzaoaFaqaqaqaqaqaqapapaGaqaqaqaqaqaHaIaJaKaLaLaLaLaMaNaI",
"#1a##SawaOaOaPaPaOaQ#TaR#OaS#F#J#G#C#FaTayayaUaVaWaXaYaZa0a1a2apaqa3a4aJaKa5a6a7fWa8a8a9b.a5b#b#babab.bbbcbdbebdbcbcbdbfbgbbbhbi",
"#U#S#R#4aOaOaObjabava#bkazblay#T#Saw#Pawbmaw#Q#SbnboaNaIaMa5bpbqbgbdbrbsbtbtbububvbwbxbybzbsbsbAbsbtbxbBbCbDbEbFbybybGbHbIbJbKbL",
"#P#R#4#4aPaObM#4awav#OaTay#QbNbjbmbmaw#4bNaOaOaPaa#3bObPbQbRbSbTbUbVbWbXbYbZb0b1b2b2b3b4b5b6b7b6b8b9b9c.c#cacbcccd#Sa#ce#V#Ccf#I",
"cg#2#RaQaQbmbmaxaacgcgcgchcicicicicjckb9clb9b9cmcnclgncpcqcrcqcscscqcrctcucuctcscsiDcscucucuctcucrcvcvckcwavcxcybk#IczcAcB#xcCcD",
"aOaaawaw#P#Rbm#4aOcncEcqcscFcGcHcHcIcJcJcKcHcGcGcHcLcMcNcMcKcKcKcKcJcHcKcKcKcHcHcucucOcGcrcrctcucPcQcjbM#RbkcRcScTcCcUcVcVcVcVcV",
"bj#4aQcgaRaR#RbmaPcncQctcKcMcWcNcNcXcWcNcNcWcNcNcNcXcNcXcMcKcNcKcKcMcMcMcKcYcYcZcGcuc0c1c2c2cEc3ckaP#R#5#Uc4cVc5c6.0.0.0.0c7c6.0",
"#Rc8#PaR#QchaOc9cwc9cnc3d.cZd#cWe6cXcXcXcXcXcXdacWd#cXcXd#cMdacKcMcMdbcZcZdccPc2cEcQdddededf#Rdg#5#1#Jdh#sdi.0dj.0.0.0.0.0.0.0.0",
"dg#TaR#Sabdfdk#Tav#R#4c9dec3dldmcJdndocJdncMdbcZcZcKcNcXcWdpd#cMcYdmc0ascvc3b8dedqdfavaRa##Cdr#F#V#Ids#sdtdudv#zdw#odxdydz#qdAdB",
"#I#F#P#3#4ax#R#Q#3dCbmbjlEdededD#R#Saw#2dfc9deb9c2cudodEdEdndmcpcQckdddddddFaxax#3#S#U#C#W#tdt#s#t#mdGdHdIdI.0.0dxdv.0dJ.WdKdLdM",
"#tdNaS#UaRa#a#aRc8dOdPdgavavdQ#EdNdRcDdSdTbl#5#2dec3cQb9b8dUdechbjcg#R#S#4cjb9b6dVclbNaxa##V#sdWdXdYc6.0.0c6.0.0dI.0.1dZ.v.e.kQt",
".0d0aCaAaBaAdh#Icfdr#Edr#F#1aU#r#wd1c7d2.0d2d3d4d5dfd6dfbjd7a#bk#VayawaPb9ctcJcKcMcKcOcpcvb9aPavaTd8d9e.cVgY.0.0.0.0e#eaQtQt.i.o",
".0.0eb#z#X#m#z#secaC#maAedaded#XdH.0.0.0.0.0.0.0d2eeefegehgpejcUegekelcyayawaxdecmemdFeneo#5a##Uaz#Fepd2d2.0.0.0.0.0eqergo.Oet.y",
".0.0.0euevdHewexeygZeAeBeCeDeEdI.0.0.0.0.0.0.0.0.0.0.0.0.0.0.0.0.0.0c7d2cVcVcVeFdNdr#Fbkazf5#IeGcVeHcV.0.0.0.0.0.0.0eIeJ.A.A.K#p",
".0.0.0.0.0eI.Z.6eK.0eLeM.0eN.0.0.0.0.0.0.0.0.0.0.0.0.0.0.0eOePeH.0.0.0.0.0.0c6ekcOeQekekeR#JeS#CcyeTeUeV.0.0.0.0.0.0dJeW.B.A#p#Y",
"eXeY.Z.4eZ.3.6.6.Z.ce0.Z.0e1.0.0.1.0e2.1.1.0.0.0.0.0.0.0.0d2d2c7.0.0.0.0.0.0.0c6c5d2e.e3e4aU#F#Caydg#1eT#b.0.0.0e5e6aeeBe7e8e9as",
".bf.Qt.#f#.h.ffa.Z.nf6.tfafa.Z.9fafb.Z.Ze#eZfa.4.4.0.0.0.0.0.0.0.0.0.0.0.0.0.0.0.0.0.0.0.0fc#DcydQ#QaQfd#Cfeffdx#z#udtfgfga1fhas",
"e#f#.0.a.a.a.e.#.b.a.a.9.a.a.b.9.a.a.a.9.6.a.a.9fi.0.0.0.0.0.0.0.0.0hR.ZdBfj.0.0.0.0.0fkflf8auawdf#2#S#2cxbl#G#Wecad#xaB#X#z#wfm",
".0.0fjfnfo.aQt.eQt.#.e.h.h.n.h.#.a.n.b.a.9.a.a.Z.0bs.0.0.0.0.0.0fpfjfq.bfrfs.0.0.0.0e.ft#Gdr#IdhaAfuejfvacdr#I#KdNdN#IdNdh#H#Hfw",
".1.0fxf..ZfyQt.e.nQtQt.b.#QtQt.b.h.#Qt.#.a.9fa.9.0.0.0.0.0.0.a.0.0.0fs.0.0.0.0.0.0eOd2fud2c7.0.0.0.0.0fz.T#zec#I#WfAfB#JfCgQfDfE",
".f.hQt.fQtQtQt.l.i.g.g.o.o.iQtQtQt.e.eQt.e.b.a.be0.Zfa.Z.2.1.1.0gu.0.0.0.0.0.0.0.0.0.0.0.0.0.0.Z.af#f..##NfF#Z#AfGaCadaddtdtad#y",
".o.kQt.u.R.i.g.gb8.g.g.u.g.R.R.eQtQt.e.#.9e#e0.0fH.9e#fieZ.0fI.0.0.0.0.0.0.0.0.0.0fJe#.2eYfKQt.eQt.oQtQt.i.R.i.5#BfLfMfs.0.0dxdt",
".R.o.iQt.g.o.l.g.u.u.g.R.iQt.n.n.c.a.6.2.0.1.0.c.2fNgtfOe#.0.Z.Z.2fP.Z.ZfNf.fQfPfP.ffRQt.lQt.k.g.g.g.u.g.g.u.g.RQtQtfS.0ewdufTau",
".g.g.g.g.g.g.g.g.g.u.g.R.iQtQt.a.ae0.0e#fJQteY.efU.fQt.#fVfU.h.v.v.#i1.o.oQtQt.o.u.lQtQt.g.g.g.g.g.g.g.g.g.g.c.g.g.c.c.cfs.e#CbN",
".g.g.g.h.f.f.f.g.g.f.h.f.f.R.#.e.f.#dh.e.h.7fXQtQt.iQtQt.fQt.i.o.c.g.g.g.g.g.g.g.g.g.g.g.g.g.g.g.g.ggE.g.g.g.g.g.g.u.x.DfY#xcyb9",
".f.f.g.g.g.g.g.g.g.g.f.e.f.k.iQtQtQtQtQt.f.f.f.RQt.u.u.f.5.g.u.kfZ.R.R.u.g.u.u.g.g.g.g.g.g.g.g.g.g.g.gcv.g.g.g.w.D.C.mf0dw.laTax"};
