/* XPM */
static char *dummy[]={
"64 64 548 2",
"gk c #00001f",
"fj c #000023",
"f1 c #000026",
".Q c #000027",
".E c #000029",
"dg c #00002b",
".i c #00002c",
".k c #00002d",
".j c #00002e",
".f c #00002f",
".h c #000030",
".D c #000031",
".1 c #000032",
".0 c #000034",
"c7 c #000035",
"#. c #000036",
"#3 c #000037",
".9 c #000039",
"cM c #00003a",
"## c #00003c",
"e3 c #000f30",
".e c #000f34",
".6 c #000f36",
"#N c #000f37",
".Y c #000f39",
".O c #000f3a",
"cJ c #000f3c",
".L c #000f3d",
"cX c #000f40",
"c9 c #001035",
".M c #001037",
"cS c #00103a",
"#M c #00103c",
"cK c #001040",
"du c #001f35",
"c6 c #001f37",
".Z c #001f39",
"da c #001f3a",
".C c #001f3c",
"cL c #001f3d",
"#D c #001f40",
"do c #002037",
"#O c #002039",
".5 c #00203a",
"#L c #00203c",
"#s c #00203d",
".B c #002040",
".8 c #002f3c",
".W c #002f40",
"c8 c #00303a",
"dd c #00303b",
".4 c #00303c",
".X c #00303d",
".d c #003040",
"Qt c #004040",
"#i c #004545",
"#K c #004646",
"#b c #004b4b",
"#h c #004c4c",
"#l c #005151",
"#0 c #005252",
"#g c #005858",
"#p c #005a5a",
"#P c #005b5b",
"#r c #005d5d",
"am c #005e5e",
"#U c #006060",
"aK c #006464",
"fZ c #06061c",
"fY c #06061f",
"gf c #060620",
"f5 c #060623",
"f2 c #060624",
"d. c #060628",
"f6 c #060629",
"di c #06062a",
".P c #06062c",
"#1 c #06062e",
"db c #060634",
"dh c #06162d",
"dt c #06162f",
"de c #062632",
"#7 c #062734",
"eA c #063636",
"ge c #070723",
"fX c #070727",
"dv c #070728",
".g c #07072a",
"df c #07072d",
"#4 c #07072e",
"#8 c #071731",
"ad c #071733",
"ds c #07182e",
"#6 c #071832",
"dx c #072734",
"ab c #072833",
".b c #072838",
".z c #073838",
"#5 c #081731",
".y c #083737",
"aJ c #093939",
".N c #0a0a33",
"aP c #0a3939",
".V c #0a3a3a",
"aQ c #0a3b3b",
"aC c #0b3a3a",
".l c #0b3b3b",
".# c #0b3c3c",
".2 c #0c3b3b",
"c3 c #0c3c3c",
"dj c #0d0d1f",
"gg c #0d0d23",
"gi c #0d0d24",
"#2 c #0d0d25",
"dc c #0d1e25",
"c4 c #0d3c3c",
"#j c #0d3d3d",
".F c #0d3e3e",
"cW c #0d4343",
"eb c #0d5050",
"gh c #0e0e1c",
"gb c #0e0e20",
"d# c #0e0e21",
"fD c #0e0e23",
"f3 c #0e0e24",
"fU c #0e0e25",
"dp c #0e1f2a",
"eL c #0e1f2c",
"c2 c #0e2f2f",
"a1 c #0e3d3d",
"#k c #0e4f4f",
"fT c #0f0f20",
"dm c #0f0f22",
"fW c #0f0f24",
"eK c #0f0f26",
"dn c #0f0f28",
"dq c #0f1f26",
".q c #0f3030",
"#d c #0f4040",
"e. c #0f4545",
"eo c #0f4646",
"c5 c #0f4b4b",
"co c #0f4c4c",
"bT c #0f5151",
"bk c #0f5252",
"fC c #10101e",
"e2 c #101021",
"fV c #101025",
".c c #102f2f",
"bP c #105151",
"ac c #11212d",
"dC c #112132",
".a c #113232",
"cm c #114d4d",
"#T c #115353",
"aD c #115454",
"#B c #115656",
"aU c #115757",
"ar c #115959",
"#9 c #115c5c",
"ay c #123131",
"aG c #123333",
"be c #124e4e",
"aL c #125353",
"#Y c #125454",
"#m c #125555",
"#C c #125656",
"#Q c #125757",
"aF c #133232",
"eI c #133434",
"aq c #135757",
"f4 c #14141c",
"gH c #14141f",
"gj c #141420",
"g# c #142424",
"ga c #142525",
"ax c #143333",
"aS c #145959",
"gd c #15151c",
"gc c #15151f",
".r c #153636",
"#Z c #155656",
"dr c #16161d",
"fi c #161620",
"dA c #161622",
"dl c #161623",
"eR c #162626",
".K c #163535",
"aX c #163636",
".o c #163737",
"#q c #165b5b",
"ak c #17171e",
"af c #171723",
"at c #172828",
".p c #173636",
"cY c #173737",
".m c #173838",
"ag c #18181e",
"aj c #181822",
"eM c #181825",
"as c #182727",
".U c #183737",
".x c #183838",
"dR c #183939",
"d9 c #192a2a",
".3 c #193838",
"bV c #193939",
"eH c #1a2929",
"au c #1a2a2a",
"dJ c #1a2b2b",
"#c c #1a3939",
"aM c #1a3a3a",
"eJ c #1a3b3b",
"cd c #1a3f3f",
"cI c #1a4040",
"av c #1b2b2b",
"ee c #1b3a3a",
"a4 c #1b3c3c",
"#a c #1b4141",
"cG c #1b4242",
"dk c #1c1c1c",
"fB c #1c1c23",
"aw c #1c2b2b",
"g. c #1c2c2c",
"dK c #1c2d2d",
"cT c #1c3b3b",
"cV c #1c3c3c",
"dw c #1d1d1d",
"fA c #1d1d24",
"aB c #1d2d2d",
"a5 c #1d3d3d",
"cE c #1d3e3e",
"cn c #1d4a4a",
"ae c #1e1e1e",
"eQ c #1e2d2d",
"fz c #1e2f2f",
"ea c #1e4343",
"az c #1f1f1f",
"bz c #1f2f2f",
"a7 c #1f4040",
"cH c #1f4545",
"#f c #1f4c4c",
".A c #202020",
"aO c #203030",
"ec c #204040",
"e# c #204545",
"bO c #204b4b",
"ai c #212121",
".7 c #213030",
".s c #213131",
"bj c #214e4e",
"ah c #222222",
"en c #223131",
"aW c #223232",
"aH c #223333",
"aA c #232323",
".w c #233232",
".n c #233333",
"aV c #233434",
"aE c #242424",
"a0 c #243333",
"bm c #243434",
".t c #243535",
"b9 c #244949",
"bN c #244f4f",
"ap c #245050",
"cg c #245151",
"aN c #252525",
".T c #253434",
"aY c #253535",
".K c #253636",
"al c #255050",
"dx c #255151",
"dy c #262626",
"cU c #263636",
"a8 c #263737",
"bM c #265151",
"#E c #265353",
"dz c #272727",
"bQ c #273737",
"cF c #273838",
"ao c #275252",
".A c #275656",
"dB c #282828",
".F c #283838",
"an c #285353",
".G c #292929",
"#j c #295656",
"#V c #295c5c",
"aI c #2a2a2a",
"bS c #2a5555",
"em c #2b2b2b",
"aR c #2c2c2c",
"eu c #2c3b3b",
"dD c #2d2d2d",
"bl c #2d3d3d",
"dZ c #2d4242",
"#R c #2d5c5c",
"aZ c #2e2e2e",
"#A c #2e5f5f",
".u c #2f2f2f",
"a6 c #2f3f3f",
"c3 c #303030",
"dz c #304545",
".G c #313131",
"cZ c #314848",
"bR c #323232",
"dA c #324141",
"d. c #324242",
"cP c #324747",
".S c #333333",
"dK c #343434",
"dw c #344949",
"bf c #344a4a",
"cU c #353535",
"cA c #354545",
"bh c #354b4b",
"c5 c #354c4c",
".R c #363636",
"c4 c #364c4c",
"dQ c #373737",
"dv c #374c4c",
"bi c #374d4d",
"bg c #374e4e",
"a3 c #383838",
"bZ c #384e4e",
"#t c #384f4f",
"cZ c #393939",
"b0 c #394949",
"bb c #394f4f",
"cw c #395050",
"dp c #3a3a3a",
"db c #3a5050",
"aS c #3a5252",
"a3 c #3b352d",
"bQ c #3b3b3b",
"c8 c #3b5151",
"dc c #3c3c3c",
"bt c #3c5252",
"ce c #3c5656",
"c0 c #3d3d3d",
"b4 c #3e3e3e",
"a# c #3e5454",
"c1 c #3f3f3f",
"aX c #3f5454",
"a5 c #403931",
"a0 c #404040",
"#7 c #405656",
"d2 c #413a32",
"bW c #414141",
"aa c #415959",
"c1 c #424242",
"e1 c #433c34",
".Y c #434343",
"#m c #443928",
".P c #444444",
"fy c #453e36",
"bX c #454545",
"#X c #455d5d",
"cB c #464646",
"eS c #473e35",
"ca c #474747",
"bn c #484848",
"d8 c #493929",
"b. c #494949",
"fh c #4a3c2b",
"bb c #4a4a4a",
"b4 c #4b4b4b",
".O c #4c3c2c",
"eG c #4c453d",
"dq c #4c4c4c",
"bo c #4d4d4d",
"dt c #4e4e4e",
"eT c #4f453d",
"bp c #4f4f4f",
"bF c #505050",
"#F c #515151",
"fd c #523e2c",
"bC c #525252",
"#u c #535353",
"dH c #543e25",
"#S c #545454",
"f# c #554332",
"bB c #555555",
"dY c #563e25",
"bY c #565656",
"dg c #574127",
"el c #574128",
"fa c #574332",
".S c #574d44",
"d6 c #575757",
"cS c #584c42",
"ce c #585858",
"cO c #594f46",
"#G c #595959",
"dJ c #5a5a5a",
"ba c #5b4736",
"cb c #5b4837",
"e3 c #5b5b5b",
"c0 c #5c4228",
"e0 c #5c4635",
"e4 c #5c4836",
"b3 c #5c5148",
"bj c #5c5c5c",
"eU c #5d4938",
"#w c #5d5d5d",
"b6 c #5e5e5e",
"er c #5f4a38",
"b2 c #5f5f5f",
"cO c #604a38",
"eX c #604a39",
"fx c #604c39",
"aT c #606060",
"a4 c #614b3a",
"dh c #616161",
"b2 c #626262",
"ft c #634321",
"dF c #63482f",
"eZ c #634b3a",
"b3 c #636363",
"dH c #644c39",
"eY c #644c3b",
"#H c #646464",
"c# c #65472c",
"ct c #656565",
"#I c #666666",
"a2 c #674523",
"bI c #676767",
"dB c #684624",
"fQ c #68503b",
"cx c #686868",
"#x c #696969",
"bA c #6a4624",
"fv c #6a4b30",
"fR c #6a523d",
"c# c #6a6a6a",
"ca c #6b4624",
"fw c #6c4d32",
"dI c #6c523f",
"fO c #6c533f",
"fM c #6c5440",
"#W c #6c6c6c",
"eG c #6d5542",
"cl c #6d6d6d",
"fd c #6e4f34",
"fP c #6e5641",
"fk c #6f6156",
"bJ c #6f6f6f",
"fN c #705541",
"bK c #707070",
"eJ c #714a26",
"bM c #724a27",
"ff c #724b27",
"b9 c #725944",
"fl c #726359",
"bL c #727272",
"cz c #73645a",
"f8 c #737373",
"fq c #754b27",
"dF c #754c28",
"eV c #75675d",
"f9 c #757575",
"f0 c #767676",
"cy c #775a46",
"gF c #77675d",
"cN c #785337",
"fF c #79604c",
"d1 c #7a4e2a",
"gC c #7a5c49",
"dd c #7a6a61",
"fF c #7b4f2a",
"dE c #7b502a",
"fJ c #7b5639",
"Qt c #7c5d49",
".d c #7d4f2b",
"eF c #7d502b",
"Qt c #7d512b",
"f7 c #7d7d7d",
".# c #7e502b",
".c c #7e522c",
"gp c #7f7f7f",
".d c #80502c",
"dX c #80512c",
".c c #81512c",
"ei c #81522d",
"gG c #81614e",
"fG c #825c3e",
"gA c #83542e",
"#z c #838383",
"fI c #85552e",
".r c #86552f",
"e8 c #87552f",
".H c #8a5831",
"cw c #8a6a56",
".n c #8b5630",
"ef c #8b5831",
".e c #8b5832",
"fH c #8b5931",
".p c #8c5932",
"cs c #8c6b57",
"dN c #8d5932",
".I c #8e5832",
".I c #8e5933",
".p c #8f5933",
"ex c #8f5a33",
".F c #905a33",
".I c #905c34",
"gE c #916547",
".0 c #935d35",
"e4 c #937158",
"#D c #955c35",
".I c #955e36",
".I c #959595",
"#Y c #975f37",
".J c #989898",
"ck c #996038",
".I c #9a6038",
"ep c #9b6139",
"#2 c #9d623a",
"d4 c #9e623a",
"ap c #9f7860",
".p c #9f9f9f",
".p c #a0643b",
".p c #a0643c",
"go c #a0a0a0",
".p c #a1643c",
"eB c #a2643c",
"#H c #a3653d",
"dT c #a4663e",
"aR c #a7693e",
"eC c #a8683f",
"gB c #a9693f",
"dS c #aa6a40",
"a1 c #ab6a41",
"ag c #ac6b41",
".I c #ae6c42",
"aw c #b06d42",
".I c #b47044",
".T c #b47144",
".p c #b57144",
"aZ c #b77145",
"cq c #ba7446",
".5 c #bc7647",
"cu c #c27a4a",
"#V c #c5b5ae",
"eN c #c97c4c",
"au c #ca7c4c",
"gs c #d68a59",
"#HQtQtQtQtQtQtQtQtQtQtQtQtQtQtQtQtQtQtQtQtQtQtQtQtQtQtQtQt.#.pQtQt.p.p.pQtQtQtQtQtQtQtQtQtbDbF.b.c.d.d.e.f.g.h.if1.i.i.k.i.j.i.i",
"QtQtQtQtQt#sQtQtQtQt.l.m.mQtQtQt.m.n.C.p.p.p.r.r.s.t.na#.v.w.xQtQtQtQtQtQtQtQt#H.p.p.p#H.p.y.z.A.cQt.BQt.C.e.D.D.h.i.i.i.k.E.i.k",
"QtQt#O#TQtQt.7QtQtQt.p.p.p.H.H.H.H.H.H.H.v.G.u.u.v.Ga1.I.H.J.J.G.KQtQtQtQtQtQtQtQtQt.iQtQtQtQtQtQtQt.m.L.M.p.O.p.P.j.i.i.Q.i.i.k",
"QtQtQtQtQtQtQtQtQtQtcv.H.H.v.u.I.H.H.H.R.R.S.S.I.T.UQtQt.c.i.i.g.p.p.p.p.pQtQtQt.p.p.p.p.p.p.p.p.p.W.d.p.O.Y.Z.0.D.1.p.p.f.i.p.F",
"QtQtQtQtQtQtQtQtQtQtQt.2.U.2.2.l.U.U.U.f.3.UQtQtQtQtQtQtQtQtQtQtQtQtQtQtQtQtQtQtQt.pQtQtQtQt.p.p.pQtQtQtQt.4.p.F.p.p.0.e.p.p.p.p",
"QtfqQtQtQtQtQtQt.e.cQtQt.l.p.p.p.p.p.p.p.xQtQtQtQtQtQt.pQtQtQt.p.p.pQtQtQtQtQtQtQtQtQt.l.p.s.p.p.p.p.p.p.p.p.p.p.8QtQt.G.J#.##.0",
"Qt.b.dQtQtQt.s.p.p#t.p.pQtQtQtQtQtQtQtQtQtQtQt.p.pQpQtQtQtQtQtQt.p.p.p.p.p.p.p.p.p.p.p#a#b.p.p.GQtQtQtQtaQ.IQtQt.W.dQt.W.d.8.dQt",
"QtQtQt.bQtQtQtQtQtQtQtQtQtQtbPQtQtQtQtQtQtQtQtQtQt.d.WQtQt.WQtQtQtQt.pQt.p.pQp.p.p#d.p#f#g#h#i#iQtaZQtQtQtQtQtQtQtQtQtQtQtQtQt.#",
"QtQtQtQt.XQtQtQtQtQtQtQtQtQtQtQtQtQtQtQtQtQtQtQtQtQtQtQtQt.dQtQt.WQtQt.mQtQtQtQtQt#j#k#g#g#l#g#g#b#b#b#b#b#iQtQtQtQtQtQtQtQtQtQt",
"QtQtQt.4.d.WQtQtQt.XQt.dQtQtQtQtQtQtQtQtQtQtQtQtQtQtQtQtQtQtQtQtQtQtQtQtQtQtQtQtQtQt#g#g#g#g#g#m#n#o#p#qgF#g#g#l#iQtQtQtQtQtQtQt",
".d.dQt.C.d.C#s.8Qt.XQt.d.XQtQtQtQtQtQt.d.dQtQtQtQtQtQtQtQtQtQtQtQtQtQtQtQtQtQtQtQt#i#b#g#g#t#u#v#w#x#y#z#A#B#C#g#gQtQtQtQtQtQtQt",
".dQt.O#sQt.4.9.0.9.8.5QtQt.0.C#D.d.8.X.5.dQtQtQtQtQtQtQtQtQtQtQtQtQtQtQt#uQtQtQtQt#i#h#g#g#E#F#G#H#I#w#J#G#v#C#g#g#KQtQtQtQtQtQt",
"Qt#L.4.C#M.0.0.Z#N.Z.5.0.M.0.Y#O.6.6.M.6.6.6.d.4Qt.pQt.p.p.p.p.p.p.p.p.p.pQtQtQtQt.p#K#g#g#P#Q#R#w#x#I#w#w#J#Sa0#g#iQtQtQtQtaLQt",
"QtQt#O#N#L.5.6.0bU.5.6.6.0.M.0.M.6.0.0.6.6.p.p.p.p.p.p.p.p.p.p.p.pQtQtQtQtQtQtbYQtQt#b#g#r#U.p#G.p#W#I#zaN#Y#Z#g#0QtQtQtQtQtQtQt",
"QtQtb3b4b5.6.6#..C.5.Z#.b7b7#2.f.0#3#4#5c.#6cacbc.c..WQtQtbcQtQtcdQtQt#bQtbYb7Qtceca#b#gcfb9a..p#G#y.p.p.p#p#g.I#l#iQtQtQtay#i#i",
"ciQtQt.zabac.z.b.C.C.dadaeae.Aaf.Abf#Bbucfcfajaeak.ycdcdcfQtQtQtQt.pQt#hQtQtQtQtQtQt#i.p#Y.pam#g.paoap#raqar#Bam#g#g#g#g#g#g#g#h",
"Qt.#.o.Ucobfcobv.cas.zaZbtbucdaucuawaxay.A.Aas.Aaz.p.paC.p.p.p.p.pQtQtQtQt.p#iQt#bQt#b#g#g#g#v#g#g#g#g#g#gaD#T#Q#B#g#g#g#g#g#g#g",
"#L.V.3.p.lQtcCQtas.a.A.paE.r.pQtQtQtQt.yaG.p.p.c.paIaB.pQtQyQtQtQtQtQt.pQt#b#g#g#l#0#l#K#i#g#g#g#g#g#g#g#T#UaK#raL#g#g#g#g#g#g#g",
".m.r.VQt.V.pb0cvcwQt.p.paOaO.vaP.pQtQtQtQtQt.p.paR.p.p.U.VQtQtQtQtQtQtQtQt#b#g#g#g#g#b#g#l#l#g#g#0#0#l#g#gaDaSaTaU#g#g#g#g#g#g#g",
".u.S.I.UQtaVaW.TaCQtQt.paG.p.paYQtQtQtQtQtQtaWaZ.p.vaZ.p.p.p.p.GQtQtQt#H.p#g#g#g#0#g#g#g#l#0#i#0#KQtQtQt#l#g#TaLap#g#g#g#g#g#l#0",
".p.2.2.l.p.TQtQtQtQt.p.x.p.J.p.p.uQtQtQtQtQtaC.F.JQtQt.p.p.p.p.p.F.pQt#l#g#g#g#g#l#g#g#g#gQtQtQtQtQtQtQt#g#g#g#g#g#g#g#g#g#lQtQt",
".pQtQt.pQtQtQt.#.pa2.p.p.J.pa3.H.paO.o.p#ja4.p.pa7QtcQcRQtcbQt#b#lQt#i#g#0#g#g#g#g#g#g#g#g#b#bQtQt#b#bQt#g#g#g#g#g#g#g#lQt.A.A.p",
"Qt.zaQ.laQaQ.p.p.H.Japb..p.p.pbaa9.J.Jbab.bbb.bcbbbdbebfbgbgbgbhbibjbkbl#g#g#g#g#g#g#g#gaDaD.E#g#g#g#g#gcV.r#g#g#g.x.q.pQtQtQt.p",
".p.s.paZ.p.p.H.R.RbacXcbbbbcbbb.bnbb.fbob.b.bobp#F#Fbqbr#ubr#w#vbrbpbsbtap#TapbucVbibv#o.o.s.Abxbiapby#T#g#g#g#g#0#g#g#h.k.A.AQt",
"btcfcz.w.va9.Ra3b#bbbpbc#S#FbAbpbcbpbr#GbrbBbBbCbB#w#z#x#H#y#H#H#H#v#w.LbD#vbr#GbEc8br.p.ocU.p.pbc.p.n.p.A.s.p.p#l#bc9d..t.m.qQt",
"QtQt.uQt.t.u.3bHa3bbbcbobBbrbrbr#GbBbBbD#w#vbr#GbDbIbJbKbLbK#I#H#H.y#y#J#z#HbEbE#Jbq#G.y.K.pbN#CbP#g#gdg#g#gdhdi#g#g#h#b#l#ldmdn",
"buQtQt.BQte5.pbQbnbcbcbc#G#y#y#ybr#G#y#H#zbDbCbp#v#WbKbK#W#W#xQt.hbq#G.bbP.e.c.h.m.AalbS#g#g#g#g.sdxdy#g#g#G#gdic6#g#g#g#b#lbW#l",
".vbU.x.xbVa5bWcocubnbnb.bc#FbB#S#ubq#SbYbBbFbsbZb0b1b2#H#H#Ib3bYbF#galaoalbMalaLbNaL#gdKbS#g#g#l.j#g#g#g#gdc#g#gdidrbWdE#g#gb3#g",
"a3b4.RbadibobrbEbE#G#ubccfbc#TbtbcaZcrapa##F#ub0bB#wbDcmcn#HcraldR#gdT#g#g#g#gdX#g#g#g#L#g#g#g#l#h#0#h#hgHan#hQt#K#b#b#0#0#l#0#g",
"b6d3d4dMbSb8bDbDbD#FbnbXb9bN#gcjc.ctclcfbucmbncod7d8d9dSdUe.bpaL#geb#g#l#h#0#h#KQtQtegefefQtehQtQt#i#iQtQt#VemQt#KQtQtQt#K#KeqQt",
"c#Qtd0bpbB#ubpesbSc9cd.O#h#g#gb4#g#TalbBbF#ubYcecfcgcf#Z#gbNaL#geyez#K#iQteBQtQtQteEQtQtbxeHQtQtQteJQtQteLQtQtQteKQtQtQteOePQtQt",
"chcicjckcl#H#JbFbcbncmcne3e3#hco#g#galbNcEcie5e6#T#g#ge8#g#0#h#KfaQtQtQtfdQtQtenQtQteIQtQtd4QtfhQtQtfjfkQtQtQteLfnfifoQtQtfqfrQt",
"cpcqcrcsctct#w#y#vbsbnb##g#KQtQt#l#g#g#g#g#g#g#g#g#g#g#g#0#iQt#8QtQtQtQtQtQtQtQtQtQtQtQtQtQtQtQtQtQtQtQtQtQtQtQtQtQtQtQtQtQtQtQt",
"cucucvcw#y#wb2cxb2#GbFbcbW#jQtQt#h#l#g#3bk#g#g#g#g#0#h#hQtQtQtQtQtQtQtQtQtQtQtQtQtQtQtQtQtQtQtQtQtQtQtQtQtQtQtgLQtQtQtQtQtQtQtQt",
"bqcycz#H#JbYbCbvbFbcbcbcbXcA.RaYQt#bbP#g#l#g#0#0#hQtQtQtQtQtQtQtQtQtQtQtQtQtQtQtQtQt.XQtQtQtQtQtQtQtQtQtQtQtQtQtQtQtQtQtQtQtQtQt",
"b6bbbbcBb6b6bbcCbhbjcDb6bcb.cc.HcEcFcGcHcI#l#hQtQtQtQtQtQtQtQtQtQtQtQtQtQtQtQt.X.dQtQt.d#s.d.6.d.d.dQt.WQtQtQtQtQtQtQt.d#LQtQtgq",
"bsbbb.bbb#a9a3a3a3a3b#bnbnbab6.Ra9a3bncabP#g#hQtQtQtQtQtQtQtQtQtQtQtQt.d.dQtQtQt.BcJcK#DQtcJ.C.dcL.dQtQtQtQt.dQtQtQtcM.C.9#scL#D",
"cNcObcbbcBb5ccccbXbnbnbbbcbbewa9bHb7bacP#0QtQtQtQtQtQtQtQtQtQtQtQtQtQtQtQt#DQt.8Qt.W.4Qt.5Qt.X.4QtQt.dQt.dQtQtQt.4.4.4#L.6cJft.Z",
"cQbsb7ba.Ra3a3b#cRb4cc.R.RcR.IaYa9#bco#h#KQtQtQtQtQtQtQtQtQtQtQtQtQtaJQtQtQt.dQtQt.WQtQt#D.8#D.X#L.C#3.6#D.Z.4.YcS#3#L.Y.O.6.Y#M",
"cT#c.UQt.2.2.2.UQt.FaMblblcUcVblcRcWbT#la5#l#lQtQtQtQtQtQtQtQtQtQtQtQtQtQtQtQtQtQtQtQtQt#DQt.d#M.9.Z.Z.Y#L.0ha.Y.M.1.d#O.Y.6.6.0",
"QtQtQtQtQtQtQtQt.Ga9bab.b5a9cBb5cR#i#K#h#h#hQtQtQtQtQtQtQtQtQtQtQtQtQt.dQtQtQtQtQtQtQtQtcX.0.0.Z.8.O.M.0.5.X.5.5.Z.8.0.4.XcS.5.0",
"QtQt.z.z.zQt.zQtcYcZb7b5c0c1b5cT#iQtQtQtQtQtQtQtQtQtQtQtQtQtQtQtQtQtQt.WQtQtQtQtQtQtQtQt.4#O.d.d.6.6#..0.5.0.YcJ#..0.6#L.D.M.1.0",
"QtQtc2as.z.zQtQtc3.U.G.T#cc4Qt#i#lc5#l#KQtQtQtQtQtQtQtQtQtQtQtQtQtQtQtQtQtQtQtQtQtQtQtQt.Y.8.6.6.6.9.6.M.e.1.e.0.f.0.0.0.h.h.k.h",
"QtQt.8.dQtQt.yQtQtQtQtQtQtQtQtQtQt#g#g#KQtQtQtQtQtQtQtQtQtQtQtQtQtQtQtQtQt.dQtQt.d.B.4.W.4#N#Nc6.0#..Yc7aO.1.D.0.k.j.f.j.i.i.i.i",
".X.4Qtc8QtQtQtQtQtQtQtQtQtQtQtQtQt#i#l#bQtQtQtQtQtQtQtQtQtQtQtQtQt#sQt.4.d.YQt#s.C.Z#.#s.8#3.Y.Z.9c9.d.M.1.f.k.D.f.h.i.k.i.id..k",
"d#ad.Mda.Z.WQtQt.qQtQtQtQtQtQt#b#b#l#l#bQtQtQtQtQtQtQtQtQtQtQtQtQtcX#L.Y.Y#L.d.4#O.Z.4.Y#x.5.Zdbdcc2dddedf.k.g.D.f.i.idg.kdhdic6",
"djaedkdldmdn.zQtQtQtQtQtQtQt#i#h#l#g#l#bc5QtQtQtQtQtQtQtQtQtQtQtQt#D.5do.B.dcJ.X#L#.at.M.z.bdpdqdrae.A.Aasdsdt.f#4dfdudvdr.Adrai",
"dwdkdk.Adw.Aaiatc8QtQtQtQtQt#K#b#g#g#g#g#l#KQtQtQtQtQtQtQtQtQtQtQtQtQt.bdxQt.d.Z#L.Z.WQt.y.zdy.rdzaIaJ.c.Adkai.Aai.A.AdAaNaNdz.H",
"aRaRbUdzaRdBazas.z.z.yQtQtQt#KQt#h#h#h#K#KQtQtQtQtQtQtQtQtQtQt.z.z.zQt.q.qat.z.zdC.q.mbza4.J.H.S.H.G.vahdDdzdBaRdB.u.u.u.H.H.Ja9",
"dEdFdGdHdI.uaN.A.zQtQtQtQtQtQtQtQtQtQtQtQtQtQtQt#SQtQtQtQtQtQt.z.y.zaNaudJdKaIbU.v.I.Hbabab#a9a3.J.H.GdD.H.u.G.G.H.Ra3a3a3a3.J.J",
"dLdMdNdOdPdQaZaNas.zQt.zQtQtQtQtQtQtQt.#Qt.#.m.mdR.ma4cF.G.I.S.ScF.H.H.J.Hbab5babXb5bnbcbbb#b5.R.H.H.H.H.G.H.H.I.I.I.H.IaO.w.p.K",
"dSdTdUdVdWdXdYaIahah.z.qQtQtQtQtQtQtQtbO.p.S.H.R.R.R.R.S.H.Sa3dZd0b6bnb#b.cBb#bbbcbobcbFbscBb#.R.J.I.H.G.v.3.2QtQtQtQtQtQtQtQtQt",
"d1d2d3dWd4d5d6d7d8.vdDaNahc2Qt.yQtQtQtQtQtQtaCQtQtc4c4QtQtQte.bP#gbTd0bNe#eaebecbObbbbbcbcb6edeeQt.2QtQtQtQtQtQtQtQtQtQtQtQtQtQt",
"efdVd3d5egeheiejekel.J.HdDdDaIemaIenQtQtQt.VaCQtQtQtQtQt#i#ieo#g#g#g#gbT#gQtQtQtQtc5d0b5b#cBbQQtQtQtQtQtQtQtQtQtQtQtQtQtQtQt.z.4",
"epdVepeqereset.G.G.uaRahahaNdyaNai.a.zQt.yQtQtQtQtQtQtQtQtQtQtQtQtQt#i#hQtQtQtQtQt.Va3eueccT.2QtQtQtQtQtQtQtQtQtQt.dQt.dQtQtQt.5",
"evdTewexeyb6ez.R.G.uaRaRdDaNas.A.qQtQtQtQtQtQtQtQtQtQtQtQtQtQtQtQtQtQtQtQt.#Qt.#hdQtQtQtQtQtQtQtQtQtQtQtQtQtQtQtQtQtQtQteAc8asdi",
"eBeCeDeEeFeGc0.R.J.H.GdBaRaEeHaJQt.yQtQtQtQtQt.zaMQtQtQtaJ.yeI.maM.I.Sa8cF.Ia8.G.IeJ.GaYaW.nQtQt.#.lQtQt.a.z.z.q.z.qeKatdAeLeMeK",
"eNeOcqePepdXcbb#c0cR.GdDdyeQeRd9c2.c.zatasd9aGdyaNbU.udD.G.SeSeTeUeVeWeXeV#ueYeZeZeZe0b7e1.I.I.G.GaZ.q.aahaIbUaN.Aaee2aease3.k.k",
"e4e5e6cve7epe8e9eUbnb#f..S.G.uaZemdD.vdDaRdD.u.S.Jb5f#fafbbbcBb5.Jezezc0a3a9a9ezfcfdfefffgfh.HbU.vaA.AdydDdBdBaRdBaeaNdydwfifj.i",
"bDbw#yfkflfmfnfobrfpfqfqfrdGfsftftdGfrdGfrfufveZeXfwfxbsfy.JemaNfz.ceHaPas.yQt.zaxaNdz.vez.RaIaIdDbU.AdBaIahfAfBfCakfCakfD#2.f.E",
"bYbB#ubCbp#ubR#GbEfEfFfGfHfIfJfKfLfMfMfNfOfPfQfRfSbbb7.Rezb..H.H.S#cQtasQt.z.y.z.z.yeR.ceRaefTfUfVfW.i.i.QfXfY.i.i.kd..EfZfU.j.i",
"#SbF#F#SbrbE#wbI#WbKf0bLb2#z#Sbvbnb#b7b.bobcbcbBbr#Fbnb5bab5b4.IenQt.z.q.c.A.c.z.AasddafcI.ifDfTf2f3f2fif4f5f5.Q.i.kd.c6f6.j.k.i",
"#Sbr#Gb1f7f8bKbIb1b1bLf9f9bLbK#ybFb#b6cBcabnbs#WbL#zbpbX.HeGaRg.aBaE.A.Aakazg#c2gadwdwdrgbgbgcf3gdgefifjfWd#gfggghgifWgjgkgifZfZ",
"#vbLglgmgngof0#ybIgpgqgrgsgtgugvgwgxgygzgAgBgCgDgEgFgGbRbvb#.J.uaIaRdDaeahaiahaiah.A.Aazdkdkdkf4f4dkgHgigjdkf4dkf4f4dkf4f4dkdkdk"};
