/* XPM */
static char *dummy[]={
"64 64 605 2",
".p c #00002c",
"Qt c #00002d",
".# c #00002e",
"Qt c #00002f",
"bs c #000030",
"#g c #000031",
".d c #000032",
"#x c #000034",
"fo c #000036",
"Qt c #000037",
"aj c #000039",
"Qt c #00003a",
"#o c #00003c",
".0 c #000040",
".p c #000f32",
".o c #000f34",
"cf c #000f36",
".g c #000f39",
"bu c #000f3a",
".A c #000f3c",
"aZ c #000f3d",
"#g c #000f40",
"#I c #001034",
"Qt c #001035",
".p c #001037",
".p c #00103a",
".p c #00103d",
"Qt c #001f37",
".r c #001f39",
"bd c #001f3c",
".r c #001f40",
"b. c #002039",
".p c #00203a",
".R c #00203c",
".p c #00203d",
"cG c #002040",
"bP c #002f3c",
"e5 c #002f40",
"#g c #00303c",
"bn c #00303d",
"#g c #003040",
"cr c #004040",
"br c #004545",
"#h c #004646",
"c. c #004b4b",
"eA c #004c4c",
"#g c #005151",
"eH c #005252",
"cj c #005858",
"fh c #073838",
"gK c #083737",
"#8 c #092936",
"av c #0a3a3a",
"bk c #0a3b3b",
"Qt c #0b3b3b",
"cF c #0b3c3c",
"Qt c #0b4242",
"a5 c #0b4747",
"gq c #0c3c3c",
"b# c #0d3d3d",
"#w c #0d3e3e",
"a9 c #0d4444",
"cJ c #0d5050",
"Qt c #0f4545",
"cT c #0f4646",
".Y c #0f5151",
"b. c #0f5252",
"fT c #104545",
"Qt c #105151",
"c2 c #115353",
"bx c #115454",
".D c #125353",
"Qt c #125454",
"gJ c #125555",
".5 c #153636",
"aG c #163636",
".z c #163737",
"f0 c #173636",
"#L c #173838",
"Qt c #183838",
"gw c #193838",
"Qt c #193a3a",
"az c #194646",
"dR c #1b3c3c",
"hf c #1c2c2c",
".S c #1c3b3b",
"e7 c #1e3d3d",
".y c #1f2f2f",
"aN c #1f4040",
"cg c #1f4545",
"b1 c #1f4646",
"Qt c #1f4b4b",
"da c #1f4c4c",
"eR c #204545",
"e3 c #204b4b",
"f. c #213131",
"fj c #224141",
"ea c #224d4d",
"fk c #224e4e",
".E c #233333",
"fL c #234343",
"dq c #235050",
".i c #243434",
"dC c #244444",
"aR c #244949",
"dP c #244f4f",
"#y c #245050",
"dk c #245151",
"bv c #255050",
"c1 c #263636",
"c4 c #265151",
".0 c #265252",
"ev c #265353",
"cX c #275252",
"cJ c #275454",
"bt c #285353",
"bt c #285555",
".W c #295656",
"bY c #2a3939",
"c# c #2a5555",
"dO c #2b3b3b",
"cO c #2b5757",
"f# c #2c5757",
"cK c #2d3d3d",
"eJ c #2d4444",
"b8 c #2e3d3d",
"fa c #2e4444",
"dD c #2f3f3f",
"fu c #2f4545",
"c5 c #303030",
"dh c #304545",
"cb c #305c5c",
"e9 c #313131",
"cL c #314141",
"bg c #314747",
"ap c #323232",
"eY c #324242",
"d. c #324848",
"dE c #324949",
"gu c #333333",
"dR c #343434",
"dg c #353535",
"cM c #354a4a",
"db c #354b4b",
"g1 c #354c4c",
"fS c #363636",
"dN c #364c4c",
"gv c #373737",
"fn c #374d4d",
"dj c #383838",
"gt c #384d4d",
"cQ c #384e4e",
"eX c #393939",
"df c #394949",
"dc c #394f4f",
"eH c #3a3a3a",
"do c #3a4f4f",
"eu c #3a5050",
"fw c #3b3b3b",
"g2 c #3b5151",
"dk c #3c3c3c",
"eI c #3c5252",
"dr c #3d3d3d",
"eK c #3e3e3e",
"eL c #3e5454",
"g4 c #3f3f3f",
"dm c #404040",
"g8 c #405656",
"gn c #414141",
"gm c #424242",
"eW c #434343",
"du c #444444",
"dQ c #454545",
"b5 c #455b5b",
"hB c #464646",
"aa c #474747",
"g3 c #484848",
"dl c #494949",
"aT c #4a4a4a",
"ej c #4b4b4b",
"g5 c #4c4c4c",
"g0 c #4d4d4d",
"c9 c #4e4e4e",
"fR c #4f4f4f",
"dt c #505050",
"hy c #515151",
"hJ c #525252",
"dB c #535353",
"g6 c #545454",
"hL c #555555",
"hK c #565656",
"c6 c #575757",
"gl c #585858",
"gZ c #595959",
"hC c #5a5a5a",
"hM c #5b5b5b",
"dA c #5c5c5c",
"d5 c #5d5d5d",
"dK c #5e5e5e",
"dn c #5f5f5f",
"dv c #606060",
"gk c #614e3c",
"f8 c #616161",
"hS c #626262",
"eQ c #636363",
"d1 c #646464",
"fb c #656565",
"fQ c #665b51",
"fx c #666666",
"et c #676767",
"eV c #685c52",
"eU c #685c53",
"eT c #686868",
"eS c #695c52",
"fm c #696969",
"dX c #6a5443",
"dx c #6a6a6a",
"fB c #6b5341",
"hR c #6b5e54",
"dz c #6b6b6b",
"dJ c #6c6c6c",
"gY c #6d6d6d",
"fP c #6e6e6e",
"e# c #6f6258",
"ei c #6f6f6f",
"fG c #707070",
"hx c #717171",
"fC c #72635a",
"#g c #727272",
"fA c #735b47",
"f9 c #737373",
"hN c #74685e",
"d0 c #747474",
"dS c #757575",
"dL c #764c28",
"dM c #765b48",
"dy c #767676",
"dG c #775d4a",
"g7 c #775e4a",
"dI c #775e4b",
"dT c #775f4b",
"dF c #77675d",
"fc c #777777",
"hw c #787878",
"fz c #794d29",
"hQ c #794e29",
"hO c #795d4a",
"dV c #79604c",
"dW c #797979",
"en c #7a7a7a",
"gj c #7b4f2a",
"ek c #7b7b7b",
"d7 c #7c624f",
"ht c #7c7c7c",
"f5 c #7d502b",
"cC c #7d5f4c",
"#e c #7d7d7d",
"aV c #7e7e7e",
"eP c #7f604d",
"cr c #7f614e",
"af c #7f7f7f",
"#d c #808080",
"#y c #818181",
"cm c #836350",
"fT c #837266",
"fs c #83746a",
"#q c #838383",
"f6 c #84532e",
"g# c #847369",
"fD c #848484",
"ep c #856552",
"dY c #858585",
"dH c #865d3f",
"hr c #868686",
"fF c #87552f",
"fH c #876753",
"fE c #876a56",
"hH c #878787",
"gi c #888888",
"gX c #895e40",
"fJ c #898989",
"fI c #8a6043",
"hq c #8a8a8a",
"gh c #8b5931",
"fe c #8c5831",
"hp c #8c8c8c",
"fK c #8d8d8d",
"gg c #8e6446",
"fL c #8e8e8e",
"ga c #8f8f8f",
"hG c #905a33",
"ho c #916547",
"fN c #91725e",
"gW c #919191",
"gd c #925b34",
"ff c #925c34",
"hF c #929292",
"gf c #93715b",
"hE c #938276",
"ge c #939393",
"fM c #949494",
"hn c #955e36",
"fg c #959595",
"gV c #967561",
"gb c #969696",
"hh c #975f37",
"eM c #976748",
"gN c #989898",
"fa c #996038",
"gR c #999999",
"gc c #9a6138",
"gM c #9a9a9a",
"gS c #9b6139",
"fl c #9b9b9b",
"hm c #9c6139",
"eN c #9c9c9c",
"eQ c #9d623a",
"gU c #9d7c65",
"gT c #9d9d9d",
"gO c #9e623a",
"hi c #9e9e9e",
"gP c #9f633b",
"fh c #9f9f9f",
"fk c #a0643c",
"hk c #a08d81",
"#u c #a0a0a0",
"fi c #a1643c",
"hj c #a1653b",
"aX c #a2a2a2",
"eO c #a3653d",
"e. c #a3663c",
"eR c #a3a3a3",
"hl c #a4714f",
"er c #a4a4a4",
"el c #a5663d",
"eq c #a5673d",
"dZ c #a5a5a5",
"d8 c #a6836b",
"d9 c #a6a6a6",
"dU c #a7673d",
"cA c #a8683f",
".# c #a8693f",
".d c #a8a8a8",
".o c #a9693f",
".w c #a9a9a9",
"fn c #aa6a3f",
".D c #aa6a40",
"#6 c #aaaaaa",
".h c #ab6a40",
"f9 c #ab6b40",
".E c #ababab",
"du c #acacac",
".k c #ad6b41",
"eK c #ad6c41",
"Qt c #ad6d41",
"#7 c #adadad",
".a c #ae6c41",
"ai c #aeaeae",
".# c #af6e42",
"cI c #af8971",
"Qt c #afafaf",
"gv c #b06d42",
".m c #b06e42",
"ag c #b0b0b0",
".# c #b1b1b1",
"cR c #b3b3b3",
".h c #b47044",
"fp c #b47144",
".t c #b4b4b4",
"dX c #b58f77",
".h c #b6b6b6",
"gA c #b77145",
".i c #b77345",
"#p c #b7b7b7",
".h c #b8b8b8",
"#u c #b9805c",
".Q c #b9b9b9",
"#z c #ba7346",
"cM c #ba7446",
".O c #bababa",
"cO c #bb937b",
"cZ c #bbbbbb",
"#T c #bc7447",
"d6 c #bc7647",
"#I c #bcbcbc",
"cy c #bd7547",
"#I c #bdbdbd",
"e9 c #be7648",
"#P c #bebebe",
"#x c #bf7648",
".L c #bf7748",
"#m c #bfbfbf",
"ct c #c0c0c0",
"#r c #c17749",
"cx c #c17849",
"#c c #c19479",
"aZ c #c1c1c1",
"aU c #c27849",
"#j c #c2c2c2",
"#M c #c3794a",
"#8 c #c3c3c3",
"c9 c #c4c4c4",
"#v c #c57b4b",
"e8 c #c67a4b",
"#e c #c67b4b",
"ep c #c77b4b",
".R c #c79e85",
"#p c #c7c7c7",
".P c #c87c4c",
"#d c #c8c8c8",
"ga c #c97c4c",
"bp c #cacaca",
"cv c #cb7d4d",
"a. c #cbcbcb",
"gI c #cc7e4d",
"a. c #cccccc",
"g. c #cd7e4e",
"aV c #cdc4bf",
"db c #cdcdcd",
"#i c #ce7f4e",
"cN c #ce804e",
"af c #ceaa96",
"de c #cecece",
"#X c #cfcfcf",
"cP c #d0d0d0",
"#w c #d1814f",
"c8 c #d2d2d2",
"#j c #d38250",
"#u c #d38350",
"#u c #d3d3d3",
"bC c #d48351",
"#p c #d5d5d5",
".h c #d68351",
"bT c #d6d6d6",
"c. c #d7b29a",
".J c #d7b49e",
"av c #d88452",
"ge c #d88552",
"cp c #d8d8d8",
"gC c #d98452",
"cs c #d9cfc9",
"dO c #d9d9d9",
"#W c #dabdac",
"dV c #dadada",
"#f c #db8553",
"hf c #db8753",
"#q c #dc8854",
"c6 c #dcdcdc",
"hg c #dd8754",
"#p c #ddd3cd",
"gF c #de8754",
"de c #de8854",
"dm c #deb9a3",
"bh c #dfdfdf",
"dk c #e08955",
"#e c #e08a55",
"dv c #e0e0e0",
"gD c #e18955",
"dF c #e18f5d",
"g6 c #e1905d",
"#u c #e1cabd",
"a4 c #e28a56",
"bQ c #e38a56",
"#z c #e38e5a",
"g4 c #e39362",
"en c #e3dada",
"do c #e3dbdb",
"eH c #e3dedc",
".7 c #e48a56",
"e5 c #e4e4e4",
"#c c #e59767",
"gY c #e59b6f",
"fU c #e5d1c6",
"dK c #e5d6d3",
"fe c #e68c57",
"gI c #e68e58",
"fK c #e6925f",
"g6 c #e6b090",
"eS c #e6b89c",
"hw c #e6d6d1",
"et c #e6d8d0",
"ev c #e6dad2",
"eu c #e6dad3",
"dD c #e7e2df",
"ds c #e7e7e7",
"fv c #e88e58",
"gZ c #e89b6c",
"eg c #e8d4c8",
"dp c #e8e3e0",
"gK c #e98d58",
"dY c #eac1a8",
"fE c #eb8f59",
"g8 c #eb9059",
"fJ c #eb925d",
"fI c #eb9561",
"dM c #eb9865",
"g0 c #eb9f71",
"dE c #ebdfd8",
"dB c #ebdfd9",
"dR c #ebe6e4",
"gE c #ec8e51",
"gL c #ec905a",
"dL c #ecdbd7",
"dS c #ecddda",
"dA c #ece0d8",
"dq c #ece6e3",
"dH c #ece7e4",
"dG c #ececec",
"e2 c #ed915a",
"hj c #ee915a",
"gh c #ee925b",
"fK c #ee9966",
"d4 c #ee9e6e",
"g3 c #eea072",
"dP c #efe7e7",
"d1 c #efeae7",
"dO c #efebe8",
"gi c #f0935b",
"hm c #f1935b",
"fL c #f19a67",
"ee c #f1dad1",
"fw c #f29a64",
"g9 c #f3955c",
"e1 c #f39760",
"ey c #f3ded2",
"eb c #f3e6de",
"ec c #f3eae4",
"cW c #f4cfba",
"d2 c #f4e3d8",
"hk c #f59a5c",
"h. c #f59b65",
"hl c #f59d5c",
"gq c #f59e69",
"g2 c #f5a575",
"hd c #f5a87a",
"go c #f69b65",
"fH c #f6a06d",
"ea c #f7e4da",
"dN c #f7e4de",
"hn c #f8995e",
"fF c #f89d66",
"fD c #f89f6a",
"fG c #f8a26e",
"h# c #f8a572",
"a4 c #f8e8df",
"gM c #fc9d63",
"fC c #fc9f67",
"ho c #fca15e",
"fB c #fca16b",
"e0 c #fca470",
"hp c #fca665",
"gp c #fca673",
"fA c #fca774",
"gj c #fca977",
"fz c #fcaa78",
"gn c #fcab7b",
"hq c #fcac7b",
"ha c #fcac7c",
"fx c #fcae80",
"gN c #fcb080",
"gk c #fcb083",
"eZ c #fcb183",
"hb c #fcb185",
"bV c #fcb387",
"hc c #fcb389",
"fy c #fcb48a",
"hr c #fcb58b",
"eY c #fcb890",
"gO c #fcba94",
"gm c #fcbb97",
"hy c #fcbd98",
"eB c #fcbd99",
"hz c #fcbd9d",
"gW c #fcbe9c",
"gT c #fcbf9f",
"aO c #fcc19f",
"gX c #fcc1a1",
"gS c #fcc1a2",
"hA c #fcc2a2",
"eA c #fcc3a5",
"gP c #fcc4a4",
"gR c #fcc5a7",
"gQ c #fcc7a9",
"hx c #fcc8aa",
"gV c #fcc9ac",
"hs c #fccbaf",
"cl c #fcccb0",
"eX c #fccdb2",
"eU c #fccdb5",
"hv c #fccfb5",
"d9 c #fccfb6",
"eW c #fcd3bc",
"hw c #fcd4bd",
"ht c #fcd5bf",
"eV c #fcd6c0",
"ez c #fcd6c1",
"dZ c #fcd6c6",
"ew c #fcd8c4",
"hu c #fcdac7",
"e. c #fcddcc",
"e# c #fcdfd4",
"ed c #fce0d5",
"dM c #fce1d2",
"d0 c #fce3d5",
"dQ c #fce3da",
"Qt.#.a.b.b.c.c.d.e.c.e.f.g.h.i.h.h.h.h.h.h.h.j.h.h.k.g.l.b.m.c.b.b.m.b.c.c.n.b.m.bQt.c.c.c.b.c.c.c.b.c.m.c.b.b.o.n.e.n.c.c.b.c.c",
"Qt.a.a.a.p.c.c.c.q.r.e.s.g.s.h.h.h.h.t.t.u.v.j.j.w.u.x.q.c.c.c.c.c.c.c.c.c.c.c.c.p.c.c.s.c.c.e.c.c.b.s.c.e.e.y.g.c.c.c.z.c.c.c.c",
"QtQt.#.a.c.a.m.c.y.c.e.A.A.d.x.h.j#v.B.j.z.C.D.i.j.t.s.c.c.b.c.r.c.b.c.c.c.c.g.c.c.c.d.g.A.q.g.D.z.t.h.t.z.j.h.j.h.t.j.i.t.t.j.E",
"Qt.a.a.p.pQt.c.c.c.e.e.e.B.h.k.y.h.j.h.h.h.h.g.F.r.r.q.r.c.c.b.c.c.c.r.c.c.r.s.c.c.u.w.h.h.h.j.h.h.B.h.h.h.h.h.h.h.h.h.h.h.h.h.h",
"Qt.a.b.p.c.a.m.c.c.c.c.c.x.k.d.G.G.z.H.k.e.k.I.n.b.n.n.c.n.b.b.c.c.b.b.e.c.c.x.e.c.B.h.h.h.h.h.B.z.h.h.h.h.h.h.h.h.h.h.h.h.h.h.h",
".m.nQt.n.b.c.#.a.b.c.s.c.G.z.e.i.J.r.b.b.a.c.c.a.c.m.#.nQt.p.m.pQtQt.n.c.c.c.y.z.h.h.h.h.h.h.h.h.h.h.h.h.h.h.h.h.h.h.h.h.h.h.h.h",
".b.m.n.p.#.m.m.mQt.a.c.c.e.d.n.e.c.c.c.K.b.b.c.c.c.p.aQtQtQt.#Qt.a.b.n.b.b.y.e.g.h.h.h.h.h.h.h.h.h.h.h.h.h.h.h.h.h.h.h.h.h.h.h.L",
".c.c.p.c.mQt.m.b.a.a.c.c.c.s.c.c.c.s.e.k.e.c.c.b.c.c.c.m.m.b.aQt.a.#.c.e.o.b.e.c.M.j.j.h.h.h.h.h.h.h.h.h.h.h.h.h.h.h.h.h.h.L.N.O",
".c.c.b.b.c.s.e.c.o.c.c.c.m.o.x.c.J.d.b.d.c.s.b.m.n.p.p.b.b.c.m.aQtQt.#.c.P.q.e.c.g.j.i.h.h.h.j.h.h.h.h.h.h.h.h.h.h.h.h.h.h.h.N.Q",
".A.w.i.x.h.h.h.h.h.R.v.s.k.w.c.s.c.z.o.c.c.c.m.p.#Qt.aQt.p.p.p.pQtQt.c.e.n.c.c.c.x.i.j.G.j.h.j.h.h.h.h.h.h.h.h.h.h.h.h.h.h.h.L.O",
".h.h.h.h.h.h.h.h.h.hcU.h.e.c.e.J.P.c.m.c.b.n.a.m.m.a.mQt.m.#.b.m.#.m.b.c.c.c.c.c.o.c.x.w.h.j.h.h.h.h.h.h.h.h.h.h.h.h.h.h.h.h.h.h",
".h.h.h.L.h.L.h.h.h.h.h.h.h.h.h.B.B.g.p.b.y.c.n.c.c.s.c.y.c.c.m.c.c.c.c.c.c.s.e.c.s.x.A.D.h.w.h.h.h.h.h.h.h.h.h.h.h.h.h.h.h.h.L.L",
".S.T.U.O.Q.Q.N.N.h.h.h.h.h.h.h.h.h.h.x.f.h.e.G.j.x.j.h.h.w.z.x.x.x.z.x.e.c.f.c.c.e.D.D.l.e.i.h.h.h.h.h.h.h.h.h.h.h.h.h.L.N.N.Q.O",
".V.W.X.Y.Z.0.1.2.3.N.L.h.h.h.h.h.h.h.h.z.J.h.j.j.h.h.j.j.h.h.h.h.h.B.h.f.c.g.A.c.4.y.z.g.z.h.h.hcz.h.h.h.h.h.h.h.h.h.L.O.Q.Q.Q.Q",
".5.6.6.7.8.9.6#.##.1#a.N.L.h.h.h.h.h.h.jc..B.h.h.B.j.z.i.h.h.h.h.h.h.j.h.i.h.x.x.w.G.i.h.h.B.h.h.h.h.h.h.h.h.h.h.L.O.Q.Q.Q.Q.Q.Q",
"#b#c#d#e#f#g#h#i#f#h.8#j.1.3.Q.L.h.h.h.h.h.h.h.h.h.d.D.G.k.h.h.g.h.h.h.h.h.j.h.h.h.t.B.h.h.h.h.h.h.h.h.h.h.h.h.h#k.O.Q.Q.Q.O.Q.Q",
"#l#m#m#n#o#p#p#q#q#q#r#f#i#s#..3.O.L.h.h.h.h.h.h.B.z.w.h.h.h.G.j.j.h.h.h.h.h.h.h.h.h.h.h.h.h.h.h.h.h.h.h.h.h.h.O.O.Q.Q.Q.Q.Q.Q.Q",
"#t#u#u#v#w#x#y#z#t#z#A#f#f#f#B#C.3.Q.h.hbu.h.h.h.h.h.h.h.h.h.h.h.h.h.h.j.h.h.u.u.h.h.h.h.h.h.h.h.h.h.L.L.O.Q.L.Q.Q.Q.Q.Q.Q.Q.O.Q",
"#z#z#z#z#z#o#D#r#o#p#E#h#F.5.6#G#H#I.3.O#J#K.h.h.h.h.h.h.h.h.h.h.h.h.h.B.B.j.h.h.D.h.h.h.h.h.h.h.h.h.L.L.Q.Q.Q.Q.Q.Q.Q.Q.Q.Q.Q.Q",
"#z#L#L#L#t#o#b#b#t#o#q#g#s#s.9.7#M#N#O.X#P#Q#R#J#S#T#U#U#U.h.h.h.h.h.h.h.h.h.h.h.B.h.h.h.j.h.h.h.h.h.h.h.h#k.T.T.Q.Q.Q.Q.O.Q.Q.Q",
"#z#o#w#t#V#t#l#n#l#t#o#q#e#A#e#W#i#i#X.6.6#N#O#H#I#Y#Z#0#J#1#2.h#3.h.h.h.h.h.h.h.h.h.h#4.h.h.h.h.h.h.h.h.h.h.h.L.L.N.Q#5.Q.Q.Q.Q",
"#E#d#p#z#b#V#n#m#6#7#8#l#l#l#l#l#9#9#L#p#Wa.a#.8#.#.#.#Oaa#Iab#Y#Yac#Jad.h#T.h.h.h.h.h.h.h.h.h.h.h.h.h.h.h.h.h.L.T.h.h.h.L#5.Q.Q",
"#faeaf#z#L#V#m#6agahai#m#majahagahahaj#7#8#t#d#f#s.9#s.9ak#N#.al#N#N#.alamanaoapaqar#U.hascsatauavav.h.h.h#T.h.h.h.h.h.h.h.L.Q.O",
"#r#r#q#z#oaw#u#nax#6#maiayagah#6#n#8axaxax#u#V#oaz#e#e#D#g#faA.6#s#F#faB.7#.aC#P#IaDaDacaEanaF#0ap#1#1aGaqaHaI#T#J#J.haJ#5aK#k.L",
"#p#q#z#L#L#t#L#o#t#t#L#t#w#Law#w#o#b#LawaL#z#o#L#l#6#l#b#z#pae#h#i#h#f#f#haM#s#FaN.7#..Xal.XaO#PaO.X.X#PamaDaP#IamaP#PaQ#I#P#PaR",
"aS#y#p#xaSaSafaS#o#z#z#z#z#z#d#D#z#o#z#z#z#z#z#z#o#w#v#t#t#L#zaS#E#g#h#f#s#s#s#F#X.9.6aN#s#FaB.7.7.6.6#s.5a##.aCaC.7aC#N#NaCaTaT",
"#faM#faMaMa.#faU#p#L#taL#b#t#b#p#z#t#o#z#L#V#l#V#V#b#b#xaSaV#E#AaeaU#faA#saN.6.6.6.9#s#s#FaA#saWaWaN#h#F#EaSa.#i#s#saNaB#i#i.5.8",
"#X#s#s#Fc2#s#F#hae#r#p#b#t#V#l#t#laX#l#t#V#V#V#t#V#l#t#Laz#W#f#f#f#Xa##B#NaY#G#GaY#G.6aW.6#GaYaY#N.8.9#B.6aAaUaU#f#f#XaA#faMaA#h",
"#z#r#D#f#i#h#h#i#h#g#AaVaz#waZ#nai#9#L#6ag#6#u#o#wawaL#w#w#w#r#faA#s.7#G#NaT#O#HaO#O.X#OfPaO#Ya0a1aTal#N#G#BaWa#aBaNa#aNaB#s#s#F",
"aL#w#z#zae#f#r#d#z#WaeaMa#a2#haV#y#z#z#L#uax#nci#b#o#d#faVaL#yaeaM#s#MaYa3a4.Qa5a6.Sa7a8a9b.b#.T#kbabba1aTaQ#H.Xal#.bcalaCaCalaC",
"#A#yaLaw#b#c#W#E#y#z#A#f.6.7.9#saAaA#r#b#V#t#n#m#V#L#pae#f#faAaA.5#Bak.V.Q.Q.Q.O.Q.Q.Q.Q.Q.T.h.h.h.hbd#5a5.Q.Q.Q.Qbebf#Qa7bgbhbi",
"#gaM#AazawaZaS#d#WaM#Fa2#saWaW.6a##i#Daf#o#L#L#n#maxaw#q#ea.#F.7bc#CaYaC#a.Q.Q.Q.Q#k.O#k.N.T.h.h.h.h.h.L#5.T#k.N#5.TaK.T#k.T.T.T",
"#E#h#f#fbjaMa#aM#D#D#X.5.6aW.8ak#GaBa.af#f#raz#t#V#nbkajax#tblaUa#.7#NakaCbbbm.Qbc.Q.O.L.h.h.h.h.h#k.h.h.h.h.h.h.N.h.h.h.h.h.h.h",
".9#FaB#G#G#CalaC#s#d#p#z#dae#s.9#N#MaB#g#raS#rafdn#oaxbnajax#n#t#z#d#e#ea..8#.bobp.Q.Q.T.h.T.h.h.h.h.h.h.h.h.h.h.L.h.h.h.h.h.h.h",
"aT#O#.aYaCaO#P#H.7#g#o#V#6#nbq#o#WaBaW#saAaU#raf#p#V#naibr#m#mag#n#u#x#o#p#g#s.9a###.Q.Q.Q.N.h.h.h.h.h.h.L.L.h#k.h.h.h.h.h.h.h.h",
"#Pa3#P.Xbc.XaTaT.7a.af#taiagai#m#t#pae#sa##h#p#b#t#Vbs#u#u#lagahai#u#o#L#9#b#e#Ablae#Bbt.Q.Q.Q.N.h.hbo.h.h.L.L.T.h.h.h.h.h.h.h.h",
"aT#P#H#H#H#HaTalaWa.#D#q#L#V#V#mbu#t#LazaU#ha.aV#p#L#t#t#L#VaQai#m#9#bbs#t#n#ubs#w#w#y.5aYbvbw.3.O.N.N.h.h.L.L.L.N.O.O.O.Q.Q.L.h",
".8#N#N#C.V#NaN#ia.#r#r#raz#w#9#l#9#z#w#taS#g#XaBbj#p#V#6ai#mbu#n#7#n#L#z#z#z#p#eaU#F#F.5aN.7.8#.bx.Q.O.h.h.L.N.Q.Q.Q.Q.Q.Q.Q.Q.L",
"#f#h#i#F.8aW#s#g#q#p#r#f#gaf#L#n#t#o#b#baz#gaA#s#s#g#q#w#L#t#t#t#t#t#waSaS#z#z#p#g#ha#.9aB#B#MaOa7.Q.Q.L.Q.Q.Q.Q.2.Q.Q.Q.Q.Q.Q.Q",
"#Eaf#D#g#h#ibybz#E#y#r#f#h#DafaZaZ#paSaS#ybAa#aW.7aWaBae#p#v#L#t#nay#uaS#Daeaeae#E#WaM.6aW.6#B.8.XbvbB.ZbCbD.Q.Qala7.Q.Q.Q.Q.Q.Q",
"#p#o#z#z#z#z#p#q#p#z#p#E#f#faeaA.5#Gal#O#O#H#HaCakaWaCaka#a2#X#EcRaZbF#z#faY.7#g#e#r#f.6aW#N.9aB#sa.bG#FaWaC.YbH.X.3.2bI.W.YbH#a",
"aA#gbE#y#AaeaUaVbj#faUaAa2aA#s.6#..X#QabbJaD#I.V#..6bKbLbM.6aTaTal#.#Gak.6aN#s#h#f#haU#d#qbj#qbN#c#r#x#AaA#B#CaC.V#Ca#ae#W#s.6ak",
"bOaDab#P#.ak#GaY#C#N#M.8.6a##i#Fa##GbPbQ.h#TbRa3aC.9aN#XbSa#aY#HaTaT#P#Q#Q#OalbTbUbV##bca2bW#y#n#n#w#ea2#M#Cal#C#.aBae#b#w#f#BaY",
".hbX#KbYbabZ#0b0#Y#I#P#..9#f#r#f#X.7aCaPb1b2bZ#Ia3#Na##M#MaC#CaYalaaa1.O.T.Tb#.N#k.T.Qa5.Q.Qb3b4aCb5bcalbpaTbv#N.8#s#qaw#x#s#B.7",
"#QaT#IbR#T.h#U#1#0#Ia3aTaW#faAa#.7.8a#aBak.V#Halal.X#Ha8b6b7#Qabb8.h#k.h.h.h.h.h.h.h.h.h.h.h.h.h.L.T.T.T.O.Q.Qb9c.c#cacb.8aNaN.7",
".V.7aBak.X#Ycc#0aca3.X#N#N.6#FaB.6bvaY#C#Cal#H#H#HaTbbcd.YcecfcgchbX.h.h.h.h.h.h.h.h.h.h.h.h.h.h.h.h.h.h.h.h.h.h.T.L.O.Q.3bTbpci",
".5#ia.#h#h#Bak#O.X#O.Vak.8a##F#g#eae#AaAbAaC.V.X#.akaC#H#HaTcjcd.Yck.h.h.h.h.h.h.h.h.h.h.h.h.h.h.h.h.h.h.h.h.h.h.h.h.h.h.h.L.T.O",
"#V#t#bbN#z#pclcmcncocpcqcraW.6aUaL#z#o#c#W#h#W#haNaN#M#N#Nak.8ak.XaPa0csbX.h#T.h.h.h.h.h.h.h.h.h.h.h.h.h.h.h.h.h.h.h.h.h.h.h.h.h",
"ctaj#7#m#9#bcucvcwcxcyczcAcBcCcD#D#p#b#maz#q#z#p#Wa.aB.5.5#s#D#daM.6.9.8#HaDcEcF#T.h.h.h.h.h.h.h.h.h.h.h.h.h.h.h.h.h.h.h.h.h.h.h",
"cGbkag#m#u#t#t#tawcHcIcJcKcLcMcwcNcO#l#6aXbq#9bq#l#w#o#c#o#r#h#Daf#i#s#s#N#H#QacaF#1bp#3av.h.h.h.h.h.h.h.h.h.h.h.h.h.h.h.h.h.h.h",
"cPcQcGcGcRay#mcS#l#l#8#9#qbl#bcTcUcVcWcXcGcYcGcGcYcZc0aX#l#9bN#b#9bqaX#9#e#FakaO#QacamamaEc1#Uc2c3#Uc4cF#3.h#TcF.h.h.h.h.h.h.h.h",
"cPc5c6c7c7c6c8c8cGcGcGc9d.d#d#c5c5c8c6dac6c7c6c6c6c6c6c5dbdbdcc9dddddecYahaw#e#Xak.X#PaT#H.X#PdfaD#0#Y#YaD#ZaDabaPamdgan#T#T.h.h",
"c6c7c6c5c6c6c5c6c6c5c5c5c5c7c6c6c6c6bEc6c6c6c6dhc6dic6c6c6c6c6djdhdkdlbr#6#8cSaw#ga.#iaBbcaPaP#I#Ya3.X#N.9bAa2#w#qaA#MaCbcdmaPb7",
"dncPc7c6c6c6c6c6c6c6c6c6c6c6c6c6c6c6c6c6dhc6c6dic6dhdodpdqdhdhdrdsc7dectc8cPcPdtc0dud#ax#q.5.8.8#..6.5#W#9bq#bajag#LaS#r#pdvbj.7",
"ah#ubkdwdxdy#7#n#u#u#6ahdxdzdkc6dAc6dodBdCc6dDdEc6dpdFdGdGdHdGdGdGdsdsc5dzdldxagagdIdIbs#p#fdA#f#f#f#q#tctajagaZ#ydJ#F#FaN#BaY#O",
"aWaB#G#.a3aTa3a3a3a3aT#OaC.9#fbjbl#z#w#lcZdKdLdMdNdqdDdOdGdGdPdQdidRdSdkdTcGdy#u#x#r#A#yaAaA#f#faAa.dUdldVdrbn#pa##Cal#Oal#H#Ham",
"am#Yamam#ZamaEac#Z#Z#Ya3#HaT#O#CaCb8aNa.dWdXdYdZdQd0dGd1dGd2cPdTc6dac6c6djd##laL#r#zae#sak#G.8a#a##B.9#sd3afbEdJ#GaC#H#IaPam#YaD",
"cc#0#0aF#0aE#0acacama3#P.X#N.7aWaWaNd4d5d6d7d8d9e.e#eaebd1ecedeeefegd#dyag#naw#p#o#w#geheiejekeleiemak.X#H#PaO#P#HaT#H#Ha3#I#Z#0",
"aC.Xa3#Q#P#YccaEdg#IaT.V.7.9a#aW.7aW.8eneoepeqagbkereseteu#MewexeyezeAeBeCeDeEeFeGeHeIeJeKcAeLeMeNeLeOePa#akaC.V#H.VaC.X#HaP#I#Y",
"#Nak#.#O#..X#P#Idf#P#H#CakaW.6#s#f.9.6eieQ#qaw#8aheRag#uaiaheSeTeUeVeWeXeYeZe0e0e1e2e3eFe4e5e6e7e6e8cve4e9f.f#fafbfcfdfe#N.VaC.V",
"fffgfhfifjfk.Xa3a3a3#H#HaCakaWflfmeLfneKfofpczfqfraS#yfscucvftfufvfwfxfyfzfAe0e0fBfCfBfDfEfvfvfFfGfHfIfJfvfIfKfLfMfNfOfPfQfRfSfT",
"fUfVfWfXfYfZf0f1f2f3f4f5f6f7eOf8f9e5g.g#gacvgagag#gbgcd5fpcwgdgegfggghgifDe0fBe0e0e0e0e0gjgkfyglgleZeBgkeZgmeBeTgmgngogpgqfIgrgs",
"gtgufOcycygvgwf9gxfVfagygzgAgBeGgCgDgEgDgDgFgegegGgHgIfOfOe5g.ftftgJgKgLghgMfBe0gjeZgNgNeZgOgPgQgRgPgQgQgSgTgPgUgV#kfGgpgleBgWgX",
"gYgZg0g1g2g3g3g0gsg4g5g5g6g7g8g9h.h#hahbhchchdgrhehfhghhgDhig8hjhkhlg9g9hmg9hnhohpe0e0e0hqhrgShshthueVhvhwhsgQhxgUhxeBhyeBhzgPhA"};
