/* XPM */
static char *dummy[]={
"64 64 494 2",
"ew c #000024",
"a2 c #000025",
"f# c #000026",
"#l c #000029",
".e c #00002c",
"ad c #00002d",
"#j c #00002e",
"#b c #00002f",
"#A c #000030",
".8 c #000031",
"#K c #000032",
"Qt c #000034",
"#t c #000036",
"#l c #000037",
"#w c #000039",
"#b c #00003a",
"bT c #000f30",
"#e c #000f32",
".J c #000f34",
"#k c #000f36",
".T c #000f39",
"#z c #000f3a",
".r c #000f3c",
"#L c #000f3d",
"dO c #001031",
"cV c #001033",
"c0 c #001034",
".h c #001035",
"ah c #001037",
".h c #001039",
"cT c #00103a",
".x c #00103c",
".h c #00103d",
"c5 c #001f37",
".n c #001f39",
"aT c #001f3a",
"dm c #001f3c",
"bh c #001f3d",
"dk c #001f40",
"aZ c #002038",
"dl c #002039",
"#k c #00203a",
"dl c #00203c",
".R c #00203d",
"dY c #002040",
".s c #002f3c",
"dm c #002f40",
"#5 c #00303a",
"ec c #00303c",
"a0 c #00303d",
".t c #003040",
"eW c #004040",
".H c #004545",
"fh c #004646",
"#V c #004b4b",
"fA c #004c4c",
"b0 c #005151",
"g. c #005252",
"gw c #005858",
".Q c #005a5a",
"fv c #005b5b",
"hf c #005d5d",
"fj c #005e5e",
"d5 c #060628",
"bU c #06062a",
"di c #06062d",
"c4 c #06062e",
"dJ c #061729",
"dq c #06172e",
"c3 c #061731",
"bR c #061734",
"dI c #062732",
"da c #062734",
"dY c #07072b",
"d6 c #07072f",
"dT c #071731",
"dM c #071735",
"dc c #072735",
"dQ c #072833",
"dg c #072834",
"df c #072835",
"bQ c #073838",
"d# c #080834",
"e8 c #082832",
"cZ c #082834",
"cj c #083737",
"d4 c #091a2f",
"dN c #092934",
"es c #093939",
"dh c #0a0a33",
"cY c #0a2936",
"dS c #0a3939",
"cT c #0a3a3a",
"b4 c #0a3b3b",
"ec c #0b3b3b",
"bW c #0b3c3c",
"cG c #0c3b3b",
"dp c #0d0d24",
"d. c #0d0d28",
"aR c #0d3e3e",
"a2 c #0d5050",
"hn c #0e0e29",
"dd c #0e1e2b",
"c9 c #0e2f2f",
"a4 c #0e4f4f",
"de c #0f0f27",
"e9 c #0f0f28",
"ds c #0f0f2a",
"db c #0f1f2b",
"gj c #0f1f2d",
"dR c #0f2e2e",
"b1 c #0f3030",
"aY c #0f4646",
"a1 c #0f4b4b",
"#4 c #0f5151",
"bV c #0f5252",
"eu c #101021",
"ev c #101027",
"e7 c #10202a",
"bZ c #102f2f",
"c8 c #103030",
"a9 c #105151",
"aO c #114d4d",
".T c #115353",
".V c #115454",
".N c #115656",
"bO c #115757",
"#p c #115959",
"cl c #123232",
"cg c #123333",
"#l c #125353",
"#u c #125454",
"aj c #125555",
"ez c #125757",
"aa c #125858",
"c7 c #133333",
"bX c #133434",
"#h c #135454",
"b0 c #143333",
".h c #143535",
"#d c #145656",
".c c #145959",
".i c #145f5f",
".k c #15151c",
".a c #151520",
"dt c #151522",
"dk c #153535",
"bY c #153636",
".O c #155959",
".h c #16161d",
"Qt c #161623",
".c c #163535",
".h c #163737",
"#s c #165858",
"dv c #172828",
".h c #173636",
".h c #173838",
"#d c #181824",
"dw c #182727",
".h c #182929",
".h c #183737",
"#p c #183939",
".1 c #186767",
"er c #192a2a",
".h c #193838",
"#V c #193a3a",
"dl c #1a2b2b",
"av c #1a3939",
"#F c #1a3b3b",
"#o c #1b2b2b",
"cA c #1b3a3a",
".5 c #1b3c3c",
"aS c #1c1c1c",
"ae c #1c1c28",
"cK c #1c3b3b",
"a0 c #1d1d1d",
"#f c #1d2e2e",
"#z c #1d3d3d",
"dG c #1e1e1e",
".T c #1e2f2f",
".L c #1e4949",
"bn c #1f1f1f",
"#H c #1f3030",
"cO c #1f3e3e",
".L c #1f3f3f",
"#9 c #1f4545",
"#z c #1f4646",
"#h c #1f4c4c",
"dm c #202020",
".Q c #203030",
"#z c #204040",
"aD c #204b4b",
"ab c #212121",
"bd c #214d4d",
"aC c #214e4e",
"b7 c #222222",
"al c #224242",
".V c #224d4d",
"#t c #224e4e",
"dz c #232323",
"cV c #233434",
".h c #234343",
"#l c #235050",
"c6 c #242424",
"b5 c #243434",
"c6 c #244f4f",
"#A c #245050",
"#c c #245151",
"#t c #252525",
"cG c #253434",
"dW c #253535",
"cd c #253636",
"a3 c #254545",
"ey c #255050",
"ak c #255252",
".V c #262626",
"fD c #263636",
"g# c #263737",
"aV c #265151",
"eB c #265252",
"hl c #265353",
"cI c #272727",
"cL c #282828",
"cM c #283838",
"#j c #285353",
"#i c #285656",
"cr c #292929",
"bk c #293939",
"#r c #295656",
"ab c #295858",
"#y c #295959",
"#w c #295c5c",
"dD c #2a2a2a",
"cS c #2a3939",
"#g c #2a5555",
"#b c #2a5b5b",
"#T c #2b5858",
".2 c #2b5a5a",
"cJ c #2c2c2c",
"aW c #2c5757",
"dj c #2d2d2d",
"#F c #2d5959",
"cE c #2e2e2e",
"cQ c #2e3d3d",
"a# c #2e5c5c",
"c6 c #2f2f2f",
"bm c #2f3f3f",
"#S c #2f5b5b",
"fO c #302c26",
"cq c #303030",
"cP c #304040",
"cb c #313131",
"bl c #314141",
"a0 c #314747",
"fN c #322e28",
"b6 c #323232",
"ca c #333333",
"bq c #334a4a",
"b7 c #343434",
"bx c #344949",
"by c #344a4a",
"b# c #353535",
"bs c #354545",
"#z c #354b4b",
"c# c #363636",
"ai c #364b4b",
"aM c #364c4c",
"cm c #373737",
"bz c #374c4c",
"#m c #374d4d",
".4 c #374f4f",
"bj c #383838",
"bB c #384d4d",
"aN c #384e4e",
"cD c #393939",
"aU c #394e4e",
"#W c #394f4f",
"#N c #395050",
"cu c #3a3a3a",
"#G c #3a4f4f",
"bD c #3a5050",
"#2 c #3a5353",
"#x c #3a5454",
"bi c #3b3b3b",
"cC c #3c3c3c",
"#L c #3c5252",
"e6 c #3d3324",
"cp c #3d3d3d",
"bP c #3d5252",
"ct c #3e3e3e",
"#R c #3e5454",
".Y c #3e5555",
"#B c #3e5757",
"cn c #3f3f3f",
"#Q c #3f5555",
"#C c #3f5858",
"br c #404040",
".Z c #405959",
"fM c #413526",
"b. c #414141",
"cF c #424242",
"#1 c #425858",
"aF c #425959",
"bh c #434343",
"#V c #435858",
"e5 c #443525",
"cy c #443d35",
"eq c #443e37",
"co c #444444",
"bN c #445a5a",
"cw c #454545",
"#O c #455b5b",
"bw c #474747",
"#a c #475f5f",
"a6 c #484848",
"aX c #494949",
"au c #496262",
"bg c #4a4a4a",
"cx c #4b443c",
"a8 c #4b4b4b",
"aS c #4c4c4c",
"aT c #4d4d4d",
"a7 c #4e4e4e",
"e4 c #4f3c2b",
"fL c #4f3d2c",
".5 c #4f4f4f",
"aB c #505050",
"cv c #514b43",
"#H c #515151",
"d3 c #524840",
"#e c #525252",
"#U c #535353",
"#o c #545454",
"ep c #554535",
".9 c #555555",
"bI c #565656",
"eo c #574736",
"cB c #574d44",
"#E c #575757",
"#f c #585858",
"dY c #594634",
".0 c #595959",
"#P c #5a5a5a",
"d2 c #5b4837",
".8 c #5b5b5b",
"fK c #5c3f1f",
".6 c #5c5c5c",
"d0 c #5d4938",
".7 c #5d5d5d",
"e3 c #5e4228",
"#K c #5e5e5e",
"dW c #5f4c3a",
"#D c #5f5f5f",
"dX c #604a39",
"#9 c #606060",
"#I c #616161",
"d1 c #62472d",
"#J c #626262",
"dZ c #634321",
"bA c #636363",
"en c #644c3b",
"## c #646464",
"bC c #656565",
"#. c #666666",
"#0 c #676767",
"#8 c #696969",
"em c #6a4b30",
"aC c #6a6a6a",
"e2 c #6b4925",
"aL c #6b6b6b",
"a. c #6c6c6c",
"fJ c #6e4a26",
"bG c #6e6e6e",
"#Z c #6f6f6f",
"#X c #707070",
"#Y c #727272",
"aK c #737373",
"ea c #75665d",
"av c #757575",
"as c #767676",
"e1 c #784e2a",
"#5 c #787878",
"ei c #794d29",
"ek c #794e29",
"aE c #797979",
"dV c #7a6a60",
"aJ c #7a7a7a",
"el c #7b502a",
"aI c #7b7b7b",
"eb c #7c614d",
"ar c #7c7c7c",
"ed c #7d604c",
"ah c #7d7d7d",
"ej c #7e502b",
"ee c #7e583c",
"aH c #7e7e7e",
"fI c #7f522d",
"#7 c #7f7f7f",
"eh c #80522c",
"bL c #818181",
"e0 c #82532d",
"ac c #838383",
"aG c #848484",
"ec c #865e41",
"bF c #868686",
"ef c #87552f",
"fH c #875630",
"#6 c #878787",
"bH c #898989",
"eg c #8a5630",
"ad c #8a8a8a",
"eZ c #8b5731",
"fG c #8c5832",
"aw c #8c8c8c",
"ag c #8e8e8e",
"aA c #8f8f8f",
"e# c #90705a",
"eY c #915a34",
"af c #919191",
"aq c #929292",
"eV c #935c35",
"ae c #949494",
"fB c #955e36",
"ak c #959595",
"eX c #965d36",
"aD c #969696",
"eW c #975e37",
"al c #989898",
"fF c #9b6138",
"eU c #9b6139",
"ay c #9b9b9b",
"eS c #9d623a",
"ax c #9d9d9d",
"am c #9f9f9f",
"ao c #a0a0a0",
"eT c #a2643c",
"eR c #a2653c",
"ap c #a3a3a3",
"fE c #a5693d",
"bK c #a6a6a6",
"az c #a8a8a8",
"fD c #ab6c40",
"an c #aeaeae",
"eG c #af6e42",
"eQ c #b06e42",
"eJ c #b16f43",
"eF c #b26f43",
"eH c #b47144",
"eO c #b57044",
"eI c #b77245",
"fC c #b87245",
"e. c #ba7346",
"eN c #bc7447",
"eK c #be7648",
"eE c #c07749",
"eM c #c17749",
"eP c #c17849",
"fv c #c3794a",
"fw c #c37a4a",
"eL c #c77b4b",
"fx c #c97c4c",
"d9 c #ca916f",
".2 c #cb7d4d",
".e c #cf7f4e",
".z c #d38150",
".f c #d48150",
".i c #d48250",
".# c #d78351",
".7 c #d7a284",
".Z c #d98452",
"#c c #db8553",
".d c #db8653",
".h c #dc8854",
".u c #e08955",
".w c #e58f5b",
".j c #e68c50",
".l c #e88c58",
"#o c #e88d49",
"#h c #eb8f4a",
".N c #eb925d",
".3 c #ec8e52",
".P c #ed9e6e",
".q c #f09863",
".R c #f69445",
"eB c #f8a572",
"fs c #fc9840",
"fe c #fcac7b",
"fd c #fcb488",
"fc c #fcbb97",
"eA c #fcbd9b",
"ey c #fcc4a4",
"fa c #fcc8aa",
"ez c #fcc9ac",
"fb c #fcd2ba",
"Qt.#Qt.#Qt.#QtQt.#QtQtQtQtQtQt.a.a.b.#.c.b.d.e.d.#.f.fQt.d.#.d.a.f.#QtQt.gQtQt.h.#Qt.#.a.#.a.f.b.e.b.e.e.#.e.d.b.#.b.b.e.e.e.b.e",
"QtQtQtQtQtQtQtQtQtQt.iQtQtQtQtQt.d.b.e.d.a.#.e.a.b.#.b.a.e.#.e.b.a.d.eQtQtQt.h.#Qt.j.bQt.c.d.#.#.e.a.b.a.d.e.b.#.#.a.a.a.a.b.e.f",
"Qt.k.h.lQtQt.aQtQt.#Qt.#.a.#.#.e.#.#.b.e.e.b.d.b.a.a.a.a.a.e.e.bQtQt.#.#.aQt.m.k.n.i.lQt.#.b.#.f.d.b.a.b.d.#.d.f.b.e.#.a.e.e.e.e",
".o.o.p.q.h.g.rQtQt.jQtQt.#QtQt.#QtQtQt.#.aQtQt.a.a.fQtQt.c.e.#.#.aQtQtQtQt.h.s.k#j.t.o.q.u.vQtQt.#Qt.f.#Qt.cQtQt.#.b.#.d.#.c.b.a",
".o.o.o.s.o.o.o.q.u.w.x.hQtQtQtQt.cQt.#Qt.#.#Qt.#.#.#.a.#.c.f.#Qt.#.#.yQt.k.z.r.A.q.o.o.o.n.BQtQt.b.b.e.#.c.a.f.b.eQt.dQt.C.#.#.#",
".o.o.o.o.o.o.o.o.o.o.q.D.s.E.y.y.h.jQt.j.aQtQtQtQtQtQt.jQt.#QtQtQtQtQt.j.r.o.o.v.o.t.F.v.qQt.j.e.dQtQt.#Qt.#.d.#.h.#.y.G.j.iQtQt",
".H.o.I.I.H.o.o.o.o.o.o.o.o.o.o.o.o.q.k.m.#Qt.h.hQtQt.hQt.JQt.h.wQtQtQt.hQt.h.n.k.v.h.k.h.n.h.hQt.g.n.n.Q.r.h.k.n.h.v.t.n.u.m.s.h",
".K.L.L.L.L.L.K.L.I.I.H.I.o.o.o.o.o.o.o.q.q.o.o.o.u.j.nQt.h.M.h.yQt.j.h.h.n.n.r.g.t.E.o.o.o.o.o.g.s.o.o.o.o.o.o.o.o.o.o.o.o.t.o.o",
".L.L.L.N.O.O.P.Q.L.L.L.L.K.K.K.I.o.o.o.o.o.o.o.o.s.q.M.n.m.EQt.n.R.S.j.s.t.z.o.o.o.o.o.o.o.o.o.o.o.o.o.o.o.o.o.o.o.o.o.o.o.t.o.o",
".L.L.T.L.L.L.L.L.Q.L.L.L.L.L.L.L.L.K.K.o.o.o.o.o.o.o.o.s.U.s.o.D.nQt.r.w.k.t.U.t.o.o.o.o.o.o.o.o.o.o.o.o.o.o.o.o.o.o.o.o.o.o.o.o",
".L.V.V.L.W.V.N.X.Y.Z.0.1.2.O.L.L.L.L.3.o.o.o.o.o.o.o.o.o.o.o.s.U.s.o.s.s.o.E.o.s.t.o.o.o.o.o.o.o.o.o.o.o.o.o.o.o.o.o.o.o.o.o.o.o",
".L.4.5.6.7.8.9.6.7#.#####a#b#c.L.L.L.H.H.H.H.o.o.o.H.o.o.o.o.o.o.o.o.o.o.o.o.o.o.o.o.o.o.o.o.o.o.o.o.o.o.o.o.o.o.o.o.o.o.o.o.o.o",
".L.L#d#e.0.6.8.0.7#f#g#h#i#j#k#l.L.L.L.K.L.L.I.K.I.K.I.I.K.I.H.o.o.o.o.o.o#E.o.o.o.o.o.o.o.o.o.o.o.o.o.H.o.o.o.o.o.o.o.o.o.o.o.o",
".L.L.L.L#m#n.9.0.6#o#p.W#q.L.L.L.L.L.L.L.T.L.L.L.L.L.L.L#r#s.L.L.K.I.I.o.H.o.o.o.o.o.o.o.o.o.o.o.o.o.o.I.L.L.I#t.I.H.o.o.o.o.o.o",
".L.L.L.L.L#u.L#v.9#f#w#x#y.W.L.L.L.L.L.L.T#l#z#A#A#B#C.8#D#D.8#E#F.L.L#F.L.K.L.K.I.o.o.o.o.o.o.o.o.o.H.L.L.L.L.K.I.H.H.H.o.o.o.o",
".H.L.L.L.L.L.L.L#l#g#G#G#H#j.L.L.L.L.L.L.L.T.L#z#H.8#I###J#K.0.6.0#L.Z#F#k#s.V.L.L.L.K.L.L.L.L.L.L.3.L.L.L.L.L.L.L.L.L.L.L.K.K.L",
".K.L.L.K.L.L.L.L.L.L.L.L.L.L.L.L.L.L.L.L.L.L.L.L#M#N.7###O#G.L.T#j#E#I###D#D#I#K#P#Q.5#R.2#S#T#U#H#c.Q.V.L.L.L.L.L.L.L.L.L.L.L.L",
".L.L.L.L#t.L.L.L.L.L.V.L.L.L.L.L.L.K.K.L.L.L.L.L.L#u.9#V.L.L.L.L.L#W.0#.#X#X#X#X#Y#Z.7.7#E###0###K.9#1.9#2#q.L#l.L.L.L.L.L.L.L.L",
".L.L#3#3.H.o.o.L.L.L.L.L.L.L.L.L.K.K.K.L.L.L.K.K.L.L#l.T#4.L.L.L.L#l#d#0#X#X#X#5#6#7#8#9#I#I#.a.#8#8#8#Ia#aa.L.L.L.L#l.L.L#u.L.L",
".L.L.H.o.o.o.o.o.3.H.H.3#3.o.K.L.L.3.I.L.L.I.L.I#t.L.L.L.K.L.L.L.L.Lab.7a.#Yacadaeafagacahahagac#Y#X#X#0#Rai.L.L.L.L.L.L.L.L.L#t",
".F#3.o.o.o.o.o.o.o.o.o.o.o#3.I.3.3.o.H.3#t#t.K.L.L.K.L.K.L.L.L.L.Laj.5#D#8agakalamanaoafamamapaq#7aras#0.7at.L.L.L.L.L.L.L.3.I.3",
"#3.o.o.o.o.o.o.o.o.o.o.o.o.o.o.I.o.o.o.o.o.o.o.K.H.L.3.3.o.H.L.L.L.T#Mauav#6awawagaxalayazazayaAarad#6#X###E.Q.L.L.L.3.3#3.o.I.H",
".o.o.o.o.o.o.o.o.o.o.o.o.o.o.o.o.o.o.o.o.o.o.H.o#3.L#t.H.o.o.o.L.L.L.LaB#JaC#6awaAag.1alalalaDaAaEacaw#7#.aF#M.L#3.o.o.o.o.o.o.o",
".o.o.o.o.o.o.o.o.o.o.o.o.o.o.o.o.o.o.o.o.o.o.o.o.o#3.o.o.o.o.o.o.K.3.L#M.9#Ia.araGawaH#5aIaJaK#Y#ZasaKaL#DaB.L.L.3.o.o.o.o.o.o.o",
".o.o.o.o.o.o.o.o.o.o.o.o.o.o.o.o.o.o.o.o.o.o.o.o.o.o.o.o.o.o.o.o.H.o.L.LaM.0.7#K#9#0#K#U.K#E#P#e.0.8.6#UaN.L.L.L.L.L.K.H.o.o.o.o",
"aOaPaQaR.I.L.H.o.o.o.o.o.o.o.o.o.o.o.o.o.o.o.o.o.o.o.o.o.o.o.o.o.o.o.L#4aSaSaT#e.9#RaU#l#l.LaM.L#jaVaW#M#z.T.L.L.L.L.L.L.K.L.K.o",
".7.9.5aX#m.L.LaY.o.H.I.o.o.o.o.o.o.o.o.o.o.o.o.o.o.o.o.o.o.o.o.o.o.K#4aZaS#o.5aTaT.T.L.L.L.L.L.L.L.L.L.L.L.L.L.L.L.L.L.L.L.L.L.K",
"avav#Z#8aC.6aSa0a1.La2#t.o.o.o.o.o.o.o.o.o.o.o.o.o.o.o.o.o.o.o.o.Ka3a4a5a6aTaSaS#Aa8.La9.L.L.L.L.L.L.L.L.L.L.L.L.L.L.L.L.L.L.L.L",
"aCasas#YaK#X.6aSaXb.b#b#ba.o.o.o.o.o.o.o.o.o.o.o.o.o.o.o.o.o.obbbc#4bdbebfaSaT.5#H#j.L.L.L.L.L.L.L.L.L.L#t.L.3.K.K.K.K.3.H#3.3.K",
"#f#P.0#9#9#K#PaBaSbgbhbibjbibkblbmbnbobpbqaObrbsbtbpbnbuaRbvbwa6a8a8aSaSaXa8#mbg#A#l.L.L.L.L.L.L.L.L.L.L#t#3.o.o.o.o.o.o.o.o.o.o",
"#4bxbybzaTaBaB.5.5aTaSaXaXaXa7bgbga8bgaT.9#E.9.9aB#H.5#H#e.9.0bA.7#U#H.9#HbB#M.L#k.5.Q.L.L.L.L.L.3.H.K.L.L.3.o.o.o.o.o.o.o.o.o.o",
".K.L#4#4.L#MbgaSaSaSaSaTaT.5#H#o.9.9.0.7###8bC.7.0.8#J#.#8#Y#Y#YaC.6#o#oa7bD#M.L#kbE.L.L.L.L.L.3.o.o.o.H.I#3.o.o.o.o.o.o.G.o.o.o",
".H.H.3.L.L.L.L#4be#l#c#Ha7aB#o.9.0.7#D#8#Yaradadac#7#7bF#7aEbG#0bC.8aBaSaSa9.L.L.L.L.L.K.3.3.3#3.o.o.o.o.o#a.o.o.o.o.o.o.o.o.o.o",
".o.o.H.K.L.L.L.L.L.L.L.L.Ta6aS#o.0#I#Z#5#7awawawaraharaHah#I#o#o#o#ea7bza6.L.L.L.L.L.3.H.o.o.o.o.o.o.o.o.o.o.o.o.o.o.o.o.o.o.o.o",
".o.o.H.H.L.L.L#t#t.K.L.L.L.L#l#H#E###YaracbHafafadasa.a.aC.8bIaTaSa8bwbJ.L.L.L.L#3.p.o.o.o.o.o.o.o.o.o.o.o.o.o.o.o.o.o.o.o.o.o.o",
".o.o.o.o.o.o.3#3.o.o.3.3.L.L.L#R#E#I#YawaebKaoalaeafbHbFar#0#fa7#M#M.La9.L.L.L#t.4.o.o.o.o.o.o.o.o.o.o.o.o.o.o.o.o.o.o.o.o.o.o.v",
".o.o.H.o.o.o.H.o.o.o.o#3.K.L.L.L#N.0#.aragadbL##bCbCbAaraA#X.0bD.T.L.L.L.L.L#t.3.L.o.o.o.o.o.o.o.o.o.o.o.o.o.o.o.o.o.o.o.D.z.o.t",
".H.o.o.o.o.o.o.o.o.o.o.o.H.3.K.K.LbMbI#9#.bN#g#l.L.L.L#j#ga7aBaU.L.L.L.L.L#3.H.o.o.o.o.o.o.o.o.o.o.o.o.o.o.o.o.o.o.o.o.o.q.q.o.q",
".K.H.o.o.o.o.o.o.o.o.o.o.o.o.o.H.K.L.L#u#h.L.L.3.3.o.H.H.L.L.L#h.L.L.L.3#3.o.o.o.o.o.o.o.o.o.o.o.o.o.o.o.o.o.o.o.o.o.o.o.RQt.r.j",
".L#3.H.o.o.o.o.o.o.o.o.o.o.o.o.o.o.L.I.I.L.H#3.o.o.o.o.o.o.H.K.L.K.L.L.H.o.o.o.o.o.o.o.o.o.o#T.o.o.o.o.U.o.o.o.o.o.o.o.M.j.j.#.g",
".L.L.L.I#t.o.o.o.o.o.o.o.o.o.o.o.o.o.o.H#3.o.o.o.o.o.o.o.o.o.o.o.o.o.o.o.o.o.o.o.o.o.o.o.o.o.o#r.o.o.o.o.o.o.t.o.o.o.t.o.w.b.jQt",
"bg#r#mbO.T.K.I.H.o.o.o.o.o.o.o.o.o.o.o.o.o.o.o.o.o.o.o.o.o.o.o.o.o.o.o.o.o.o.o.o.o.o.o.o#K.o.o.o.o.o.q.o.o.o.o.o.o.o.n.j.cQt.a.d",
"#o.5.T.LaS.L.L.L.I.o.o.o.o.o.o.o.o.o.o.o.o.o.o.o.o.o.o.o.o.o.o.o.o.o.o.o.o.o.o.o.o.o.o.o.o.o.o.o.o.o.o.o.o.o.o.t.o.o.s.m.c.d.d.e",
"#obPaV.La9.T#l.L#l.K.o.o.o.o.o.o.o.o.o.o.o.o.o.o.o.o.o.o.o.o.o.o.o.o.o.o.o.o.o.o.o.o.o.o.o.o.o.o.o.o.o.o.o.o.o.obQbQbRbSbTbU.e.d",
"aU.V.L.L.L.L.LQtQt.3#t.H.o.o.o.oQt.o.o.oQtQt.o.o.o.o.#.o.o.o.o.oQtQt.o.o.obWbXbY.o.aQt.o.o.oQoQtQtQt.o.o.o.oQtQtQtQtbZb0Qtb2.ib3",
"#V.L.L.L.L.L.L.3.o.o.o.o.o.o.o.o.o.o.o.o.o.o.oQtQtb4b5b6b7b7.b.cb9c.QtQtb8b#QtQtcab6.aQtccQtQtcbQtcec.QtQtbXQt.e.fcibYbYQtQtclQt",
".3.3.3QtQtQtQtQtQtQtQtQtQt.o.o.o.o.o.iQtQtQt.aQtQtQtb5QtQtcmQtQt.i.#QtQtQtbjQtbhQtaXQtcobhbic#QtQtc#c#c#.l.j.acqb#b6Qtb6b5cqb8cr",
".oQtQtQtQtQtQtQtQt.iQt.n.o.o.o.o.o.o.o.o.o.o.o.o.o.o.oba.actcuQtQtQtQtbjbiQtaXaSQtbgcoQtQtcnQtbrcncnco.t.u.v.oQtQtQtQtcwcxcocycp",
".o.o.o.o.o.o.o.oQtQtQtQtQtQtQtQt.o.o.o.o.o.o.o.o.o.o.fQt.o.xQtb6czQtb#b7Qta8Qt#H#HQtQtcwaSQtQtcCcncDb6cbQtQtQtbibicFcFcncpbhbrbr",
".oQt.o.o.o.o.o.o.o.o.oQt.o.o.d.aQtQtQtQt.a.o.o.o.o.o.o.o.oQtcsQtQtQtb4b7Qta6aSQtb.aSaTQtQtaTbiQtcG.o.o.o.o.o.ocIcJcKcscLcscMb#cm",
".o.o.o.oQtQt.o.I.I.o.o.o.o.o.o.o.o.o.o.o.o.oQtQt.o.o.o.o.o.o.o.o.o.o.oQtcNcNQtc#cMQt.acQQtcSbuQtQt.o.o.o.o.o.obZbZ.o.ocj.o.ocTcU",
".o.H.F.o.o.H.C.LQtQtQtQt.o.o.o.o.o.o.oQtQt.o.o.o.o.o.o.o.o.o.o.o.o.o.o.o.o.o.o.o.o.o.o.o.o.o.o.o.o.o.o.o.o.o.o.o.o.o.o.o.o.o.o.o",
"QtcV.u.KQtQtQtQtQtQt.3.oQt.o.o.o.oQtQoQt.o.o.o.o.o.v.o.o.o.o.o.o.o.o.L.aQt.o.aQt.o.o.o.o.o.o.o.o.o.o.o.o.o.o.o.o.o.o.o.o.o.o.o.o",
".iQtb#Qt.o.o.o.o.o.o.oQt.o.o.M.NQtQtQtQtQtQt.o.o.o.k.j.RQtQtQt.o.o.t.o.o.o.o.o.o.o.o.o.o.o.t.R.D.o.o.o.E.o.t.u.o.o.o.t.o.o.o.t.t",
"aXbgbhbkcccWcdba.o.o.o.o.o.o.o.Q.o.o.o.o.o.o.o.o.o.o.o.n.o.ocX.v.t.t.o.o.o.z.z.v.t.R.obQ.o.o.D.E.o.ocY.o.t.q.k.q.kQtQtQtQtcZQt.M",
"biQtcucmc#cmQtQtb6cqb8Qt.U.Nb0.obQbQ.o.o.o.t.o.o.o.s.ob1c2.o.hQt.r.R.t.o.o.o.n.t.t.y.r.o.t.o.o.o.o.o.o.oQtQtQtQtQtQt.zQtQtc3c4cX",
"b#b7b7b7b#c5b6b7cbb7c6b7b7b7cqc7b1bZbQbQbZc8c9.z.o.w.zd.d#c7.t.k.SdaQt.zbQ.o.oQtQtQtQt.o.zQtQtQt.q.OQtQtddQtQt.zdfQtdgQtQtc4di.j",
"bjc#bjc#cDb#cbc6djdjdjcbcJdjdjdk.odldmdmdmdmdndoQtdq.sQtdrQtdtQt.advdwdmQtdx.o.oQtQtQt.r.vQtQtQtQt.U.o.o.o.s.v.nQt.#Qt.B.b.bQt.b",
"ctcnbhbhbra6cncDb#b6b7QtQtcJcLcLdzcJQtdBdBdCQtdDdEQtQtQtdGQtQtdzQtQt.abZQtQtb1b1QtdvdIQt.sQtdL.s.kQtQtdMQt.U.uQtQtQtQt.a.b.b.b.e",
"bgQtbga8aSaSbga8cwQtbrcncncDcbb#b#cmcbcqc6cJb7QtcpcDQtQtc6cq.8Qtcab6QtQtcEQtdPciQtQtb1QtQtdQdRdwQt.o.oQtbZ.obQdTdUQt.c.d.e.b.b.a",
"dVQtbC#DQtQt#HQtQtQt.5.5dWdXQtdZd0.ad2d3QtcwQt.a.#QtQobhcobicnQta6cwbgQtQtcnbjQtcbb6cqcqcrbZcjdvdwb1b1bQ.ob1bZ.od4d5.f.d.e.ad6.c",
"d7Qtd9Qte#.eeaQtebQtedeeQtQtegefefefefQtQtejekQtemQtQtd2.bepeqcncnctbjb#c#cub6cbcqc#cqb7b7b7cbcbcTer.oesbQbQbQdweteuevbTewex.b.e",
"ey.##deBQteteEeFeGeH#eeJeKeLQtQteOQtQteM.AeQeReSeTeReUQtQteXQtQteZe0Qte2e3#fe5Qtc6djQtQtb6b7b6QtQtQtQtb1dvdndne7bQe8e9f.d5f#.edp",
"faQtfbfc.B.P.#fgfhQtfjfkQtQtfnQtQtfqQtfsQt.afifvQtfwfxQtfzfiQteIfBQteSQte.fDfEfFfGfHfIfJfKfLfMcafNfOcrcLdmfPdodGfQfQfQfQQtQtQt.A"};
