/* XPM */
static char *dummy[]={
"64 64 650 2",
".f c #00001c",
".e c #00001f",
".h c #000020",
".g c #000023",
".d c #000024",
"hJ c #000026",
".i c #000027",
".o c #000028",
".x c #000029",
".F c #00002a",
".c c #00002c",
".n c #00002d",
".l c #00002e",
".b c #00002f",
".m c #000030",
".k c #000031",
".v c #000032",
"Qt c #000034",
"#H c #000035",
".a c #000036",
".4 c #000037",
".B c #000039",
"fP c #00003a",
".A c #00003c",
"bu c #000f30",
"b7 c #000f32",
"#P c #000f34",
"fI c #000f36",
"#w c #000f37",
"#j c #000f39",
"#b c #000f3a",
".z c #000f3c",
".T c #000f3d",
".S c #000f40",
"ba c #001033",
"b# c #001034",
".K c #001037",
"#5 c #00103a",
"e# c #00103d",
"#x c #001f37",
".j c #001f39",
"bZ c #001f3a",
".5 c #001f3c",
"aY c #001f3d",
"#n c #001f40",
"c6 c #002039",
".6 c #00203a",
".W c #00203c",
".J c #00203d",
".U c #002040",
"ab c #002f3a",
".y c #002f3c",
".V c #002f40",
"bS c #00303a",
".H c #00303c",
"#d c #00303d",
".I c #003040",
"#c c #004040",
"#y c #004545",
"#4 c #004646",
"#z c #004b4b",
".5 c #004c4c",
"#O c #005151",
"aK c #005252",
"#Q c #005858",
".q c #06061c",
".r c #06061f",
"cg c #060620",
".G c #060623",
".C c #060624",
"bQ c #060627",
"fX c #060628",
"#q c #060629",
"b1 c #06062a",
"#g c #06062b",
"bR c #06062c",
"gk c #061734",
"hr c #062734",
"bv c #063737",
"hI c #07071c",
".Z c #070720",
"b9 c #070723",
".X c #070724",
"#o c #070725",
"gS c #070726",
"b8 c #070727",
"#h c #07072a",
"#s c #07072b",
"#f c #07072c",
".3 c #07072d",
"#e c #07072e",
"b0 c #07172d",
"bt c #071732",
"aX c #071734",
"cf c #072733",
"#i c #072734",
"#v c #072738",
"hy c #072833",
"a2 c #073838",
"dI c #080824",
".R c #080828",
"hM c #08082c",
"hN c #08082e",
"fR c #08182b",
"#a c #081831",
"be c #093939",
"a9 c #0a3a3a",
"a1 c #0a3b3b",
"by c #0b3b3b",
"a8 c #0b3c3c",
"bl c #0c3b3b",
"cl c #0c3c3c",
".p c #0d0d1c",
".t c #0d0d1f",
"bM c #0d0d20",
"cm c #0d0d23",
".L c #0d0d24",
"hw c #0d0d25",
"aS c #0d5050",
".D c #0e0e1c",
"c. c #0e0e1f",
".E c #0e0e20",
"#j c #0e0e21",
".2 c #0e0e23",
"hW c #0e0e25",
"#r c #0e0e27",
"#t c #0e2f2f",
"#k c #0f0f1d",
"#p c #0f0f20",
".0 c #0f0f22",
"## c #0f0f24",
".8 c #0f0f26",
"gT c #0f0f28",
"a3 c #0f1f2b",
"bT c #0f1f2d",
"bF c #0f3030",
"aD c #0f4646",
"aZ c #0f4b4b",
".O c #10101e",
".P c #101021",
".1 c #101025",
"c5 c #10202f",
"#u c #102f2f",
"a5 c #104b4b",
"b. c #113232",
"aL c #114d4d",
"#R c #115353",
"#J c #115454",
"b3 c #123333",
"#6 c #125353",
"am c #125454",
"#B c #125555",
"ac c #125757",
"hh c #131321",
"es c #133232",
"#N c #135454",
".w c #14141c",
".M c #14141f",
".7 c #141420",
"bL c #143333",
"#G c #145656",
"eW c #15151c",
".Y c #151520",
"bD c #153636",
".9 c #16161d",
"hR c #161620",
"hV c #161621",
"hK c #161622",
"cX c #161624",
"cV c #162626",
"c# c #163535",
"bd c #163636",
"hL c #171723",
"hx c #171725",
"#. c #172626",
"bY c #173636",
"a7 c #173838",
"hz c #181822",
"a4 c #182727",
"dX c #183737",
"cE c #192a2a",
"bC c #193838",
"bk c #193a3a",
"ef c #1a2929",
"bs c #1a3939",
"hg c #1b171e",
".N c #1c1c1c",
"dD c #1c3b3b",
"bP c #1d1d1d",
"hj c #1d2e2e",
"ej c #1e1c18",
"bN c #1e1e1e",
"dC c #1e3d3d",
"b2 c #1f1f1f",
"d3 c #1f2f2f",
"#m c #202020",
"ca c #202f2f",
".Y c #211e1a",
"bO c #212121",
"#a c #213131",
"bU c #222222",
"bg c #223232",
"b4 c #223333",
"hc c #231f1d",
"de c #232323",
"bh c #233333",
"bW c #233434",
"#I c #234949",
"aJ c #234e4e",
"hZ c #24211b",
"dd c #242424",
"bA c #243333",
"bX c #243434",
"cn c #252525",
"bB c #253535",
"#A c #254545",
"ax c #255050",
"hv c #26221b",
"b5 c #262626",
"bi c #263535",
"bw c #263636",
"#S c #265252",
"co c #272727",
"h0 c #28251f",
"cF c #282828",
"dO c #283737",
"hf c #292321",
"cG c #292929",
"aM c #295454",
"#T c #295555",
"hX c #2a2620",
"bV c #2a2a2a",
"ht c #2b2418",
"d2 c #2b2b2b",
"hu c #2c2518",
"ci c #2c2c2c",
"cU c #2d2d2d",
"bx c #2d3d3d",
"i# c #2e2719",
"#A c #2e2e2e",
"br c #2f2f2f",
"#U c #2f5b5b",
"bm c #303030",
"bn c #313131",
"hd c #322a19",
"fG c #323232",
"a0 c #324848",
"ih c #332915",
"bp c #333333",
"d1 c #342c21",
"bo c #343434",
"aR c #344a4a",
"he c #352b1a",
"d0 c #352d22",
"bG c #353535",
"hs c #362c1b",
"dZ c #362e23",
"dN c #36322c",
"dX c #36332d",
"bz c #363636",
"bb c #364646",
"eU c #373028",
"cj c #373737",
"#V c #376363",
"dY c #383023",
"gR c #383128",
"h3 c #38332b",
"dR c #383838",
"e8 c #39332b",
"dv c #39332c",
"c0 c #393939",
"aW c #394f4f",
"bH c #3a3a3a",
"aC c #3a5050",
"eT c #3b342c",
"bI c #3b3b3b",
"c4 c #3c3c3c",
"c1 c #3d372f",
"dk c #3d3d3d",
"hY c #3e3122",
"fz c #3e352b",
"aB c #3e3e3e",
"ay c #3e5454",
"eV c #3f3322",
"du c #3f3323",
"eW c #3f3525",
"fQ c #3f382f",
"gj c #3f3830",
"cp c #3f3f3f",
"dw c #403425",
"dV c #403627",
"cb c #404040",
"#C c #405656",
"fS c #41331d",
"dW c #413526",
"cJ c #414141",
"er c #423627",
"fB c #42372a",
"gi c #423b33",
"c4 c #424242",
"dc c #433c34",
"bJ c #434343",
"#3 c #435b5b",
"fP c #443626",
"aT c #444444",
"cZ c #453e36",
"cx c #464646",
"#W c #465c5c",
"dU c #473a2a",
"hr c #483624",
"eh c #483a2b",
"b6 c #484848",
"cC c #493f36",
"c3 c #494139",
"cq c #494949",
"dL c #4a4137",
"bc c #4a4a4a",
"ia c #4b3619",
"fO c #4b3a21",
"df c #4b4139",
"dx c #4b4b4b",
"a2 c #4b6464",
"aw c #4c4c4c",
"aE c #4d4d4d",
"cd c #4e4e4e",
"eS c #4f3c2b",
"eg c #4f3f2f",
"an c #4f4f4f",
"h1 c #503b24",
"hS c #503c2b",
"h6 c #503e2d",
"c2 c #504131",
"aU c #505050",
"ep c #513b1b",
"hq c #513b29",
"dt c #513f2e",
"cc c #515151",
"gQ c #523d24",
"h7 c #523d26",
"dB c #52473e",
"aN c #525252",
"ei c #53402f",
"hU c #53463b",
"cH c #543e25",
"dM c #54412e",
"cK c #545454",
"eq c #553d1c",
"c5 c #555555",
"c7 c #565656",
"ao c #575757",
"ie c #583c1e",
"dT c #584026",
"c8 c #58422a",
"a# c #585858",
"aV c #595959",
"h2 c #5a3f1e",
"eo c #5a4127",
"c6 c #5a5a5a",
"gP c #5b3f1e",
"ds c #5b401e",
"dK c #5b442b",
"ck c #5b5b5b",
"fM c #5c401e",
"h5 c #5c4228",
"al c #5c5c5c",
"h4 c #5d3e20",
"ej c #5d411f",
"hA c #5d4736",
"aP c #5d5d5d",
"hH c #5e4428",
"cI c #5e452c",
"cN c #5e4a39",
"a6 c #5e5e5e",
"fN c #5f4120",
"hb c #604022",
"fT c #604220",
"#M c #606060",
"en c #614220",
"eu c #614221",
"h8 c #614d3c",
"#D c #616161",
"d5 c #624321",
"dj c #62554c",
"ad c #626262",
"em c #634321",
"aO c #636363",
"dD c #644422",
"#E c #646464",
"fy c #65472b",
"cg c #654d3c",
"hk c #66492e",
"aQ c #666666",
"el c #674523",
"ib c #674623",
"hO c #67472c",
"dg c #674930",
"av c #676767",
"fL c #684523",
"eR c #68482d",
"gO c #694523",
"ef c #694623",
"hT c #694723",
"#K c #696969",
"cS c #6a4623",
"dr c #6a4624",
"dy c #6a523d",
"#2 c #6a6a6a",
"d6 c #6b4724",
"dh c #6b523f",
"hQ c #6c4f34",
"bM c #6c6c6c",
"di c #6d5440",
"#L c #6d6d6d",
"dm c #6e4825",
"dA c #6e5440",
"ev c #6f4825",
"cB c #6f4926",
"h. c #704c28",
"#0 c #707070",
"ek c #714926",
"ci c #714a27",
"de c #714b27",
"#X c #717171",
"h# c #724c28",
"cv c #727272",
"et c #734b27",
"ap c #737373",
"gM c #744e2a",
"fg c #745134",
"fK c #754b27",
"dJ c #754c28",
"cu c #757575",
"c9 c #764c28",
"dz c #765a45",
"#Y c #767676",
"dq c #774c28",
"dS c #794d29",
"ic c #794f29",
"eP c #794f2a",
"ha c #79502c",
"aI c #7a7a7a",
"gL c #7b512d",
"fw c #7c4f2a",
"#G c #7c502c",
"cr c #7c593d",
"#1 c #7c7c7c",
"eL c #7d512b",
"dI c #7e502b",
"ft c #7e522c",
"cM c #7e7e7e",
"fv c #7f512c",
"if c #7f522d",
"cs c #7f6652",
"dn c #80502c",
"ee c #80512c",
"ak c #808080",
"dR c #81512c",
"hF c #81522d",
"hP c #81532d",
"bg c #81532e",
"aF c #818181",
"gh c #82522d",
"eM c #82532d",
"fs c #82542e",
"ct c #82746a",
"eX c #83522d",
"eQ c #83542e",
"hp c #835530",
"a. c #838383",
"fx c #84532e",
"ed c #84542e",
"fo c #84552f",
"g6 c #845530",
"aq c #848484",
"ig c #85501f",
"do c #85542e",
"cA c #85552f",
"hB c #86532e",
"e# c #86552f",
"g7 c #865630",
"cz c #87552f",
"gK c #875731",
"cw c #878787",
"da c #885630",
"gN c #885731",
"cL c #888888",
"eO c #895731",
"fm c #8a5831",
"ec c #8b5731",
"dE c #8c5831",
"eN c #8c5832",
"fl c #8c5932",
"aB c #8c8c8c",
"eb c #8d5731",
"e. c #8d5831",
"d8 c #8d5a32",
"#9 c #8d8d8d",
"fh c #8e5832",
"fD c #8e5932",
"d7 c #8e5b33",
"eC c #8f5933",
"cO c #8f5a33",
"fr c #8f5a34",
"gl c #905a33",
"fn c #905a34",
"ea c #905c34",
"fC c #915a33",
"eI c #915a34",
"d9 c #915c34",
"#7 c #919191",
"gU c #925b34",
"dp c #925c34",
"cX c #925d35",
"aG c #929292",
"eJ c #935b35",
"cR c #935d35",
".a c #945c35",
"ew c #945d35",
"Qt c #945d36",
".j c #945e36",
"aj c #949494",
"eD c #955d36",
"Qt c #955e36",
".g c #959595",
".b c #965e36",
".g c #965e37",
".n c #965f37",
"g9 c #966037",
"Qt c #969696",
"ho c #975e37",
".g c #975f37",
"eH c #985f37",
".g c #986038",
"ar c #989898",
".g c #999999",
"ex c #9a6038",
".g c #9b6139",
"fX c #9c6139",
".g c #9d6139",
"eK c #9d6239",
".g c #9d623a",
"Qt c #9e623a",
".g c #9e633a",
"fH c #9f623a",
".g c #9f9f9f",
".A c #a0633b",
".g c #a0643c",
"eF c #a1643b",
".g c #a1643c",
"fq c #a1663c",
".g c #a2581a",
"fE c #a25f2d",
".g c #a2643c",
"eG c #a2653c",
".g c #a2653d",
"hC c #a2663c",
".g c #a2673c",
"ey c #a3653d",
".g c #a3a3a3",
"fI c #a45f2c",
".g c #a4663e",
"hl c #a4673c",
".g c #a4673d",
".g c #a5622f",
"ez c #a5663e",
".g c #a6673f",
"Qt c #a6a6a6",
".g c #a7683f",
".Z c #a7a7a7",
".g c #a8683f",
"eY c #a86840",
".g c #a8a8a8",
"ge c #a9693f",
".g c #aa6940",
"gg c #aa6a3f",
".g c #ab632d",
"fM c #ab6a40",
".g c #ab6a41",
".g c #ac6a40",
".g c #ac6b41",
".A c #ad6b41",
".w c #ad6c41",
"#p c #ae6c41",
".g c #ae6c42",
"g8 c #af6d41",
"fZ c #af6d42",
".g c #af6e42",
"eZ c #b06d42",
".g c #b0b0b0",
"fU c #b16630",
".g c #b16e43",
"gf c #b36f43",
".w c #b37044",
"e1 c #b47044",
"#Z c #b47144",
"at c #b4b4b4",
"#x c #b57044",
"aL c #b76d35",
"aO c #b77145",
"a8 c #b77245",
"fS c #b77345",
"a5 c #b7b7b7",
"gc c #b87245",
"bj c #b87246",
"ca c #b87446",
"e8 c #ba7346",
"cq c #ba7446",
"f0 c #bb6d33",
"cG c #bb7547",
"#R c #bc7447",
"g1 c #bc7647",
"cM c #bd7547",
"gX c #be7648",
"cX c #be7848",
"f1 c #bf6721",
"gF c #c07749",
"c3 c #c0c0c0",
"e7 c #c27849",
"#S c #c47135",
"dH c #c47a4a",
"#t c #c57a4b",
"cl c #c67b4b",
"gG c #c87c4c",
"d5 c #c97c4c",
".0 c #cc7e4e",
"g0 c #cf804f",
"cU c #d16234",
".O c #d16b47",
"eA c #d18150",
"#I c #d2752c",
".0 c #d28250",
".0 c #d47e40",
"gE c #d57350",
"e1 c #d88143",
"eB c #d97350",
"fa c #d98142",
"ff c #dc644d",
"e# c #dc6f3d",
"au c #dd7721",
"gs c #dd8345",
"#G c #de8035",
".0 c #e48236",
".0 c #e48336",
"f4 c #e77744",
".0 c #f0852b",
"gy c #f1702b",
".0 c #f47350",
"gB c #f4882c",
"e# c #f57325",
".0 c #fc8820",
"eY.#fU.h.a.#i1QtQtQtQtQt.g.c.g.c.c.c.d.e#C.f.g.f.f.f.f.f.f.f.f.f.f.f.f.f.f.f.f.f.f.f.g.g.g.h.f.f.f.g.f.h.f.f.edh.e.f.7fXQt.h.o.c",
".jQtQtQt.aQtQtQt.k.l.c.c.c.c.c.d.c.c.i.h.f.f.f.f.f.f.f.f.f.g.g.g.g.g.g.g.g.f.f.f.e.f.k.iQtQtQt.f.f.f.f.f.f.RQt.u.u.f.f.5.g.f.gfZ",
".m.n.b.laT.l.l.l.c.c.c.d.i.c.i.c.g.f.e.d.g.f.e.f.f.f.f.f.f.f.f.f.f.f.f.f.f.f.f.f.d.f.ees.f.e.d.e.g.g.f.f.f.f.f.f.f.f.f.e.f.h.c.g",
".c.c.n.c.c.c.c.c.o.i.g.e.f.f.o.d.h.f.f.e.f.f.fk1.f.f.f.f.f.f.f.f.f.f.f.f.f.f.f.f.e.e.e.f.e.e.f.fex.i.f.f.f.e.e.f.f.f.f.f.f.f.g.i",
".d.g.c.o.o.i.c.c.i.g.e.e.f.f.f.f.f.fgn.f.e.d.e.e.f.f.f.f.f.f.f.f.e.e.e.f.f.f.f.e.g.c.h.g.g.dey.f.e.h.f.f.g.g.f.f.f.f.f.f.f.e.i.c",
".c.c.c.c.f.g.i.c.g.g.e.h.e.f.f.f.f.f.f.f.e.f.f.f.f.f.f.ffE.e.f.f.f.f.f.f.f.f.f.e.f.i.h.f.e.h.f.f.f.e.o.f.f.g.h.f.f.f.f.f.f.e.c.c",
".i.c.c.c.c.c.d.d.f.e.g.e.f.g.h.f.f.g.f.h.e.c.ddR.e.e.f.e.e.h.f.f.f.f.f.f.f.f.f.f.e.e.d.d.f.e.f.f.f.f.h.h.f.e.f.f.f.f.f.d.g.c.i.c",
".c.c.c.c.c.c.c.i.c.i.g.g.g.h.f.f.f.e.e.e.f.i.c.c.d.e.g.e.e.f.f.f.f.f.f.e.f.f.g.f.f.e.f.h.g.f.f.eeg.f.f.f.f.f.f.f.f.f.c.c.c.c.k.c",
".c.c.c.c.c.c.c.c.d.c.c.c.c.c.d.g.c.i.d.d.g.ffU.c.c.c.c.f.f.g.e.f.f.f.f.f.f.f.e.f.f.e.f.f.f.eef.f.f.f.f.f.f.f.e.d.g.i.i.ciy.b.kQt",
".c.c.c.c.i.c.c.o.d.e.d.c.i.e.i.e.h.g.c.o.g.g.o.i.e.o.d.f.d.f.f.f.f.f.f.e.f.f.f.e.e.f.f.f.f.f.f.f.f.f.f.f.p.qkm.i.c.n.m.bQt.kQtQt",
".c.c.c.c.c.c.c.d.g.i.i.i.e.o.c.o.e.h.i.d.d.g.f.o.g.c.c.g.f.d.f.e.f.g.c.i.c.o.d.e.d.g.e.e.o.e.f.e.e.f.f.p.s.t.nQt.k.n.b.kQt.u.k.k",
".c.c.c.c.c.c.c.c.i.c.i.c.i.i.o.g.o.i.g.d.g.e.h.c.o.c.c.i.c.g.e.g.g.c.c.c.c.c.c.ccZ.c.c.g.c.f.d.f.faj.e.g.i.c.b.kQtQt.kQtQt.l.v.l",
".c.c.c.c.c.c.c.c.c.i.i.c.c.c.c.c.i.f.f.i.c.c.c.c.c.c.c.c.n.c.c.c.c.c.c.c.c.c.c.c.c.c.c.d.i.g.i.f.g.i.c#1.n.k.k.n.n.c.c.c.c.c.c.c",
".c.ccu.c.l.c.c.c.cjv.c.c.c.c.c.c.c.c.c.n.c.b.c.c.n.b.n.b.b.k.c.m.c.c.l.n.c.clf.i.e.i.l.c.c.c.c.c.c.c.c.c.n.c.c.c.l.c.o.c.i.d.c.o",
".i.c.c.c.c.c.cg3.c.c.c.c.c.c.n.n.b.v.kQt.a.k.k.kQtQt.k.k.k.n.c.n.o.c.c.i.c.c.c.c.i.c.c.c.c.c.c.n.c.n.c.c.c.c.c.c.o.ogB.e.f.f.d.w",
".i.c.c.c.c.c.c.c.igRQtQtQtQtQt.y.z.A.B.BdgQtQtQtQt.m.m.n.m.n.n.c.c.c.chv.m.o.C.D.E.C.c.o.E.F.G.c.o.i.c.c.c.c.cid.h.h.f.f.fel.f.D",
".i.n.c.c.c.c.c.c.b.kQteeQt.a.H.I.J.KQtQtQtQtQtQt.k.l.b.c.c.c.n.c.c.c.c.L.M.E.N.O.P.Q.o.i.R.i.R.d.i.i.o.cei.h.h.f.f.f.f.f.f.h.f.f",
".c.c.c.c.c.c.bQt.a.a.A.S.T.U.V.W.U.a.A.aQt.k.v.m.b.c.c.n.l.X.g.Y.s.Z.0.1.2.3.m.c.c.c.c.mh5.c.c.c.e.g.c.c.i.e.h.f.f.f.f.f.f.f.f.f",
".c.c.c.l.c.n.mQt.a.4Qt.5.W.6.V.y.z.j.H.#QtQtQtQtQt.n.n.7.8.1.9#.###aQtQt.k.k.c.c.c.c.c.c.c.n.l.c.n.c.o.i.g.g.i.f.f.f.f.f.f.f.f.p",
".c.c.c.k.m.b.bQt.k.vQt#b.5#c#c#c.I#c#d.I.V.j#e.3#f#g#h.##i#j#c.6.a.4QtQt.k.kQt.keW.c.c.c.c.c.l.c.c.c.c.c.o.c.dhn.f.e.q.p#k.N.N.N",
".n.b.b.b.k.k.#.6.##l.Hca.I.V#c#c#c#c#c#c#c#c#m#m#m.j.y.y#c.V#n.H#j.#.KQtQt.m.c.c.c.biz.c.c.n.c.c.b.b.n.c.i.c.g.g.ikJ.D#p#q#r#s.b",
".k.l.k.kQt.z.V.6.V#c#c#c#c#c#c#c#c#c#c#c#c#c#t#u#v#c#c.I.I.H.V#d.4Qt.KQt.k.b.m.c.b.k.mQt.b.c.bQtQtQt.k.n.b.k.v#w.V#n.5.I#n#n.B.k",
"Qt.nQtQtQt.5.I#c#n#c#d#c#c#c#c#c#c#c.I#c#c#c#c#c.I#c#c.6.6.4.6#c.#.aQtQt.m.b.k.c.nQtQt.6.#.j.H.jcW.j.#.j#x.j.y#c#y#z#A#z#z#y#c.#",
".KQt.a.#.5#c#c#c#c#c.I.I#n#c#c#cif.I#c#c#c.I#d.U#c#c.V.V.K.#.#Qt.#.BQtQt.m.bQt.mQtQt.#.I.Vc##c#c#c#c#c#c#c#c#c#z#B#C#D#E#F#G#c.I",
".#.H.Vbj.I#c#c#c.I#c#c.V#c.V#c.I.I#c#c#c#c#c#c#c#j#d#c.H.W#lQtQt.4#HQtQtQt.KQt.#.j#cet#c#c#c#c#zd7#c#y#c#y#z#I#J#C#E#K#L#M#N#O#c",
"#c#c#c#c#c#c#c#c.I.V#c#c#c#c#c#c.I#c#c.I#c#c.I#c#l.j.HQt.K.6Qt.#Qt.#.m.n.m#P.j.4#c#c#c#c#c#O#Q#R#S#T#U#V#W#X#Y#Z#0#0#1#2#3#Q#4#c",
"#c#c#c#c#c#c#c#c#c#c#c#c#c#c#c#c#c#c#c#c#c#c#c#c.J#5.#.#.5.jdXQtQt.v.b.v.b.k.a.y#c#c#c#c#z#Q#Q#6#C#D#Y#7#8#8#8#9a.#Y#2a##Naa#c#c",
"#c#c#c#c#c#c#c#c#c#c#c#c#c#c#c#c#c#c#c#c#c#c#c#c.#QtQtQt.KQt.kQt.m.b.k.n.k#Pab#c#c#c#c#c#O#Q#Q#Qacada.aeafagahai#8ajiBal#R#c#c#c",
"#z#z#z#z#y#c#c#c#c#c#c#c#c#c#c#c#c#c#c#d#c#c#c#c.y.#.KQt.kQt.kQt.kQtQtQtQt.H#c#c#c#c#c#c#y#Q#Q#Qamanaoapaqarahasatauakavaw#O#c#c",
"#Q#Q#Q#Q#Q#Q#Qaa#O#y#c#c#c#c#c#c#c#c#c.#.H#l#c#c.K.#QtQtQt.kQt.mQtQt.k.b.k.a#c#c#c#c#c#c#c#yaaaaaa#Qaxayav#7aiazaAaBaBaB#2aCaD#c",
"#Q#Q#Q#Q#Q#Qam#Q#O#4#c#c#c#c#c#c#c.I#j.#.y.W.T.6.KQt.aQt.a.kQtQt.a.aQt.#.ydY#c#c#c#c#c#c#c#c#c#c#cb##Q#QaE#KaFaG#8aHaFaI#Ya#aJ#y",
"#OaKaa#y#OaKaa#4#y#c#c#c#c#c#c#c.J.5.y.6.V.y.H.#Qt.#.B.kiC.5#j.y.6.5.5#c#c#c#c#c#c#c#c#c#c#c#c#c#c#c#y#caaaLaMaNaOadaP#L#0aQanaR",
"#c#c#c#c#c#c#c#c#c#c#c#c#c#c.H.I.H.U.J#d.I.5ia.HQtQt.j.y#c#c#c#c.y#c#n#c#c#c.I#c#c#c#c#c#c#c#c#c#c#c#c#c#c#yaa#zaSaTaUaVaPaPaVaW",
"#c#c#c#c#cbp#c#c#c#c#c#c#c.I#c.yQtaX.H.H.ykv#daY.j.H.V#c#c#c.H#c.W#n#d.I.I#d#c#c#c#c#c#c.5#c#c#c#c#c#c#c#c#c#c#c#c#caZa0aCaPalaw",
"#c#c#c#c#c#c#c#ca1#c#ca2#ca2a3a2#ua4a2#ca2#c#c#c#v#c#c#c#c.6#c.6.a.5#j.K.#.H#c.j.6#c.5#c#c.H#d#c#c#c#c#c#c#c#c#c#c#c#c#ya5aUa6an",
"#c#c#c#c#c#c#ca1a7#c#c#ca8a7a7a9#c#cew#c#c#c#c#c.J#d.kb#Qt.v.k.4.k.kQtQtQt.nba.m.v#sQt.u.BQt.#.6#c#c#c#c#c#c#c#c#c#c#c#c#caabbbc",
"bda9#c#c#c#c#cbebfbfbgbhbibgbhbqa8#c#c#c#c#c.J.B#H#s.o.b.c.b.n.c.c.i.l.m.c.m.n.n.bQtQtQt.v.k#w#5.6bj.J.6.S.I.I#c#c#c#c#c#c#c#ybB",
"#cblbibdbmbnbnbnbnbobobpbqbm#ca1a8brbs#c#c#c#c.Hbt#Pbu#P.m.m.c.d.d.i.o.g.c.d.c.n.b.n.v.m.c.c.n.l.m.l.b.b.#.K.ybv#c#c#c#ca8bhbwbx",
"#c#c#cbybobobzbzbobobAbhbgby#c#c#cbB#c#cbCbD#c#ca2.Abv.#.v.l.c.o.d.f.f.p.D#k#k.r.ibE.F.c.cd0.c.c.c.b.vbt.Y.ya2bFa2#ca1bfbGbHbIbJ",
"#c#c#c#cbybobKbKbGbpbq#c#c#c#c#c#c#c#c#cbQ#c#c#ca2bL.J#l.mbEbM.s.N.NbNbO#mbNeJ.s.MbQ.c.l.k.bbR.n.jbSbT#c#cbOfQbVbfbnbqbobHbcawaE",
"#c#c#ca8#cbWbXbqbqbAbY#c#c#c#c#c#c#c#c#c#c#c#c#c#c#5bZb0b1bP.NbNbNbNbNbNb2bNbN#m#m.9.o.cQt.K.B.y#c#cb3b4b5bmbrbobKbIbKbJb6bcawan",
"#c#c#c#cbgbh#c#c#c#c#c#c#c#c#c#c#c#c#c#c#c#c#c#ca2.K.jb7.k.c.c.g.2b8.r.ib9.e.g.qc.b9.o.d.c#qbE#c#c#cbyc#a2cabhbfbnbqbGcbawcccdao",
"#c#c#c#cb4a8a8bY#c#c#c#c#c#c#c#c#c#c#c#c#c#c#c#ccf.6.b.l.i.d.l.c.o.o.h.q.r.d.tcg.E.Cch.p.sbO#ma4bFb.a2bDbrcibfbmbncjaTaockaP#M#Y",
"bqbpbGbobGbnbmbrcl#c#c#c#c#c#c#c#cbF#c#ca2bFb3bN.L.Ecm.M.M.D.L.Ler.s.NbPbNbUbObObOcn#mb5cobrbrbrbpbmbKcpcqancdaVcrcsctcucv#1cwaB",
"bHcxcyczcAcBcCbGcDbeb.dBa2bFa2a2bFcEby#ccicncicFcGcncGcnbNbOb5cGcGcobVcGbmbnbrcibobIcHcIcIcpcJcqawawcdcccKa#ao#E#YakaBcLaqaBcLcM",
"bJcNcOcPcQcRczcScTcUbVbU#mbP#mcVbFcWcX.9b2lc#m#mbUbVbfcFb5cobfbmbrbpbzcYcZc0bpbnbpbzc1c2c3c4cJcbcpbcbcbcawaEcccKc5aPa6alc6c7alav",
"c8c9czdYd.d#dadbdcbqcib5cndd#mbPbN.NbPbNbUcnb5#mb2bNco#m#m.Nb2.N.N.NdebObOkLbPbNcFbrc0bzbGbobnbGdfdgdhdidjaNbcawkscxawdkdlbcawcc",
"dmdndocRdpcRczdqdrdsdtduc1dvdwbmcibrcncnbnbobmcocGbfbnbqbnci#mbNbNbPbPbPbP#mcicFbrbobnbrbobzcpaTdxdydzdAdBcjcebsceby#c#cbsdCdDaT",
"dEdFd.cQdGdHcPdadndIdJdKdLdMhgbHbqbmbncibndNbGbnbmcibmcFbfcicocncFcicicUbfcUbrbobobobobobobqbqbnbgbAdCdOce#c#c#c#c#c#ckv#c#c#cbw",
"d#dPdQdFdRdodadodqdSdmdTdUdVdWdWbmbnbncibnbfbrdXdYdZd0d1bfcicibncFcicUbnbnbobobGbGbobGbIbzd2d3byce#c#c#c#c#c#c#c#c#c#c#c#c#c#c#c",
"d4d5d6czkad8d9e.e#czead9ebecedeeefegeheiejdrdrekeld6emeneoepeqeherbmbmbobGbzbKcjcjbnbmbnbresa2#c#c#c#c#c#c#c#c#c#c#c#c#c#c#c#c#c",
"dneteueveecPewex.RcQeyezezcQeAeBeCeCeCeDeEeFbleFexeHeIeCeJeKeIczeLczeMdaeNeOcAePeQeReSeTcUbD.j#ca2#c#c.I#c#c#c#c#c#c#c#c#c#c#c#c",
"eUeVeWeleXeycQdHeAexdpcQeAeYeZeZe0e1e2e3e1e1e4e4e5e4eZeZe1e6e7e8e9f.f#e3fafbfbfcfdfefffgdk#0#c#c#c.U.H.V.V#c#c#c#c#c#c#c#c#d#c#c",
"cicibpeqdqeXfhcQfGcQdPd#dFd.fieYfjfkeBdGcQcQeaflfmeBeBfnfoedfpfqfpfrfse.dQfufvfwfxfyfzcFfA#e.##c#c#c#c#c#c#c#c#c#c#c#ca2.I.I.H.a",
"eqcUfBdmdIfCfDfEdGd.eXdodFdGfFeAeZfGfHfIfEfHfiexdGeyfJeGe#fKdIdSekdrfLfMfNd6fOfPfQlidebNfRQtQt.W.H#c#c.I#d.H.I#c#c#c#c#ca2.U#la2",
"bUfSfT#mfFfUfVfWfbfXdGfYfZfWf0f1f2f3f4f5f6f7f8f9g.g#gagbgcgdgefJgfgdgcggeHghfNdVevgjbrbU.9.b.k.#.m.a.vgkQtQt#b.H.V#c#c#c#c#c#ckX",
"fLdRglgmgngogpgqf7grgsgtgugvgwgxgygzgAgBgCgCgBgDgEgFgGgHgIgJgKgLgMgMfsgNfogOfNgPgogRde#pb8.n.c.m.lcm.c#q.QgS.7gT#m#c#c#c#c#c#c#c",
"gUfWgcgVgWgXe7gYgZg0g1gGgHg2gngng3g4g5g6g7g8cmh.gMh#hahbhc#k.D.D.D.NbUcFhdhehfhghh#k.g.c.c.c.i.c.G.r.t.L.DbP.7.NcVhib.#uhj#ua2a2",
"hke#hlhmgXe4e1gbhngGgfhoexgNhph.hqhrhshthuhehv.s.N.D.D.D.f.f.f.f.g.f.f.g.f.f.g.g.g.g.e.g.i.c.i.XhwgS.N.NbPbPbObPbPcVhxhy#mhz.1b8",
"bzhAhBcPhChDg6hEhFhGhHbpcUcGcnddbObP#k.q.N.qhI.p.ef5.f.f.f.f.f.f.f.f.f.f.f.e.e.e.d.e.e.c.l.chJ#phKhL.N#mbUcUbobrbN.NhMhN.i.R.i.c",
"cUbKhOhPeXhQcYbKc0bKbobocib5cVbN.NbPbM.Nki.G.w.fhI.f.f.f.f.f.f.f.f.f.f.f.f.f.f.f.f.e.f.f.dcg.s.N.w.N.NbPbObqd2hRb8.x.chy.fd..g.i",
"bUbmbzhShThUbKbpbncicicib5debUbN.N.N.w.q.q.f.t.f.f.f.f.f.f.f.f.f.f.f.f.f.f.f.f.f.f.f.f.q.N.N.NbNbNde.NbPbk.NhVhW.h.f.f.d.h.f.h.h",
"#mcnbfbnbGbIbobfcicicncicibU#m#mbNbPcm.N.N.Mcg.f.qhI.f.f.f.f.f.fbK.f.f.f.f.f.f.f.w.N.NiZbNbUb2.N.NhXhYhZh0h1h2h3cnbmbU.q.f.f.f.f",
"h4fTh5h6h7h8dlbncicib5cicFb5#mbNbN#mbPbN.N.N.w.N.q.p.q.q.f.f.f.f.f.f.f.f.f.f.w.Nh9i.i#iaibicidieieifeCigeLgOih.9.D.f#k.f.f.f.f.f"};
