/* XPM */
static char *dummy[]={
"64 64 623 2",
".d c #00002c",
".m c #00002d",
".l c #00002e",
".c c #00002f",
".G c #000030",
".# c #000031",
".q c #000032",
".K c #000033",
"Qt c #000034",
".p c #000036",
".w c #000037",
".o c #000039",
".x c #00003a",
".I c #00003c",
".y c #000040",
".b c #000f34",
".a c #000f36",
"#g c #000f37",
".e c #000f39",
".B c #000f3a",
".D c #000f3c",
".F c #000f3d",
".V c #000f40",
".H c #001033",
".S c #001035",
".k c #001037",
".f c #001039",
".M c #00103a",
".X c #00103c",
".C c #00103d",
".u c #001040",
".N c #001f37",
".g c #001f39",
".A c #001f3c",
".r c #001f40",
".Y c #002039",
".E c #00203a",
".n c #00203c",
".J c #00203d",
".v c #002040",
".z c #002f3c",
".t c #002f40",
".s c #00303c",
".j c #00303d",
".i c #003040",
".h c #004040",
".L c #004545",
".U c #004646",
".P c #004b4b",
".R c #004c4c",
".O c #005151",
".T c #005252",
".Q c #005858",
"cZ c #073838",
"#Z c #083737",
".W c #092936",
"#0 c #0a3a3a",
"al c #0a3b3b",
"cC c #0b3b3b",
"#Q c #0b3c3c",
"el c #0b4242",
"b2 c #0c3b3b",
"#H c #0c3d3d",
"bn c #0c4747",
"a# c #0d3d3d",
"cb c #0d3e3e",
"aA c #0d4343",
"bG c #0d5050",
"bo c #0e4343",
"aB c #0f4545",
"bb c #0f5151",
"bg c #105151",
"bi c #115353",
".1 c #115454",
"bN c #125353",
"bq c #125454",
"bm c #135454",
"am c #153636",
"aC c #163636",
"an c #163737",
"#P c #173838",
"cj c #183737",
"cD c #183838",
"ao c #183939",
"#R c #193939",
"cr c #194646",
"#I c #1b3c3c",
"c0 c #1c2d2d",
"b5 c #1c3b3b",
"ba c #1e3d3d",
"c1 c #1f3030",
"ao c #1f4040",
"b3 c #1f4545",
"cm c #1f4646",
".0 c #1f4c4c",
"bc c #204b4b",
"aD c #213131",
"bF c #214d4d",
"bE c #214e4e",
"bV c #224242",
"be c #224d4d",
"#1 c #233333",
"c. c #234343",
"bA c #234e4e",
".5 c #235050",
"aq c #243434",
"aE c #243535",
"ch c #244444",
"ci c #244949",
"b8 c #244f4f",
"#. c #245050",
".2 c #245151",
"bd c #255050",
"c2 c #263636",
"bZ c #265151",
"bH c #265252",
".4 c #265353",
"cf c #275252",
".3 c #275353",
"fP c #285353",
"bw c #285454",
"ca c #293939",
".8 c #295656",
"ce c #2a5555",
"as c #2b3b3b",
"bM c #2b5858",
"cd c #2c5858",
"b9 c #2d3d3d",
"eK c #2e3d3d",
"aQ c #2e4343",
"#S c #2f3f3f",
"bj c #2f4444",
"co c #2f4646",
"ap c #303030",
"bf c #304545",
"cc c #305b5b",
"#2 c #313131",
"ct c #314141",
"ar c #323232",
"a8 c #324141",
"cu c #324242",
"bk c #324747",
"cs c #324848",
"at c #333333",
"cg c #334848",
"aG c #343434",
"bl c #344a4a",
"#3 c #353535",
"cp c #354b4b",
".6 c #354c4c",
"aF c #363636",
"br c #364c4c",
"fx c #364d4d",
"dd c #373737",
"b# c #374c4c",
"bI c #374e4e",
"aa c #383838",
"bB c #384d4d",
"bL c #384e4e",
"fu c #384f4f",
"ck c #393939",
"ds c #394949",
"b4 c #394f4f",
"b1 c #3a3a3a",
"bY c #3a4f4f",
"#4 c #3b3b3b",
"bu c #3b5151",
"de c #3c3c3c",
"bX c #3c5151",
"## c #3c5252",
"aH c #3e3e3e",
"#h c #3e5454",
"#5 c #3f3f3f",
"au c #404040",
"ab c #414141",
"cl c #415656",
"a7 c #424242",
"#J c #434343",
"#T c #444444",
"aS c #454545",
".e c #455b5b",
"aR c #464646",
".# c #474747",
"bz c #484848",
".a c #494949",
".e c #4a4a4a",
".a c #4b4b4b",
".a c #4c4c4c",
".# c #4d4d4d",
"#V c #4e4e4e",
".9 c #4f4f4f",
"av c #505050",
"aI c #515151",
"b. c #525252",
"#a c #535353",
"#z c #545454",
"#W c #555555",
"gx c #565656",
"#L c #575757",
".p c #585858",
".p c #595959",
".p c #5a5a5a",
"#d c #5b5b5b",
".p c #5c5c5c",
"#b c #5d5d5d",
".p c #5e5e5e",
"#c c #5f5f5f",
"ad c #606060",
".p c #614d3c",
".9 c #616161",
".p c #626262",
"#c c #636363",
"#q c #646464",
".I c #656565",
".G c #665a50",
".I c #666666",
".Y c #676767",
"ef c #685c51",
".3 c #685c52",
"bh c #686868",
"#N c #696969",
".I c #6a5543",
"#k c #6a6a6a",
".I c #6b5441",
".I c #6b5e55",
".F c #6b6b6b",
".I c #6c6c6c",
".G c #6d6d6d",
"d3 c #6e6e6e",
".p c #6f6259",
"ae c #6f6f6f",
"an c #707070",
".p c #717171",
"aw c #726359",
".p c #727272",
".6 c #735a47",
".p c #737373",
".J c #74675d",
"aP c #747474",
"aV c #757575",
"aP c #764c28",
".I c #767676",
".I c #775b47",
"#U c #775d4a",
"#j c #775e4a",
"bb c #775f4b",
"e3 c #77675e",
"bh c #777777",
"ex c #785e4a",
"#L c #787878",
"aR c #794d29",
".p c #794e29",
"#E c #795d4a",
"ed c #79604c",
"#t c #797979",
"fp c #7a5f4b",
"ah c #7a7a7a",
"Qt c #7b4f2a",
"bF c #7b7b7b",
".i c #7c634f",
".l c #7c7c7c",
"bJ c #7d502b",
"cF c #7d5f4c",
".I c #7d7d7d",
".H c #7e7e7e",
".Q c #7f604d",
".H c #7f614e",
".p c #7f7f7f",
".p c #808080",
".p c #818181",
".p c #836350",
"Qt c #837267",
".G c #83746a",
"Qt c #838383",
"Qt c #84532e",
"Qt c #847368",
"Qt c #848484",
"Qt c #856552",
"bs c #868686",
"#g c #87552f",
".d c #875e3f",
"#x c #876753",
"fo c #876a56",
"Qt c #878787",
"aj c #888888",
"Qt c #895e41",
"#o c #898989",
".p c #8a6042",
".p c #8a8a8a",
"bS c #8b5931",
"cf c #8b8b8b",
".g c #8c5831",
"bu c #8c8c8c",
"#h c #8d8d8d",
"bt c #8e6345",
"#g c #8e8e8e",
".p c #8f8f8f",
"Qt c #905a33",
".p c #916648",
".p c #91725e",
"bi c #919191",
"#g c #925b34",
".2 c #925c34",
"Qt c #929292",
".p c #93715b",
"cb c #938377",
".x c #939393",
"bd c #949494",
".r c #955e36",
"b. c #959595",
".p c #967561",
"a3 c #969696",
".p c #975f37",
".u c #976749",
"bP c #989898",
".p c #996038",
"#g c #999999",
"bn c #9a6138",
"#g c #9a9a9a",
"a1 c #9b6139",
"br c #9b9b9b",
"#h c #9c6139",
"c. c #9c9c9c",
"eA c #9d623a",
"#g c #9d7b65",
"Qt c #9d9d9d",
"cj c #9e623a",
"fh c #9e9e9e",
"gK c #9f633b",
"#8 c #9f9f9f",
"eC c #a0643c",
"Qt c #a0a0a0",
"Qt c #a1643c",
"cF c #a1653b",
"Qt c #a18d81",
"a5 c #a2a2a2",
"gq c #a3653d",
"b# c #a3663c",
"#w c #a3a3a3",
"bH c #a4663e",
".Z c #a47150",
"Qt c #a4a4a4",
"cT c #a5663d",
".M c #a5673d",
"ba c #a5a5a5",
"fT c #a6836b",
"Qt c #a6a6a6",
"c2 c #a7673d",
"bx c #a7826a",
".0 c #a7a7a7",
"Qt c #a8683f",
"gJ c #a8693f",
".5 c #a8a8a8",
"aG c #a9693f",
".M c #a9a9a9",
"f0 c #aa6a3f",
"#L c #aaaaaa",
"#h c #ab6a40",
"gw c #ab6b40",
"Qt c #ab6b41",
"az c #ababab",
"a4 c #acacac",
"hf c #ad6b41",
".H c #ad6c41",
"e7 c #ad6d41",
".y c #adadad",
"aN c #aeaeae",
"#i c #af6d42",
"fZ c #af6e42",
".d c #af8971",
"ev c #afafaf",
"Qt c #b06d42",
"cg c #b06e42",
"ay c #b0b0b0",
"Qt c #b1b1b1",
"da c #b3b3b3",
"eR c #b47044",
"e3 c #b47144",
"f. c #b4b4b4",
"fj c #b57245",
"ea c #b58f77",
"fk c #b6b6b6",
".E c #b77145",
"fL c #b77345",
"dq c #b7b7b7",
".i c #b87446",
"dC c #b8b8b8",
"aR c #b9815d",
"dP c #b9b9b9",
"#y c #ba7346",
"dk c #ba7446",
"bv c #bababa",
"cP c #bb937b",
"c4 c #bbbbbb",
"gs c #bc7447",
"ev c #bc7748",
"cX c #bcbcbc",
"cJ c #bd7547",
"bt c #bdbdbd",
"e8 c #be7648",
"di c #bebebe",
"f. c #bf7648",
"fv c #bf7748",
"dO c #bfbfbf",
"cO c #c0c0c0",
"f# c #c17749",
"cK c #c17849",
"eJ c #c19379",
"b8 c #c1c1c1",
"fa c #c27849",
"dD c #c2c2c2",
"fu c #c3794a",
"c5 c #c3c3c3",
"dh c #c4c4c4",
"cb c #c57b4b",
"e9 c #c67a4b",
"cL c #c67b4b",
"go c #c77c4c",
"cY c #c7c7c7",
"eY c #c87c4c",
"d. c #c89e85",
"dE c #c8c8c8",
"gu c #c97c4c",
"dR c #c9c9c9",
"dg c #cacaca",
"cM c #cb7d4d",
"db c #cbcbcb",
"g1 c #cc7e4d",
"fS c #cc7e4e",
"dN c #cccccc",
"gv c #cd7e4e",
"fn c #cdc4bf",
"dj c #cdcdcd",
"gt c #ce7f4e",
"cQ c #ce804e",
"eX c #ceab96",
"df c #cecece",
"dc c #d0d0d0",
"eH c #d1814f",
"do c #d2d2d2",
"eu c #d38250",
"fw c #d38350",
"g2 c #d48250",
"dk c #d5d5d5",
"eI c #d68351",
"dr c #d6d6d6",
"eK c #d7b29a",
"eL c #d7b39e",
"g4 c #d88552",
"dm c #d8d8d8",
"g8 c #d98452",
"gn c #d98553",
"gm c #d98653",
"eW c #d9cfca",
"du c #d9d9d9",
"dQ c #dadada",
"b5 c #db8553",
"hB c #db8753",
"aa c #dbbdac",
"g3 c #dc8854",
"dl c #dcdcdc",
"aT c #dd8754",
"ej c #ddd4ce",
"g5 c #de8754",
"g0 c #de8854",
"c9 c #deb9a3",
"fR c #df8955",
"dt c #dfdfdf",
"hy c #e08955",
"hJ c #e08a55",
"dB c #e0e0e0",
"g6 c #e18955",
"hL c #e18f5d",
"hK c #e1905d",
"c6 c #e1cabd",
"gl c #e28a56",
"gZ c #e38a56",
"hC c #e38e5a",
"hM c #e39362",
"dA c #e3dada",
"d5 c #e3dbdb",
"dK c #e3dedc",
"dn c #e4dada",
"dv c #e4e4e4",
"gk c #e58b57",
"f8 c #e59767",
"hS c #e59b6f",
"eQ c #e5d1c6",
"d1 c #e5d7d4",
"fb c #e68c57",
"fQ c #e68e58",
"fx c #e6925f",
"et c #e6b091",
"eV c #e6d5d2",
"eU c #e6d8d0",
"eT c #e6dad2",
"eS c #e6dad3",
"fm c #e7b89b",
"dX c #e7e2df",
"dx c #e7e7e7",
"fB c #e88e58",
"hR c #e89b6c",
"dz c #e8e2df",
"dJ c #e8e3e0",
"gY c #e98d58",
"fP c #e98f59",
"e# c #e9c1a9",
"ei c #e9d3c7",
"fG c #eb8f59",
"hx c #eb9059",
"fC c #eb925d",
"fA c #eb9561",
"f9 c #eb9865",
"hN c #eb9f71",
"d0 c #ebdbd8",
"dS c #ebdddb",
"dL c #ebdfd8",
"dM c #ebdfd9",
"dy c #ebe6e3",
"dG c #ebe6e4",
"g7 c #ec8e52",
"dI c #ecdfd9",
"dT c #ece7e4",
"dF c #ececec",
"fc c #ed915a",
"hw c #ee915a",
"fz c #ee9966",
"hQ c #ee9e6e",
"hO c #eea072",
"dV c #efe6e6",
"dW c #efeae7",
"en c #efebe8",
"gj c #f0935b",
"ek c #f0d9d1",
"d7 c #f0eae7",
"ht c #f1935b",
"f5 c #f19a67",
"hs c #f3955c",
"fd c #f39760",
"fO c #f39b65",
"eo c #f3e6de",
"c7 c #f4cfba",
"eP c #f4ded2",
"d6 c #f4e2d8",
"em c #f4e9e3",
"hv c #f59a5c",
"hI c #f59b65",
"hu c #f59d5c",
"g. c #f59e69",
"hP c #f5a575",
"hD c #f5a87a",
"g# c #f69b65",
"fD c #f6a06d",
"ep c #f7e5da",
"dY c #f7e5df",
"dH c #f7e8df",
"hr c #f8995e",
"fF c #f89d66",
"fH c #f89f6a",
"fE c #f8a26e",
"hH c #f8a572",
"gi c #f9a06b",
"gX c #fc9d63",
"fJ c #fc9f67",
"fI c #fca16b",
"hq c #fca25d",
"gh c #fca26c",
"fe c #fca470",
"hp c #fca665",
"fK c #fca673",
"gg c #fca977",
"fL c #fcaa78",
"ga c #fcab7b",
"hG c #fcac7c",
"ho c #fcad7c",
"fN c #fcae80",
"gW c #fcb080",
"gd c #fcb083",
"ff c #fcb183",
"hF c #fcb185",
"gf c #fcb387",
"hE c #fcb389",
"ge c #fcb488",
"fM c #fcb48a",
"hn c #fcb68c",
"fg c #fcb890",
"gV c #fcba94",
"gb c #fcbb97",
"hh c #fcbd98",
"eM c #fcbd99",
"gN c #fcbe9c",
"fa c #fcbe9e",
"gR c #fcbf9f",
"gc c #fcc19f",
"gM c #fcc1a1",
"gS c #fcc1a2",
"fl c #fcc29f",
"hm c #fcc2a3",
"eN c #fcc3a5",
"eQ c #fcc4a4",
"gU c #fcc5a7",
"gT c #fcc7a9",
"gO c #fcc9ac",
"hi c #fccbaf",
"gP c #fcccb0",
"fh c #fccdb2",
"fk c #fcceb5",
"hk c #fccfb5",
"#u c #fccfb7",
"fi c #fcd3bc",
"hj c #fcd4bd",
"aX c #fcd6c0",
"eO c #fcd6c1",
"e. c #fcd6c7",
"eR c #fcd8c4",
"hl c #fcdac7",
"er c #fcdecd",
"el c #fcdfd4",
"eq c #fcdfd5",
"dZ c #fce1d2",
"d8 c #fce3d5",
"d9 c #fce3da",
"dU c #fce4db",
"QtQt.#QtQt.#.a.#.b.#.#Qt.cQt.#QtQtQt.#QtQtQt.d.#.c.#.#fWQt.#.c.#.#Qt.c.#.e.f.g.h.h.i.h.h.h.h.h.h.h.j.h.e.g.kQt.a.aQtQt.#.##m.m.d",
"QtQtQtQt.nQtQtQt.e.o.a.aQt.p.qQtQt.aQtQt.pQtQt.cQtQtQtQtQtQtQtQtQtQtQtQt.o.g.r.s.t.i.u.v.v.v.h.h.h.h.p.e.w.a.w.xQtQtQt.c.m.l.m.d",
".y.i.v.r.z.i.r.h.t.h.i.n.r.h.r.A.s.B.o.C.B.aQtQtQt.BQtQtQtQt.#Qt.pQt.#QtQt.w.r.teo.s.D.A.t.i.h.i.h.E.a.F.D.aQt.xQt.G.lQt.m.m.d.d",
".h.h.h.h.h.h.h.h.h.h.h.h.h.h.i.h.h.t.h.h.h.s.rQtQt.w.pQtQt.pQtQtQt.qQtQt.p.x.p.p.A.f.h.h.h.h.t.h.x.E.h.i.a.a.kQtQtQt.d.c.G.l.l.d",
".h.h.h.h.h.h.h.h.h.h.h.h.h.h.h.n.i.h.h.h.h.h.iQt.a.EQtQt.k.q.#QtQt.#.q.#Qt.#.#.q.#.Hay.k.E.I.J.A.A.a.E.EQtQtQtQtQt.G.mQt.c.#.m.d",
".h.h.h.h.h.h.h.h.h.h.h.h.h.h.h.h.h.h.h.h.h.h.h.h.J.oQtQtQt.K.d.d.c.c.G.d.#.m.cQt.lQtQt.l.G.#.p.B.j.k.n.AQt.wQt.q.l.mQt.#.#.d.#.G",
".L.h.h.h.h.h.h.h.h.h.h.h.h.h.h.h.h.h.h.h.h.h.h.h.M.a.x.#.#.#.#.m.d.m.d.d.d.m.cQtQtQt.#f..NQtQtQt.k.#.a.aQtQt.l.d.c.c.c.m.G.#.c.#",
".O.P.L.h.h.h.h.h.h.h.h.h.h.h.h.h.h.h.h.h.h.i.i.DQt.k.#.b.aQt.m.l.d.m.#.c.GQtQtQt.#QtQt.a.g.a.pQtQtQt.pQtQtQt.m.m.#.G.d.cQt.cQtQt",
".Q.R.h.h.h.h.h.h.h.h.h.h.h.h.h.h.h.t.h.h.h.z.i.eQt.a.o.bQt.m.d.d.m.cQt.q.q.G.c.#.G.#.pQt.a.#.a.eQt.E.S.cQtQtQt.bQt.a.pQt.#.#QtQt",
".T.U.h.h.h.h.h.h.h.h.h.h.h.h.h.h.h.i.h.i.A.i.j.EQtQtQt.#.kQt.d.d.G.G.G.G.d.l.d.m.G.cQtQtQt.b.JQt.wQt.s.E.p.V.W.h.h.h.h.h.E.z.s.D",
".h.h.h.h.h.h.h.h.h.h.h.h.h.h.h.h.h.h.i.h.s.gQt.bQtQtQtQtQt.#.G.m.c.q.m.c.d.c.m.c.c.m.#.qQt.GQt.b.e.kQt.a.h.h.h.h.h.h.h.h.h.h.h.h",
".U.L.h.h.h.h.h.h.h.h.h.h.h.h.h.h.h.h.s.h.s.X.g.pQt.a.pQtQtQtQtQtQt.GQtQt.oQt.pQtQt.qbr.o.#.c.e.i.i.h.h.h.h.h.h.h.h.h.L.h.L.h.h.h",
".O.Q.P.P.L.h.h.h.h.h.h.h.h.h.h.h.h.h.j.k.e.s.s.kQtQt.gQt.a.Y.n.g.g.g.n.s.h.h.t.g.i.A.a.h.g.g.h.h.h.h.h.h.h.h.h.h.P.P.Q.Q.O.Z.P.0",
".Q.Q.Q.Q.O.L.h.h.h.h.h.h.h.h.h.h.h.h.h.A.e.J.o.bQt.D.fQt.g.h.i.h.h.h.h.h.i.iah.h.t.t.h.B.A.h.h.h.h.h.h.h.h.L.P.1.2.3.4.5.6.7.8.9",
".Q.Q.Q.Q.Q.Q.O.L.h.h.h.h.h.h.h.h.h.h.i.h.h.z.A.s.g.g.h.z.haj.h.h.h.h.h.h.j.A.i.i.h.h.i.h.t.h.h.h.h.h.h.L.P#..3###a#b#c#d#e#b#b#f",
".Q.Q.O.Q.Q.Q.T.L.h.h.h.h.h.h.h.h.h.h.h.h.h.i.vcz.h.h.i.h.h.h.h.h.f.h.h.E.A.s#g.h.h.h.h.h.h.h.h.h.L.Q.1.3#h#d#i#j#k#i#l#j#m#n#o#p",
".Q.Q.Q.Q.Q.Q.Q.O.O.h.h.h.h.h.h.h.h.h.h.h.h.h.h.h.h.h.h.h.h.h.h.t.i.J.h.h.h.s.A.i.h.h.h.h.h.h.L.O.1#a#q#r#j#s#t#t#teH#u#v#w#x#x#y",
"bn.T.Q.Q.Q.Q.Q.Q.Q.L.Q.O.L.U.h.h.h.h.h.h.h.h.h.h.r.r.h.h.i.h.h.h.h.h.h.h.h.h.h.h.h.h.h.h.h.h.Qgu#z#b#j#j#j#A#B#C#B#D#u#E#F#y#y#G",
".Q.Q.Q.Q.Q.Q.Q.Q.Q.Q.Q.Q.U.U.h.h.h.h.h.h.h.h.h.s.h.h.i.i.i.h.h.h.h.h.h.h.h.h.h.h.h.h#H#I.O.1#J#K#L#b#q#M#i#N#u#v#s#O#v#B#B#B#B#B",
".Q.Q.Q.T.Q.Q.Q.Q.R.R.L.h.h.h.h.h.h.h.h.i.h.h.h.i.h.h.h.h.h.h.h.h.h.h.h#P#P#P#Q#R#I#S#T#U.7#V#W#e#e#c#q#q#l#t#v#C#p#p#v#C#X#Y#Y#B",
".Q.Q.Q.Q.O.Q.R.U.L.h.h.h.h.h.h.h.h.h.h.h#Z.h.h.h.h.h.h.h.h.h.h#0.h#1#2#I#3#4#5#J#K#V#W#b#b#6#r#r#A#m#7#m#t#v#C#8#w#y#C#9#C#Ea.#B",
".Q.Q.O.U.h.h.h.R.U.h.h.h.h.h.h.h.h.h.h.h.h.h.h.h.h.h#Qdta##Iaa#5#5ab#Jac#V#a#a#a#dadae#A#u#Yafaf#8#8#8#8#8agahai#x#w#9#E#Bajak#A",
".O.Q.L.h.h.h.h.h.h.h#Q.h.h.halalaman#Pao.h#Papaqarasatauav#a#W#Wav#a#W#L#c#q#c#q#j#n#Cagahawaxaxayaxaw#x#xahaxayaz#xaf#X#B#n#O#j",
".L.LaA.OaB.h#I#I#QaCaDaEaC#2#2araFaGataFaaaHaH#J#UaI#a#eaJ#j#M#q#b#r#j#l#Odw#maK#v#9#yaLaLaLag#wagaxaMaiaN#xaiaOaP#y#Y#v#B#t#s#s",
"aQ#U#U#JaR#UaSau#JaSaHau#U.7.7aT#UaT.7av.7#a#eaU#M#q#iaV#je7#i#r#iaW#u#B#p#8ai#y#Xa.#B#v#Y#Y#Ea.#E#Y#X#E#C#X#C#C#v#Y#C#X#X#B#t#u",
"aXaXaI#W#WaI#eaIaI#aad#f#qaY#b#e#eaJ#M#qeE#b#c#M#6#q#q#q#j#i#l#N#t#B#Y#C#C#F#Ea.#B#B#B#B#B#Ba.#BaW#n#B#B#B#B#B#vaZ#naZaZ#uaj#DaZ",
"#d#f#r#raJaU#q#q#rae#t#A#6e5aUa0a0#q#k#M#q#qad#baY#baU#q#k#j#laW#7#Aa1aZ#u#p#p#9#9#8#9#Y#B#v#C#B#u#p#C#p#v#C#Yaja2#j#j#i#i#j#i#j",
"aV#kaV#j#k#M#j#j#la2#kaY#b#c#da3#W#Wa4aY#daYa4#Wa4a4#Wa3#bad#M#j#j#j#AaK#Y#C#yaf#C#9af#9#C#8a5#8#C#8#9#C#Eaj#maWaV#6#q#i#6#q#q#6",
"#6#q#qaUaJadada6ada0#ba4a3avaXa7a8aHaX#K.7.7.7#K#K.9aXa3#L#e#q#r#j#s#p#E#E#v#B#E#v#8aiayaz#X#9aNaPa9#EaKa1#7a2#i#r#i#i#r#j#O#s#B",
"b.avb.b.avaI#aav#K#KaRaX#Jb#ba.L.RaBbbbcbdbebcbfbg.Qbcac#W#e#q#i#O#D#va1#jak#v#p#8aPaL#y#X#B#B#Da1aVbhad#i#O#A#Bak#s#j#O#B#B#p#v",
"bibjbkbe#Tblbm.Q.Q.Q.Qbg.Obn.h.h.h.h.R.Q.Q.Q.Q.Q.O.Q.Q.Q#V#L#b#q#k#k#j#jaW#u#Y#9#x#w#C#9#E#m#k#k#qad#e#b#j#A#B#D#N#AcG#p#X#v#D#7",
".R.R.R.L.Rboe4.O.P.L.R.O.U.h.h.h.h.h.P.P.L.O.L.Q.Q.Q.Q#.b.#W#zaI#e#Mae#m#t#XaL#xaP#X#X#v#naW#kaddla0#d#qbh#M#i#NakaZa9#Ybp#7#i#l",
".h.h.h.h.h.h.h.P.h.h.h.h.h.h.L.h.h.h.h.h.L.O.Q.Q.QbqbraI#L#W#eada2bs#CaLawbtaPaf#Cbp#m#jak#ja6#La4#da0#b#f#6#OaWaVad#iaW#j#j#i#A",
".h.h.h.h.h.h.h.L.h.h.h.h.h.h.h.h.h.h.P.h.P.Q.Q.3bu#a#dae#m#m#n#B#C#waLawbvcQa.aZ#n#s#t#sa2a6#e#W#c#qaW#n#B#u#D#fb.av#za4a4a6#M#c",
".h.h.h.h.h.h.h.h.L.h.L.L.h.h.h.h.h.h.P.Q.Q.Q##ad#c#q#l#u#v#u#8#way#x#xayaN#w#9#uak#s#l#k#qa0aJ#A#v#G#wai#9a.a2#e#K#UaXaI#W#z#VaX",
".h.h.h.h.h.h.h.h.P.L.U.h.h.h.h.h.P.Q.Q.QbwaYaWbs#7#m#paf#Y#v#8ahaxay#y#y#ybxaf#C#p#uaVad#qaW#u#C#xaNaMaN#G#n#jbyaX#U#KaI#VaXbz#U",
".h.L.Q.Q.O.O.O.P.L.L.L.h.h.P.P.O.1bAbB#W#q#n#E#Ebx#y#w#Gbx#p#9#xaN#xaf#Y#C#C#Yaja1ex#ia2aK#Y#C#w#xaf#9#XaZ#Oaea0avaX#K#K#K#K#UaX",
".L.Q.Q.Q.Q.Q.Q.Q.Q.P.L.h.h.O.Qbi#a#d#eaU#q#M#6#l#s#u#B#B#B#Y#wahaP#w#xahazafajbCa6#M#l#t#CbD#B#9#8#9#Ebp#s#s#sae#raU#W.9#z#W#W#d",
".Q.Q.Q.Q.Q.Q.Q.2.Q.Q.Q.Q.L.Q.QbEaX#e#b.badad#i#l#u#B#BaZaZ#E#C#C#Cdn#C#X#EaZa2#q#q#r#laK#p#p#v#CaP#X#na2#j#s#uaZa2#qa0#d#M#r#i#j",
".Q.Q.Q.Q.Q.QbFav.Q.QbbbG.5bHbI.a#d#b#ba0#b#i#N#AaWaWaW#O#t#8ai#w#C#X#FajbCa6a0by#dadaJ#DaZaZ#ua9a9#n#OaV#j#s#D#AbJbK#r#i#l#Oak#N",
"#.bL.6.8bMbdbN.7bO.6aIa0#MbPae#qaJ#c#Wa0#b#j#s#m#l#e#Wae#B#Ea9bQ#N#6bhaUa4aIa0.cb.#K.7.7.9ava4#q#kaW#j#j#Naj#B#u#t#u#B#B#B#B#v#u",
"#L#b#q#AaWad#z.9b.#z#b#r#A#u#s#obR.jbC#t#D#laV#jaV#qaUaYa4a4#aaIaXaX#bbSbTbU#b#a.9#TaHbVa7#J.7#a#b#q#kbh#k#l#jbCa1a2aW#7.ibQ#l#k",
"#W#b#j#p#paWaJ#a#zaI#z#ebh#s#p#w#w#DbWbh#abXbLbYbZav#VaSaS#UaXaX#K#Wadb0#MaJadb.#Ub1b2.hb3b4#Lad#M.lad#ba0#ea3#z#Wa4#L#aaXabaHb5",
"#e#b#q#u#YaZ#fa0a3bBaXb6.9b.b7b.bYb8.Q.Qbg.Q.R.L.RaB.R.R.OabaRav#W#zb.#e#eada3bz#Jb9c.b3aSaI#e#M#j#s#jad#zaX#T#5aHaFc#baca#Hcb.h",
"#eaUaU#dcccdcecfcg.Q.Q.T.R.R.R.U.h.h.h.h.h.h.h.h.h.h.h.h.h.L.hb9ab#Tchcibd#K#Kavav#K.9#LaUada0by#c#k#j#baXbz#J#3#2cj.h#Qck#JaX#T",
"clb6bZbN.Q.T.U.R.h.h.h.h.h.h.h.h.h.h.h.h.h.h.h.h.h.h.h.h.h.hcbaBcmcnco.6cpcqaX#K#K#K.M#a#z#W#L#baJ#M#b#W#W.7bzaa#3b1#5.7#LaJ#e.9",
".T.R.U.h.h.h.h.h.h.h.h.h.h.h.h.h.h.h.h.h.h.h.h.h.h.h.h.h.h.hcrercpcsaX#K#KaI#L#a.7.9aIa6#k#7aW#m#l#6ada0a4.9#V.7#V#LaY#i#iae#r#f",
".h.h.h.h.h.h.h.h.h.h.h.h.h.h.h.h.h.h.h.h.h.h.h.h.h#Q.hcbctcuaS.7#LcV#L#W#W#eaJaU#i#A#i#A#o#v#B#vbWaY#dcvcwcxcyczcAcB#u#BbR#p#C#9",
".h.h.h.h.h.h.h.h.h.h.h.h.h.h.h.h.h.h.h.h.h.h.h#QcCcDaH#K#d#c#b#i#naWhh#f#faJae#A#u#B#taK#x#E#uaWcEcFcGcHcIcJcKcLcMcN#paf#xahawcO",
".h.h.h.h.h.h.h.h.h.h.h.h.h.h.h.h.h.h.hal#0#P#2aGaa#T#KgG#q#q#rakaW#i#s#v#o#v#p#8#Gaf#Ga5ai#8cPcQcLcRcScTcUcVcW#Y#C#C#C#y#xaycXcY",
".h.h.h.h.h.h.h.hcC#Q.h#0cCcZ#Pc0c1#Pc2aFauauaa#JaT#L#M#mafa5efaf#pbRaf#8a5c3c4c5cYcYc5cYc6c7c8c9d.#pbs#tafag#8#8d##xazdacYcYdbdc",
".h.hb2#QatddauaSabaH#4aH#5#5#3aHde#U.F.7aT#U.7#L#6#m#Xdac5dfdgdgdhdidjdjdkdldldldldldmdldndldodkdkdpdpdqdhcYcYcYdododldmdmdldrdc",
"chaSdsb.aIby#k.A#Ebha6#c#W.7bzau#JaSaSb.aJ#rae#l#Xd#agaiaycYdkdtdudldldldldldvdldtdldldldldldldldldldmdkdkdkdkdldldkdldldkdldmdl",
"#eaWaZ#u#saZ#Yayaw#p#Gaf#A#f#b#a#d#d#f#taLdpdwc3btdcdcdocOdfdmdxdtdtdtdydzdAdBdldvdldldBdldldldldldldldldldldldldldldldldldudcdf",
"#V#W#bad.v#M#k#Da9ayawcO#C#t#j#j#j#M#j#uafdCdCayaydDdEdbdkdxdxdFdFdFg5dFdFdHdzdldIdJdldKdLdAdldMdldrdNdDaxai#y#y#wahbvdDdOcX#yax",
"#5#K#Kav.9av#z#c#udPdBdQdR#8#j#k#j#j#k#k#DcX#s#u#8dPcYdodrdSdTdvdUdVdFdFdWdXdydYdZd0d1c4#8#E#BbsbC#j#cb..9aX#UbzbzbzaXacgfa4aJ#b",
"#5#5au#T#J#Kava4d2bQakd3#q#c#badad#da4#L#q#O#B#s#vd4cOdmdldld5dldodcd6dFd7dFd8d9e.e#eaebaeaJheb.#z.9aX#K#Uaub1b1aaddaub1auau#5au",
"#3#4#Jbz#K#KaX#KbzaX#U#K.7a4ecedeeefegedeh#l#p#v#u#X#waybvdpeiejekelemeneoepeqereseteuevewexaUa0a0#e#W.7#UbzauaaaaaF#3#3aG#3#3b1",
"au#JaS#K.7aI.9#K.9aI#LadeyezeAeBeCeAcHeDeEeFeGeHeIeJeKeLeMeNeOePeQeReSeTeUeVeWbtaMeXeYeZe0a0a0#ea0#c#c#e.9aX#JaFaFb1#5#U#Tbz.7aI",
".9aI.9#We1e2e3e4e5e6e7e8eYcMe9f.f#f.faeYeIfbfcfdfefe#3fgfhfifjfkflfmaxaN#yayfnaxaga9aZfogs#b#c#j#q#ba0a4#z#KaXde#Jbz.7#a#V#a#L#W",
"fqfrfsftfufvfwfxfyfzfAfBfCfAfDfEfFfBfBfGfHfIfJfIfefefKfLfMfNfOfPfQfRfSfTfU#DaZfVfWfXfYfZeDf0.Kf1b0a0#Lb.#K#Kbzbzbz.7f2f3f4f5f6f7",
"f8f9fAg.fKg#gagbgceMgbffgdeMffgegffMgdggfefefefefeghfegigjfcgkglgmgngogpgqgrgsgtgugucMgugtgvfagwgxezgygzgAgBgCgDgEgFgGgHgIgJgKgL",
"gMgNfMgefKfEgbgOgPgQgRgSgTgTgQgUgTgQgVffgWgWffggfefIgXfcfGgYgZg0g0gvfafvfvg1g2g3g4g4d8g6g6g7g6g8eHg9h.h#hae5gKhbgwhchdcJcJ.Xhehf",
"gMgQhgeMhheMgTgPgTgThihjhkfjhlfjgPhmhnhofefefehphqhrhshthshshueshwhxhyg6hzhAhBhCf9hDhEhEhFhGhHhIhshxhJhKhLhLd5f8hNhOhOhPhQhNhRhS"};
