/* XPM */
static char *dummy[]={
"64 64 546 2",
"g. c #000020",
"eZ c #000024",
"f5 c #000026",
"cE c #000027",
".k c #000029",
"Qt c #00002c",
".# c #00002d",
".a c #00002e",
".b c #00002f",
".P c #000030",
".l c #000031",
"cW c #000032",
".Q c #000034",
".4 c #000036",
".5 c #000039",
"#H c #00003a",
".3 c #00003c",
"eK c #000f30",
".d c #000f34",
".H c #000f36",
"cY c #000f37",
".F c #000f39",
"cJ c #000f3a",
".I c #000f3c",
"#S c #000f3d",
"cC c #000f40",
".0 c #001035",
"#P c #001037",
"#R c #001038",
"cK c #001039",
"#J c #00103a",
"cD c #00103c",
"c9 c #001040",
"db c #001f35",
"cX c #001f37",
".R c #001f39",
".m c #001f3c",
"#5 c #001f3d",
".n c #001f40",
"fX c #002038",
"#Q c #002039",
"#F c #00203a",
"#w c #00203c",
"#7 c #00203d",
"#G c #002040",
".1 c #002f3c",
".e c #002f40",
"c5 c #00303a",
"c0 c #00303b",
".S c #00303c",
"#I c #00303d",
".T c #003040",
".h c #004040",
"## c #004545",
"#E c #004646",
".9 c #004b4b",
"#D c #004c4c",
"#e c #005151",
"aI c #005252",
"#a c #005858",
"#j c #005a5a",
"#h c #005d5d",
"ad c #005e5e",
"aH c #006060",
"#0 c #006161",
"aG c #006464",
"fA c #06061c",
"fB c #060620",
"f1 c #060623",
"f3 c #060624",
"cZ c #060627",
"fY c #060628",
"c1 c #060629",
".E c #06062b",
"aa c #06062d",
"dd c #06062e",
"c8 c #060634",
"c2 c #06162c",
"de c #06162e",
"c4 c #062631",
"#8 c #062734",
"es c #063737",
"gc c #07071f",
"fZ c #070723",
"da c #070728",
"fW c #070729",
".c c #07072a",
"c3 c #07072c",
"dc c #07072e",
"a. c #07072f",
"#9 c #071731",
"ao c #071732",
"#6 c #071832",
"ar c #072732",
"ap c #072738",
"dq c #072835",
".g c #072838",
".q c #073838",
"df c #08182d",
".p c #083737",
".G c #090933",
"c5 c #093939",
"aJ c #093a3a",
"aU c #0a3939",
"av c #0a3a3a",
"aF c #0a3b3b",
".U c #0b3a3a",
".j c #0b3b3b",
".C c #0b3c3c",
".W c #0c3b3b",
"cT c #0c3c3c",
"dm c #0d0d20",
"kp c #0d0d23",
"f9 c #0d0d24",
"a# c #0d0d25",
"fz c #0d0d26",
"c7 c #0d1d24",
"cU c #0d3c3c",
".O c #0d3d3d",
"cl c #0d3e3e",
"cP c #0d4444",
"#f c #0d5050",
"d. c #0e0e21",
"ff c #0e0e23",
"f2 c #0e0e24",
"fE c #0e0e25",
"dh c #0e1e2a",
"eA c #0e1e2b",
"c6 c #0e2f2f",
"#g c #0e3d3d",
"dY c #0e4f4f",
"ga c #0f0f1d",
"fF c #0f0f20",
"dj c #0f0f21",
"f4 c #0f0f22",
"fC c #0f0f24",
"ey c #0f0f26",
"di c #0f0f27",
"cV c #0f2e2e",
".f c #0f3030",
"#d c #0f4040",
"Qt c #0f4b4b",
".a c #0f5151",
".c c #0f5252",
"fg c #10101e",
"Qt c #101025",
"Qt c #101f26",
"aM c #102f2f",
"Qt c #104545",
".e c #104b4b",
".a c #105151",
"aq c #11222d",
"Qt c #112232",
".a c #113232",
"cc c #114d4d",
"Qt c #115353",
"Qt c #115454",
".a c #115656",
"ab c #115757",
"Qt c #115959",
".a c #123131",
"b# c #124e4e",
"Qt c #125353",
".a c #125454",
"as c #125656",
"#O c #125757",
"Qt c #125c5c",
".# c #133232",
"aR c #133434",
"Qt c #135454",
".a c #14141c",
"g# c #14141f",
"Qt c #141420",
"Qt c #142424",
"ge c #142525",
"aA c #143333",
"Qt c #145656",
".a c #145959",
"e0 c #151520",
"Qt c #153636",
".f c #16161d",
"do c #161621",
"Qt c #161623",
"Qt c #161624",
"eV c #162727",
"dD c #163535",
"Qt c #163636",
".a c #163737",
"#i c #165b5b",
"Qt c #17171e",
".a c #171723",
"fG c #172626",
"Qt c #172828",
".a c #173636",
".B c #173838",
"Qt c #18181e",
".# c #181822",
"ez c #181825",
"Qt c #182727",
"Qt c #183737",
"dF c #183838",
".r c #183939",
"Qt c #192929",
".a c #192a2a",
".2 c #193838",
"Qt c #193a3a",
".a c #1a2a2a",
"dx c #1a2b2b",
".8 c #1a3939",
"eD c #1a3a3a",
"Qt c #1a3b3b",
".a c #1a3f3f",
"cu c #1a4040",
"Qt c #1b1b22",
"Qt c #1b2b2b",
"dW c #1b3a3a",
"Qt c #1b3c3c",
"Qt c #1b4141",
"cw c #1b4242",
".e c #1c1c1c",
".# c #1c2b2b",
"dv c #1c2c2c",
"gf c #1c2d2d",
"cR c #1c3b3b",
".l c #1c3d3d",
".a c #1d1d1d",
".a c #1d1d24",
"aK c #1d2e2e",
".u c #1d3d3d",
".a c #1d3e3e",
"cb c #1d4a4a",
".a c #1e1e1e",
".M c #1e2d2d",
".# c #1e2e2e",
"dZ c #1e4343",
"ax c #1f1f1f",
".P c #1f3030",
"aZ c #1f4040",
".a c #1f4646",
"## c #1f4c4c",
".y c #202020",
"bC c #202f2f",
".a c #203030",
"#m c #203131",
".h c #203f3f",
"dX c #204040",
".a c #204545",
"#s c #204b4b",
".g c #212121",
"dE c #213030",
"eb c #213131",
"#s c #213232",
"#C c #214e4e",
"al c #222222",
"ao c #223131",
"#S c #223232",
"cA c #224d4d",
".7 c #232323",
"aK c #233232",
"a1 c #233333",
"eB c #233434",
"a7 c #242424",
"bg c #243434",
"bn c #244949",
"bE c #244f4f",
"br c #245050",
"aY c #245151",
"be c #252525",
"aX c #253535",
"bO c #253636",
"bU c #255050",
"b4 c #255151",
"dp c #262626",
".5 c #263535",
"#s c #263636",
"ce c #265151",
"dn c #272727",
".y c #273737",
"cq c #275252",
"cK c #275757",
"ds c #282828",
"#i c #283737",
"cU c #285353",
"aY c #292929",
"bL c #293838",
"cP c #295656",
"dn c #2a2a2a",
"bN c #2a5555",
".a c #2a5b5b",
"ag c #2b2b2b",
"ab c #2c2c2c",
".f c #2c3c3c",
"bC c #2c4242",
"aQ c #2d2d2d",
"dY c #2d3d3d",
"Qt c #2d5c5c",
"d7 c #2d6060",
"Qt c #2e2e2e",
"ec c #2f2f2f",
"en c #2f3f3f",
".a c #2f4646",
"ex c #303030",
".a c #304545",
".N c #313131",
".a c #314141",
"cG c #314747",
"e9 c #323232",
".a c #324242",
"fl c #324747",
"fK c #333333",
".K c #343434",
".1 c #344949",
"b. c #344a4a",
"gv c #353535",
"cr c #354545",
"gX c #354b4b",
"a8 c #354c4c",
"eK c #363636",
"bw c #364c4c",
"hs c #364d4d",
".X c #373737",
".y c #374c4c",
"iy c #374d4d",
"a7 c #374e4e",
"bs c #383838",
"jm c #384e4e",
"ba c #394949",
"hc c #394e4e",
"kp c #394f4f",
"Qt c #395252",
"cS c #3a3a3a",
"bj c #3a5151",
"dy c #3b352d",
"bf c #3b3b3b",
"#l c #3b5151",
"cF c #3c3c3c",
"bp c #3c5252",
"b8 c #3c5555",
"eE c #3d3d3d",
"b0 c #3e3e3e",
"bY c #3e5454",
"be c #3f3f3f",
"#3 c #3f5454",
"e6 c #403930",
"bZ c #404040",
"bX c #405656",
"f. c #413a33",
"b5 c #414141",
"bR c #415656",
"#2 c #415a5a",
"f7 c #424242",
"em c #433828",
"eL c #433c35",
"bg c #434343",
"b2 c #444444",
"#V c #445d5d",
"fk c #453d35",
"bT c #454545",
"cE c #464646",
"eU c #473e35",
"b3 c #474747",
"bu c #484848",
"d3 c #493928",
"e1 c #493b2c",
"bd c #494949",
"bb c #4a4a4a",
"bm c #4b4b4b",
"dH c #4c3c2b",
"eF c #4c463e",
"bc c #4c4c4c",
"bt c #4d4d4d",
"bq c #4e4e4e",
"eT c #4f453c",
"bk c #4f4f4f",
"bx c #505050",
"bs c #515151",
"e5 c #523f2c",
"#B c #525252",
"#u c #535353",
"dz c #543e25",
"by c #545454",
"dP c #553e25",
"e9 c #554332",
"bA c #555555",
"bK c #565656",
"ed c #574027",
"fr c #574128",
"e8 c #574332",
"fH c #574b42",
"bB c #574d45",
"br c #575757",
"bG c #585858",
"cH c #594f47",
"#x c #595959",
"#A c #5a5a5a",
"e7 c #5b4736",
"c. c #5b4837",
"b4 c #5b5148",
"#t c #5b5b5b",
"d4 c #5c4229",
"eM c #5c4634",
"en c #5c4936",
"bz c #5c5c5c",
"eS c #5d4938",
"#s c #5d5d5d",
"#L c #5e5e5e",
"et c #5f4a39",
"eo c #5f4b38",
"#W c #5f5f5f",
"eQ c #604a39",
"fl c #604c39",
"#p c #606060",
"eP c #614b3a",
"#q c #616161",
"bQ c #626262",
"fq c #634321",
"eR c #63482e",
"eN c #634b3a",
"e4 c #644c39",
"eO c #644c3b",
"#z c #646464",
"c# c #65472c",
"#y c #666666",
"dA c #674523",
"#X c #676767",
"ee c #684624",
"fJ c #68503b",
"cn c #686868",
"#r c #696969",
"fp c #6a4624",
"fn c #6a4b2f",
"fI c #6a523d",
"#M c #6a6a6a",
"fo c #6b4624",
"gh c #6b6b6b",
"fm c #6c4d32",
"cN c #6c523f",
"fN c #6c5340",
"fL c #6c543f",
"#Y c #6c6c6c",
"f# c #6d5542",
"bO c #6d6d6d",
"fK c #6e5641",
"ft c #6f4f34",
"bJ c #6f6f6f",
"fM c #705641",
"fy c #706056",
"bH c #707070",
"e3 c #714a26",
"ef c #724926",
"e2 c #724b27",
"fu c #725844",
"fx c #726258",
"bI c #727272",
"gi c #737373",
"cs c #74645a",
"fs c #754b27",
"dB c #754c28",
"fV c #75675d",
"gg c #757575",
"f8 c #767676",
"ct c #775b46",
"gm c #77675e",
"cI c #785338",
"fU c #79604c",
".R c #7a4e2a",
"fQ c #7a5739",
"gp c #7a5c49",
".G c #7a6a60",
"dI c #7b4f2a",
"dC c #7b502a",
".B c #7c4e2a",
".C c #7c5e49",
".z c #7d502b",
"gq c #7d512b",
"gj c #7d7d7d",
"d5 c #7e502b",
"fO c #7e522c",
"gC c #7f7f7f",
"ep c #80502c",
".q c #80512c",
"gl c #81614e",
"e. c #82522d",
"gr c #83542e",
"fT c #835c3e",
"gF c #848484",
".P c #85552e",
"gu c #86552f",
"a# c #87552f",
".w c #895730",
"co c #896b57",
"eg c #8b5731",
"eh c #8b5831",
"gt c #8b5832",
".t c #8b6c58",
"aE c #8c5a32",
"dK c #8d5932",
"aq c #8e5832",
"gs c #8e5933",
".5 c #8f5933",
"eu c #8f5a33",
"gv c #905a33",
"aD c #905c34",
"gn c #916648",
"ag c #935d35",
"fe c #937058",
"d9 c #945e36",
"eH c #955c35",
"ce c #955e36",
"gB c #959595",
"cg c #975f37",
"gE c #989898",
"cd c #996038",
"ev c #9a6038",
"eq c #9b6139",
"dR c #9d623a",
"d7 c #9e623a",
"d8 c #9e633b",
"Qt c #9f7960",
"gA c #9f9f9f",
".3 c #a0643b",
".N c #a0643c",
"dS c #a1643c",
".U c #a2643c",
".V c #a2653d",
".O c #a3653d",
"dU c #a4663e",
"gw c #a7693e",
"eI c #a8683f",
".T c #a9693f",
"ex c #aa6940",
"dV c #aa6a40",
"ao c #ab6a40",
"eW c #ad6b41",
"ci c #b06d42",
"#L c #b47044",
"#c c #b57144",
"fc c #b57245",
"gx c #b77145",
"cj c #ba7446",
"eX c #bc7647",
"cq c #c27a4a",
"gD c #c5b5ad",
"eY c #c97c4c",
"gy c #ca7c4c",
"gz c #d68a59",
"QtQt.#Qt.aQtQt.#Qt.b.c.b.d.e.e.f.g.h.i.h.h.h.h.h.h.h.h.h.h.h.h.h.h.h.j.h.h.h.h.h.h.h.h.h.h.h.h.h.h.h.h.h.h.h.h.h.h.h.h.h.h.has.h",
".aQt.k.aQtQtQt.b.l.l.d.m.h.n.h.f.o.p.q.h.h.h.h.h.h.h.h.h.h.h.h.h.h.r.s.t.u.v.w.x.y.y.h.f.z.A.v.B.h.h.h.B.B.C.h.h.h.h.h.h.h.h.h.h",
".#QtQt.DQtQt.#.E.l.F.G.H.I.h.h.h.h.h.h.h.h.h.h.h.h.h.h.h.h.h.h.y.J.K.L.M.J#x.J.u.u.u.N.t.K.K.K.K.K.M.K.N.N.O.h.h.h.h.h.h.h.h.h.h",
"QtQtQt.P.b.Q.l.l.Q.R.F.F.S.T.T.h.h.h.h.h.h.h.h.h.h.h.h.Uah.h.h.h.h.V.V.W.h.h.V.w.N.J.J.X.L.K.Y.K.M.t.u.K.K.Z.h.h.h.h.h.h.h.h.h.h",
".Q.0.Q.l.d.Q.Q.H.R.m.1.h.h.h.h.h.h.h.h.h.h.h.h.h.had.h.h.h.h.h.h.h.h.h.h.h.h.h.h.h.h.V.2.V.V.V.V.W.j.j.V.j.h.h.h.h.h.h.h.h.h.h.h",
".Q.3.4.5.5.h.h.S.h.T.h.h.h.h.h.h.h.h.6.7.C.h.h.h.h.h.h.h.h.h.h.h.h.h.h.h.h.h.h.h.h.h.h.h.h.h.h.h.h.h.h.h.h.h.h.h.h.h.h.h.h.h.h.h",
".h.e.S.e.T.h.T.T.h.h.h.h.h.h.h.h.h.h.8.9#..h.h.h.h.h.h.h.h.h.hfr.h.h.h.h.h.h.h.h.h.h.h.h.h.h.h.h.h.h.h.h.h.h.h.h.h.h.h.h.h.h.h.h",
".h.h.h.h.h.h.h.h.h.h.h.h.h.h.h.h####.9#a#b#c#d.h.h.h.h.h.h.h.h.h.h.h.T.h.h.T.T.h.h.h.h.h.h.h.h.h.h.h.h.h.h.h.h.h.h.h.h.h.h.h.h.h",
".h.h.h.h.h.h.h.h.h.h##.9.9.9.9.9#a#a#e#a#a#f#g.h.h.h.h.h.h.h.h.T.h.h.T.h.h.h.hfa.h.h.h.h.h.h.h.h.h.h.h.h.h.h.h.h.h.h.h.S.h.h.h.h",
".h.h.h.h.h.h.h###e#a#a#h#i#j#k#l#m#a#a#a#a#a.h.h.h.h.h.h.h.h.h.h.h.h.h.h.h.h.h.h.h.h.h.#.h.h.h.h.h.h.h.h.T.h.S.h.h.h.T.e.1.h.h.h",
".h.h.h.h.h.h.h#a#a#n#n#o#p#q#r#s#t#u#v#a#a.9##.h.h.h.h.h.h.h.h.h.h.h.h.h.h.h.h.h.h.h.h.T.T.h.h.h.h.h.h.S.e.h.S.h.S#w#w.e#w.h.e.T",
".h.h.h.h.h.h###a#a#n#t#x#s#s#y#z#A#B#C#a#a#D#E.h.h.h.h.h.h.h.h.h.h.h.h.h.h.h.h.h.h.h.h.T#F.S.S.T#G#w.Q.h.h#F.S#H.Q.5#I.h#w#J.h.T",
".h.h.h.h.h.h###a#K#u#s#L#s#y#M#L#N#O#j#a#a####.h.h.h.h.h.h.h.h.h.h.h.h.h.h.h.h.h#I.T#P.H.H.H#P.H.R#J.Q.H.Q.R#Q#R#F.Q.Q#S.m.1.m.h",
".h.h.h.h.h.h.h#e#a#T#U#V#W#X#Y#z#A#Z#0#h#a#D.h.h.h.h.h.h.h.h.h.h.h.h.h.h.h.h.h.h#P.Q#F#P.H.Q.Q.H.H.Q.H.Q.H.H.R.S.Q.H#F.m#P.R.h.h",
"####.h.h.h.h###e#a#a#j#1#2#s#p#x#3#4#1#T#a.9.h.h.h.h.h.h.9.h.h.h.h.h.h.h.h.T#5#6#7#8#9#Q#9a..4.Q.ba#.Qaa.4.R.R#w.4.H.H#7.h.h.h.h",
".9#a#a#a#a#a#a#a#habac#Oadae#Caf#aadag#U#a#E.h.h.h.h.h.h#D.h.h.h.h.h.h.h.h.q.qahaiaj.oaiakalam.oan.oaiaiao.T.m.map.qaqar.q.h.h.h",
"#a#a#a#a#a#a#aas#Oatau#a#a#a#a#a#a#a#a#a#a.9.h.9.h##.9.h.h.h.h.h.h.h.havavawalax.oay.o.oazaAaBaCaD.fai.oaE.qaE.f.p.p.haF.B.A.j.h",
"#a#a#a#a#a#a#aau#haGaHat#a#a#a#a#a#a#a#E##aI#e#e#a#a#D.h.h.h.h.h.h.h.h.haJaKaL.s.f.oaMaN.q.h.h.h.haN.yaO.o.o.iay.h.h.h.W.Z.2.U.h",
"#a#a#a#a#a#a#a#n#kaPau#a#aaI#e#e#a#aaI#e#a.9#a#a#a#a#D.h.h.h.h.h.hau.haF.B.K.NaQaRav.h.h.h.h.h.haS.taT.7aOaU.h.CaV.B.jaF.haF.y.B",
"#eaI#a#a#a#a#aaeauat#aaI.h.h.h###e#E#e#e#a#a#a#e#a#a#a.h.h.h.h.h.h.h.h.havaW.u.saW.s.h.h.h.h.h.haX.N.NaN.Z.h.hav.waY.v.h.B.J.M.t",
".h.h#e#a#a#a#a#a#a#a#a#a.h.h.h.h.h.h.h#a#a#a#a#e#a#a#a#a#e.h.h.h.h.h.h.h.h.h.h.h.Oav.h.h.h.h.h.u.N.Y.L.t.r.s.h.h.h.h.w.v.W.j.j.h",
".h#E.h.haI#a#a#a#a#a#a#a.h#D.9.h.h.9.9#a#a#a#a#a#a#a#a#e#a##.h#e.9.h.h.h####.haZa0a1a2aV.r.AaT.N.Ka3.X.L.K.KaX.B.j.h.h.h.h.h.h.h",
".h.h.h.h.9#a#a#a#a#a#a#a#a#a#a#a#a#Kauau#a#a#a#a#a#a#a#aa4a5a6a7a8a9a9a9b.b#babbbcbdbbbdbe.Y.Ybfbebgbgbgbdbf.Y.Kbh.Bavav.Cav.q.h",
".h.h.h.h.9#a#a#e#a#a#a#a#Kbiaea7bjbkbkbl#kbma7bdbnbo#Kbobpbqbkbr#t#sbr#ubrbrbs#Bbkbtbdbdbtbcbbbubdbbbcbbbcbdbe.L.Y.K.t.waWbv.xaT",
".h.h.h.9.9##.9aI.9#a#a#a#a#abwbcbtbxbsbybybr#t#W#xbr#tbz#t#s#t#z#z#z#q#z#r#p#sbAbsbAbAbr#xbrbxbcbkbBbsbybcbkbmbga3.L.K.t.sbCaA.U",
".h###eaI.9.9#a#a#a#a#a#a#a#a#aa5bDbEbFbqby#AbG#s#W#W#z#p#s#q#y#z#z#ybHbIbHbJ#Xbz#xbr#t#sbzbAbK#xbrbrbrbAbtbcbba3bL.2.t.w.h.h.h.h",
"#e#e#e.9#a#a#a#a#a#a#a#a#a#abM#a#a#a#a#abNagbcbxby#sbzbG#x#AbG#s#q#r#YbObHbHbObzbxbsbz#W#z#q#xbr#q#q#q#AbcbcbcbubP.Z.h.h.h.h.h.q",
"#a#a#a#a#a#E#e#a#a#a#a#a#a#a#a#aaI#a#a#a#a#aaubEauagbFag#Cag#abxbAbQ#X#z#z#q#MbRbSbtbxbKbAbybGbybybK#BbcbbbububdbTbUa1bV.r.rbW.t",
"#a#eaI#e#e.9#D##.h#D#D#e#D#D#e#DaI#a#a#a#a#a#a#a#a#a#a#a#a#a#a#abobr#z#s#xbz#LbKbX#ubsbYaebEbubcatatbcbcbc#u#x#W#WbrbtbZbe.Lb0a3",
".h.h####.h.h.h##.h.h#E.h.h#E#E.h.h##.h###D##.h.h###D#e#DaI#a#a#aaubqbsbYbrbGbsbybzbr#xbGbsbbbE#aau#abEb1b2b3bxbzbzbzb4bxbTb5bZb2",
".h.h.h.h.h.h.h.h.h.h.h.h.h.h.h.h.h.h.h.h.h.h.h.h.h.h.h.h#E##aI#a#aaubE#a#Tb6agb7b8bAbybxbKagat#a#a#a#a#D#Db9bfbubbbk#ubAbkc.b3c#",
".h.h.h.h.h.h.h.h.h.h.h.h.h.h.h.h.h.h.h.h.h.h.h.h.h.h.h.h.h.h.h#D###D#e#a#a#a#aat#abw#aagbEag#a#aca#D###acbccbubcbk#s#zbOcdcecfcg",
".h.h.h.h.h.h.h.h.h.h.h.h.h.h.h.h.h.h.h.h.h.h.h.h.h.h.h.h.h.h.h.h.h.h###e#a#a#a#a#a#a#a#a#a#a#aaI.h.h###abgbubq#t#q#s#z#zchcicjck",
".h.h.h.h.h.h.h.h.h.h.h.h.h.h.h.h.h.h.h.h.h.h.h.h.h.h.h.h.h.h.h.h.h.h.h.h#D#D#e#a#a#a#aa5#a#aaI.9.h.hclcmbmbk#x#qcn#q#s#qcocpcqcq",
".h.h.h.h.h.h.h.h.h.h.h.h.h.h.h.h.h.h.h.h.h.S.h.h.h.h.h.h.h.h.h.h.h.h.h.h.h.h.h#D#e#e#aaI#aa5.9.haX.LcrbTbcbcbmbxbcbsbA#s#zcsctbG",
".T.h.h#7.T.h.h.h.h.h.h.h.T.h.T.T.T#P.T#w.T.h.h.T.S.h.h.h.h.h.h.h.h.h.h.h.h.h.h.h.h.9aIcucvcwcxcy.KbfbubcbTczcAa8cBbbbTbgbTbbbbbg",
"#G#w.m.5#7.5.h.h.h.T.h.h.h.h.T#w.T.m.I.h#GcCcD.n.h.h.h.e.T.h.h.h.h.h.h.h.h.h.h.h.h.9#aa5cEbua3cF.Lbgbebububga3a3a3a3bfbgbbbdbbbq",
".R#F.I.H#5.1.1#I.h.h.h.e.h.e.h.h#I.S.h#F.h.1.T.h.S.h#G.h.h.h.h.h.h.h.h.h.h.h.h.h.h.h.h#ecGbeb5bLbfbgbdbcbbbububTbfbfbebTbdbccHcI",
".IcJ.H#JcK#7.4cJcJ.1#F#G.H.4#7#7.S#G.S.n.h.h.T.h.h.T.h.h.h.h.h.h.h.h.h.h.h.h.h.h.h.h.h##.9cL#DcFcM.M.L.L.Lbfb0.Lbga3a3.Lbeb5bqcN",
".Q.H.H.F.R.e.l.HcK.Q.Q#5.F#F.R.5.I.T.h.n.h.h.h.h.h.h.h.h.h.h.h.h.h.h.h.h.h.h.h.h.h#e#ea1#ecOcP.Xa4cQbha4a4aV.O.h.V.j.j.j.h.V.8cR",
".Q.R.F.S#I.Q.S#F.R#F.S#F.Q.H#J.S.R.Q.QcC.h.h.h.h.h.h.h.h.T.h.h.h.h.h.h.h.h.h.h.h.h.h#D#D#D###E.LbecEbfbebdbecF.J.h.h.h.h.h.h.h.h",
".Q.l.H.l#7#P.Q.4cD.F.Q.R.Q.4.H#P.T.T.R.1.h.h.h.h.h.h.h.h.T.h.h.h.h.h.h.h.h.h.h.h.h.h.h.h.h.h.h##cRbZbgcFbZb5cS.V.h.q.h.q.q.q.h.h",
".P.a.P.P.Q.Q.Q.P.Q.0.l.d.H.H.5#P#P.H.ScK.h.h.h.h.h.h.h.h.h.h.h.h.h.h.h.h.h.h.h.h.h.h.h.h###ecLaI#E.hcT.8.w.J.VcU.h.h.p.qaEcV.h.h",
"QtQtQtQt.#.b.#.#.QcW.l.F.QcJ.4.QcXcYcY#I.T.1.n.T.h.h.T.h.h.h.h.h.h.h.h.h.h.h.h.h.h.h.h.h###a#a.h.h.h.h.h.h.h.h.h.h.q.h.h.T.S.h.h",
".#cZQtQt.#Qt.b.bcW.#.b.l.H.e.d.5#F.F.4.S#w.4#Q#7#w.h.F.T#I.h.m.h.h.h.h.h.h.h.h.h.h.h.h.h.9aI#E.h.h.h.h.h.h.h.h.h.h.h.h.hc0.h#I.S",
"cXc1c2.aQtQtQt.P.l.c.#c3c4c5c6c7c8.R.R.H.F.1.R.R#I.T#5cK.F#7c9.h.h.h.h.h.h.h.h.h.h.h.h.h.9#e#e.9.9.h.h.h.h.h.h.f.h.h.T#Q#F.Haod.",
"akd#.od#dadbdcdd.bdedfay.o.oaid#dgdhap.q.H#F.4.m.S.I.e.ncX.R.n.h.h.h.h.h.h.h.h.h.h.h.hcL#D#e#a#e#D#E.h.h.h.h.h.h.h.qdidjdkdlaxdm",
".KdnaOaOdo.o.oal.o.odl.o.faJaLdn.ydp.p.q.h.T.R#7.R.T.hdqap.h.h.h.h.h.h.h.h.h.h.h.h.h##aI#a#a#a#a#D##.h.h.h.h.hc0aEal.odr.odldldr",
"cF.Y.K.K.u.u.udsbvdsdnaQal.t.N.K.M.K.Ya2dt.B.fdu.q.qaEaMaM.h.q.q.q.h.h.h.h.h.h.h.h.h.h#####D#D#D.h##.h.h.h.q.q.qaEaidsbvdnbWbvbv",
".Y.La3a3a3a3.L.K.N.N.t.KaQ.N.K.Ya3bfbgbebe.K.J.tbWaLdvdwdxaO.p.q.p.h.h.h.h.h.h.h.h.h.h.h.h.h.h.h.h.h.h.h.h.h.h.q.oaO.udydzdAdBdC",
"dD.Z.sdE.J.K.J.J.J.K.K.N.K.K.K.K.LbebgbdbcbubZbTbebZbe.K.Y.K.Kcx.M.M.J.Ncxa2.BdF.B.B.j.h.j.h.h.h.h.h.h.h.q.h.qaydGaWdHdIdJdKdLdM",
".h.h.h.h.h.h.h.h.h.j.2.t.N.K.J.Y.Lb2bTbtbkbcbtbtbbb2cEbubgbub2dNdOa3.M.K.M.Y.L.X.L.K.M.Z.W.h.h.h.h.h.h.h.f.qalalaLdPdQdRdSdTdUdV",
".h.h.h.h.h.h.h.h.h.h.h.h.h.h.j.hdWbUb2bcbcbbbbbDdXdYdZd0bEdNbM#aa5d1.h.h.hcTcT.h.hav.h.h.h.h.h.h.q.hd2alaOaQ.td3d4d5d6d7d8d9e.e#",
"#I.q.h.h.h.h.h.h.h.h.h.h.h.h.h.h.hcxbTbgbZeaca.h.h.h.h#abM#a#a#a#ad1#E##.h.h.h.h.hav.U.h.h.hebaLecaLaQaQ.K.KedeeefdQegehd6eidSeh",
"#F.h.h.h.T.h.T.h.h.h.h.h.h.h.h.h.h.jcRejeka3aF.h.h.h.h.h#D#E.h.h.h.h.h.h.h.h.h.h.h.h.h.q.h.q.i.odGdpdGelelbvaW.N.temeneoepeqereq",
"c1ayc0es.h.h.h.h.h.h.h.h.h.h.h.h.h.h.h.h.h.h.h.C.j.h.j.h.h.h.h.h.h.h.h.h.h.h.h.h.h.h.h.h.h.h.haM.oaEaOaQbvbv.u.N.YcSb2eteuevewex",
"eyezeAdoaEey.f.q.f.q.q.i.h.h.C.j.h.heBaYeC.NeD.J.Nbh.Jcxbh.M.JaV.BaR.qaJ.h.h.h.h.q.h.h.h.h.h.q.haJdwdGbvds.N.K.Y.LeEeFeGeHeweIeJ",
".a.aeKaEaidjdr.oaObWaLal.i.faW.t.t.J.JeLb5eMeNeNeNeO#uePeQeRePeSeTeU.M.NaQ.ubWaOdpaNd2ayaE.q.fc6dweVaKaOaW.N.XeEbgc.dQeqeWcjeXeY",
"QteZe0drdpaOaidsbvdsdsaQdp.oal.tds.Ke1e2e3e4e5e6cSbfbfa3eEcScS.YbebTbbe7e8e9bZ.Y.M.uaQbvaQ.taQecaW.u.N.Mf.bgbueSf#faeqfbcpfcfdfe",
".k.bQtffamfgamfgfhfiakaLdsakdsaQbWaL.LcS.tdsdGaA.q.h.qaEaSdwaMfjaOaL.KfkbtflfmeQeNfnfofpdAfpdAfqfqfrdAfpfsfsftbrfufvfwfxfy#q#zbz",
"Qt.#fzfA.kcZ.aQtQtfBcZ.DQtQtfCfDfEfFaifGaMfG.q.q.q.q.q.haE.h.8.J.K.KbdcS.Yb5bbfHfIfJfKfLfMfNfNfOfPfQfRfSfTfUfV#p#A#x#ubkbs#ubKbA",
"Qt.#.#fWfXfY.#Qt.DfZfZf0e0f1f2f3d.f4Qtf5f6c5ay.o.q.f.o.faM.q.h.x.Nb0bebebebubsbrbAbcbcbtbdf7b2bubm#u#WbQbIf8bH#Y#X#s#pbrbybsbkby",
"fAfAf9g.g#f2f9gagbgcfFfCeZe0f1d#fCg#d.fFd#dlaigdc6geaiam.o.odGawgfbv.N.Kb2bk#pbI#Ybkbdbub3b2bgbk#qbHbIggggbIgh#M#ybHgigj#M#xbrby",
"dldldlf0f0dlf0f0dlf0dlg#f9gkdrf0f0dldldlai.o.oalakalakalaiaQbvaL.u.Ybgbm#AglgmgngogpgqgrgsgtgugvgwgxgygzgAgBgC#X#qgggAgDgEgFbI#t"};
