/* XPM */
static char *dummy[]={
"64 64 510 2",
"aR c #000000",
".r c #000006",
".j c #00000d",
"Qt c #00000e",
"ce c #000014",
"dx c #00001c",
"dA c #00001f",
"cl c #000020",
"ds c #000023",
"dH c #000024",
"iL c #000025",
"ef c #000027",
"hO c #000028",
"dP c #000029",
".v c #00002a",
"eN c #00002c",
".a c #00002d",
"cH c #00002e",
"jD c #00002f",
"bS c #000030",
"gs c #000031",
"aW c #000032",
"f2 c #000033",
"Qt c #000034",
"Qt c #000035",
"jC c #000036",
"Qt c #000038",
"gq c #000039",
"fm c #00003a",
".9 c #000f34",
"aX c #000f36",
"#m c #000f37",
"jn c #000f39",
"kd c #000f3a",
"cD c #000f3b",
"c7 c #00102b",
"ar c #001034",
"kW c #001035",
"aW c #001037",
"fV c #001039",
"hg c #00103a",
"f0 c #00103c",
"hG c #001f37",
"#a c #001f39",
"df c #001f3c",
"#d c #001f3d",
"fH c #001f40",
"#a c #002036",
"d2 c #002038",
"#a c #002039",
"hi c #00203a",
"b2 c #00203c",
"bD c #00203d",
"bx c #002040",
"jz c #002f3c",
"jF c #002f40",
"cG c #00303c",
"cN c #00303d",
"in c #003040",
"kd c #004040",
"d# c #004545",
"kW c #004646",
"#j c #004c4c",
"ll c #005151",
"#d c #005252",
"lI c #005858",
"l2 c #06061c",
"kV c #06061f",
"d. c #060620",
"kU c #060624",
"jA c #060627",
"hg c #060628",
"c5 c #060629",
"gL c #061631",
"jQ c #061734",
"kk c #063636",
"dp c #07071c",
"kR c #07071f",
"dn c #070723",
"c2 c #070729",
"jT c #070731",
"gN c #071730",
"ea c #072734",
"do c #072833",
"kQ c #072838",
"c9 c #073838",
"c3 c #082834",
"c1 c #083737",
"gP c #091935",
"c4 c #092934",
"hf c #093939",
"jy c #093a3a",
"gQ c #0a0a33",
"kl c #0a2939",
"gO c #0a3939",
"kj c #0a3a3a",
"je c #0a3b3b",
"kn c #0a4141",
"jL c #0b3b3b",
"km c #0c3b3b",
"jd c #0c3c3c",
"jI c #0c4343",
"j8 c #0d0d1c",
"jK c #0d0d28",
"ki c #0d4444",
"jJ c #0d5050",
"j7 c #0e0e1c",
"kh c #0e0e1f",
"j6 c #0e0e23",
"jR c #0e2d2d",
"kg c #0f0f1c",
".T c #0f0f20",
"Qt c #0f0f26",
"e# c #0f0f2a",
".b c #0f2027",
"dl c #0f3030",
".b c #0f4040",
"cC c #0f4545",
".a c #0f4646",
"cW c #0f4b4b",
".a c #0f4c4c",
"eO c #0f5151",
".a c #0f5252",
"dy c #101023",
".a c #102f2f",
"et c #105151",
".a c #114141",
"eG c #114747",
".a c #115454",
"ey c #123131",
".a c #124d4d",
"eh c #125353",
".a c #125454",
"e1 c #135454",
".a c #14141c",
"#. c #14141f",
".a c #141420",
".E c #15151c",
".a c #15151f",
"#C c #151520",
".a c #151521",
"eZ c #153636",
".a c #16161d",
"eF c #162626",
".a c #163535",
"dC c #163636",
".a c #17171e",
"fQ c #171721",
".a c #173636",
"do c #173838",
".a c #181822",
"fT c #181824",
".a c #182727",
"dF c #183737",
".a c #183838",
"dP c #184343",
".a c #192828",
"fS c #192929",
".a c #192a2a",
"er c #193838",
".d c #193a3a",
".b c #194444",
"Qt c #1a1a24",
".g c #1a3939",
"c8 c #1a3b3b",
"Qt c #1b2c2c",
"Qt c #1b3c3c",
"Qt c #1c1c1c",
".L c #1c2c2c",
"dm c #1c2d2d",
".Z c #1c3b3b",
".B c #1d1d1d",
".m c #1e1e1e",
"Qt c #1e2d2d",
"Qt c #1e3d3d",
"#E c #1e4343",
"#4 c #1f1d18",
"#T c #1f1f1f",
".z c #1f2f2f",
"#7 c #1f4c4c",
"Qt c #202020",
"ev c #203030",
"ax c #203f3f",
"fL c #204040",
"aT c #211e19",
"a9 c #212121",
"be c #214e4e",
"#4 c #222222",
"bf c #224242",
"bM c #224d4d",
"#h c #232323",
"aU c #233232",
"fc c #233333",
"cm c #233434",
"cv c #234343",
"eL c #234e4e",
"cU c #234f4f",
".Q c #24211c",
"c3 c #242424",
".m c #243333",
".M c #243434",
"#3 c #245050",
"ao c #251f16",
"bO c #252525",
"#3 c #262016",
"aO c #262017",
".a c #26231e",
"eM c #262626",
".a c #263636",
"ce c #265151",
"#1 c #272116",
".s c #27241e",
"Qt c #272727",
"dN c #273c3c",
"Qt c #282218",
".I c #282520",
"#j c #282828",
"cg c #283737",
"am c #292318",
"f6 c #29251f",
"eX c #292929",
"Qt c #293a3a",
"al c #2a2419",
"Qt c #2a2a2a",
"eT c #2a5555",
"Qt c #2b2418",
"e3 c #2b251a",
"bx c #2b2b2b",
"ew c #2b5757",
"fP c #2c2c2c",
"fC c #2d271b",
"f1 c #2d2d2d",
"#d c #2e2e2e",
"gp c #2e3e3e",
".O c #2f2614",
"gK c #2f271a",
"Qt c #2f2b26",
"#i c #2f2f2f",
"hk c #303030",
"fh c #304545",
"ai c #312716",
"f. c #31291c",
"#l c #313131",
"gN c #323232",
".a c #324141",
".m c #324848",
"eR c #333333",
"#x c #343434",
"iK c #344949",
".J c #352b18",
".J c #353535",
"iM c #354a4a",
"ao c #362b18",
"hh c #363636",
"cF c #364c4c",
"hm c #373129",
"cm c #373737",
"kv c #383838",
"d7 c #384e4e",
"k2 c #392c12",
"#u c #393939",
"cG c #394f4f",
"fp c #3a362d",
"#y c #3a3a3a",
"cX c #3a4f4f",
"ah c #3b301a",
"aI c #3b3b3b",
"d2 c #3b5151",
"fO c #3c3c3c",
"eU c #3d3324",
".A c #3d3d3d",
"eK c #3d5252",
"ar c #3e3e3e",
"ab c #3f3115",
"#D c #3f3f3f",
"#A c #404040",
"e0 c #405555",
"eq c #414141",
"dT c #415656",
"ep c #424242",
"eI c #425858",
"ag c #433116",
"#o c #434343",
"#z c #444444",
"ds c #454545",
"fJ c #474038",
"as c #474747",
"c9 c #484848",
"aE c #493618",
"#H c #494949",
"#7 c #4a4a4a",
"#E c #4b4b4b",
"fI c #4c463e",
"#F c #4c4c4c",
"ac c #4d3919",
"#G c #4d4d4d",
"f# c #4e381a",
"eT c #4e3a1a",
"#I c #4e4e4e",
"#M c #4f4f4f",
"du c #505050",
"aD c #513b1b",
"#L c #515151",
"#Q c #525252",
"d6 c #526868",
"#K c #535353",
"a5 c #543c1c",
"bb c #545454",
"af c #553d1c",
"#J c #555555",
"#Z c #565656",
"#R c #575757",
"ad c #583e1d",
"fb c #583e1e",
"dt c #585858",
"a9 c #593e1e",
"ae c #593f1d",
"bd c #595959",
"b. c #5a432a",
"d. c #5a5a5a",
"a6 c #5b3f1e",
"aC c #5b401e",
"bj c #5b5b5b",
"fa c #5c401f",
"a8 c #5c4020",
"b# c #5c4938",
"aa c #5c5c5c",
"a7 c #5d401f",
"#S c #5d5d5d",
"a4 c #5e411f",
"ba c #5e4a39",
"be c #5e5e5e",
"#T c #5f5f5f",
".7 c #606060",
"bJ c #616161",
"fv c #62442a",
"at c #626262",
"a3 c #644321",
"bf c #646464",
"fg c #656565",
"bk c #66594f",
"#8 c #666666",
"#U c #676767",
"d# c #686868",
"aw c #694623",
"#Y c #696969",
"aM c #6a6a6a",
"ed c #6b6b6b",
"#V c #6c6c6c",
"dW c #6d6d6d",
"bM c #6e5f54",
"d4 c #6e6e6e",
"ax c #6f4925",
"#X c #6f6f6f",
"bH c #705136",
"#W c #707070",
"aB c #714926",
"ee c #717171",
"ay c #724a26",
"aL c #727272",
"bI c #735d4a",
"dU c #73645a",
"ff c #737373",
"d5 c #747474",
"aA c #754b27",
"#9 c #757575",
"a# c #767676",
"dS c #777777",
"bl c #785d49",
"au c #787878",
"az c #794d29",
"aY c #794e29",
"cc c #796c62",
"bg c #797979",
"cA c #7a7a7a",
"dI c #7b7b7b",
"a. c #7c7c7c",
"a2 c #7d512b",
"bL c #7d7d7d",
"da c #7e7e7e",
"aX c #7f522c",
"bN c #7f6e64",
"aK c #7f7f7f",
"fF c #80532d",
"dV c #80624d",
"av c #808080",
"aW c #81532d",
"cj c #818181",
"fH c #82532d",
"dJ c #837369",
"bK c #838383",
"aV c #84542e",
"c6 c #848484",
"aN c #85542e",
"bG c #85552f",
"cb c #866d59",
"bi c #878787",
"a1 c #885630",
"cd c #888888",
"cz c #8a8a8a",
"aZ c #8b5731",
"cf c #8b5931",
"bh c #8c8c8c",
"aP c #8e5832",
"dk c #8e8e8e",
"a0 c #8f5933",
"aO c #8f5a33",
"dj c #8f8f8f",
"cy c #919191",
"db c #929292",
"bF c #935c35",
"bm c #935d35",
"cH c #949494",
"aQ c #955e36",
"g7 c #959595",
"dR c #969696",
"aT c #975f37",
"bO c #97745d",
"ck c #989898",
"bw c #996038",
"cw c #999999",
"ca c #9a7c68",
"dd c #9b6139",
"cv c #9b9b9b",
"bU c #9c9c9c",
"dc c #9d9d9d",
"ef c #9e9e9e",
"aR c #9f623a",
"bP c #9f7a62",
"bT c #9f9f9f",
"cY c #a0a0a0",
"cu c #a2a2a2",
"cI c #a3a3a3",
"c5 c #a4a4a4",
"bE c #a5673d",
"bV c #a5a5a5",
"bn c #a6673e",
"cT c #a6a6a6",
"bQ c #a88068",
"cl c #a8a8a8",
"bW c #a9a9a9",
"bA c #ab6b40",
"ct c #ababab",
"by c #ad6d41",
"b8 c #ad8870",
"di c #adadad",
"c0 c #aeaeae",
"bp c #af6d42",
"dQ c #afafaf",
"cs c #b0b0b0",
"bC c #b16f43",
"bR c #b1876e",
"bX c #b19e92",
"cZ c #b1b1b1",
"c# c #b28f77",
"bz c #b36f43",
"cr c #b3b3b3",
"bq c #b47044",
"br c #b47144",
"dd c #b4b4b4",
"bx c #b57044",
"cm c #b6b6b6",
"bD c #b77145",
"bS c #b78d74",
"c1 c #b7b7b7",
"bo c #b87446",
"dx c #b8b8b8",
"bB c #b97446",
"cp c #b9b9b9",
"bw c #ba7346",
"bY c #ba927a",
"c. c #bb835e",
"bu c #bc7447",
"bs c #bc7848",
"cq c #bcbcbc",
"co c #bdbdbd",
"b1 c #bf957c",
"dH c #bfbfbf",
"cn c #c0c0c0",
"bt c #c17949",
"cS c #c1c1c1",
"b2 c #c2977d",
"bZ c #c2987f",
"dv c #c2c2c2",
"bv c #c37a4a",
"cJ c #c3c3c3",
"cQ c #c4c4c4",
"dw c #c5c5c5",
"cK c #c7c7c7",
"b7 c #c87d4c",
"c2 c #c8c8c8",
"cR c #cacaca",
"b0 c #cb9e84",
"cM c #cbcbcb",
"d3 c #cccccc",
"cP c #cdcdcd",
"de c #cecece",
"cL c #d0d0d0",
"cN c #d2d2d2",
"df c #d3d3d3",
"cO c #d5d5d5",
"dg c #d6d6d6",
"c4 c #d8d8d8",
"b6 c #d98856",
"b3 c #d99c78",
"dh c #d9d9d9",
"c3 c #dcdcdc",
"b4 c #dd9b75",
"b9 c #de8e5c",
"b5 c #eb9969",
"QtQtQtQtQtQtQtQtQtQtQtQtQtQtQtQtQtQtQtQtQtQtQtQtQtQtQtQtQtQtQtQtQtQtQtQtQtQtQt.#.#.#h6.a.a.#.#.a.b.c.c.c.d.e.c.f.c.c.c.b.b.#.#.#",
".gQtQtQtQtQtQtQtQtQtQtQtQtQtQtQtQtQtQtQtfFQtQtQtQtQtQtQtQtQtQtQtQtQtQtQtQtQtQt.h.h.h.#.#.#.#.i.b.#cv.c.c.c.c.c.i.c.a.c.c.i.#.#.#",
".jQtQtQtQtQtQtQtQtQtQtQtQtQtQtQtQtQtQtQtQtQtQtQtQtQtQtQtQtQtQtQtQtQtQtQt.kffQt.h.#.#.#.l.#.#.b.b.f.c.c.c.c.c.f.c.c.c.c.i.l.#.#.#",
"QtQtQtQtQtQtQtQtQtQtQtQtQtQtQtQtQtQtQtQtQtQtQtQtQtQtQtQtQtQtQtQtQtQtQtQtQtQtQtQt.#.#.#.#.#.#.c.#.f.c.c.c.c.m.c.c.c.c.c.l.#.#.#.#",
"QtQtQtQtQtQtQtQtQtQtQtQtQtQtQtQtQtQtQtQtQtQtQtQtQtQtQtQtQtQtQtQtQtQtQtQtQtQtQtQt.n.n.n.#.#.#.#.o.#.f.m.m.cdY.c.c.c.#.b.l.#.#.#.#",
"QtQtQtQtQtQtQtQtQtQtQtQtQtQtQtQtQtQtQtQtQtQtQtQtQtQtQtQtQtQtQtQtQtQtQtQtQtQtQtQtQtQtQt.#.#d6.#.#.#.#.b.f.c.c.c.c.c.c.#.f.#.#.#.#",
"QtQt.g.g.g.g.jQtQtQtQtQtQtQtQt.pQtQtQtQtQtQtQtQtQtQtQtQtQtQtQtQtQtQtQtQtQtQtQtQtQtQtQt.n.#.#.#.#.#.a.#.a.c.c.c.c.c.d.c.c.c.c.i.#",
"Qt.q.p.pQtQtQtQtQtQt.j.j.jQtQtQtQtQtQtQtQtQtQtQtQtQtQtQtQtQtQtQtQtQtQtQtfGQtQtQtQtQtQtQtQt.k.#.#.#.b.b.f.c.c.c.c.c.c.c.c.c.c.f.b",
"Qt.rQt.qQtQtQtQtQtQtQtQtQtQtQtQtQtQtQtQtQtQtQtQtQtQtQtQtQtQtQtQtQtQtQtQtQtQtQtQtQtQtQtQtQtQt.n.o.#.a.i.f.c.c.c.ccP.c.f.c.s.e.c.c",
"Qt.jQtQtQtQtQtQtQtQtQtQtQtQtQtQtQtQtQtQtQtQtQtQtQtQtQtd0QtQtQtQtQtQtQtQtQtQtQtQtQtQtQtQtQtQt.k.h.#.#.#.#.i.f.i.i.i.i.c.c.c.e.c.c",
"QtQtd7QtQtQtQtQtQtQtQtQtQtQtQtQtQtQtQtQtQtQtQtQtQtQtQtQtQtQtQtQtQtQtQtQtQtQtQtQtQtQtQtQtb4QtQt.k.t.n.h.u.#.#.a.#.#.#.#.i.a.c.f.c",
"QtQtQtQtQtQtQtQtQtQtQtQtQtQtQtQtQtQtQtQtQtQtQtQtcTQtQtQtQtQtQtQtQtQtQtQtQtQtQtQtQtQtQtQtQtQtQtQtQt.kQt.n.n.n.h.v.h.n.#.#.l.i.f.c",
"QtQtQtQtQtQtQtQtQtQtQtQtQtQtQtQtQtQtQtQtQtQtQtQtQtQtQtQtQtQtQtQtQtQtQtQtQtQtQtQtQtQtQtQtQtQtQtQtQtQtdJQtQtQtQt.t.kQt.h.n.#.#.#.i",
"QtQtQtQtQtQtQtQtQtQtQtQtQtQtQtQtQtQtQtQtQtQtQtQtQtQtQtQtQtQtQtQtQtQtQtQtQtQtQtQtQtQtQtQtQtQtQtQtQtQtQt.w.x.x.x.xQtQt.x.x.x.x.y.w",
"QtQtQtQtQtQtQtQtbdQtQtQtQtQtQtQtQtQtQtQtQtQtQtQtQtQtQtQtQtQtQtQtQtQtQtQtQtQtQtQtQtQtQtQtQtQtQtQtQt.w.z.A.z.A.A.z.A.B.C.C.C.D.D.B",
"QtQtQtQtQtQtQtQtQtQtQtQtQtQtQtQtQtQtQtQtQtQtQtQtQtQtQtQtQtQtQtQtQtQtQtQtQtQtQtQtQtQtQtQtQtQtQtQtQt.w.A.A.x.xQt.A.E.F.G.E.F.F.C.F",
"QtQtQtQtQtQtQtQtQtQtQtQtQtQtQtQtQtQtQtQtQtQtQtQtQtQtQtQtQtQtQtQtQtQtQtQtQtQtQtQtQtQtQtQtegQtQt.x.A.A.A.H.I.J.K.A.A.LQtQtQtQtQtQt",
"QtQtQtQtQtQtQtQtQtQtQtQtQtQtQtQtQtQtQtQtQtQtQtQtQtQtQtQtQtQtQtQtQtQtQtQtQtQtQtQtQtQtQtQt.LQtQt.x.z.B.A.C.M.N.O.B.A.wQtQt.w.wQtQt",
".rQtQtQtQtQtQtQtQtQtQtQtQtQtQtQtQtQtQtQtQtQtQtQtQtQtQtQtQtQtQtauQtQtQtQtQtQtQtQtQtQtQtQtQtQtQtQtQt.w.w.L.z.A.z.z.z.A.A.A.A.A.A.x",
".jQtQtQtQtQtQtQtQtQtQtQtQtQtQtQtQtQtQtQtQtQtQtQtQtQtQtQtQtQtQtQtQtQtQtQtQtQtQtQthvQtQtQtQt.wQt.wQt.wQtQt.x.wQt.w.F.F.F.F.A.B.C.A",
"QtQtQtQtQtQtQtQtQtQtQtQtQtQtQtQtQtQtQtQtQtQtQtQtQtQtQtQtQtQtQtQtQtQtQtQtQtQtQtQtQt.w.w.x.x.zdw.wQtQtQtQtQtQtQtQtQtQtQt.k.n.h.u.P",
"QtQtQtQtQtQtQtQtQtQtQtQtQtQtQtQtQtQtQtQtQtQtQtQtQtQtQtQtQtQtQtQtQtQtQtQtQtQtQtQtQt.x.z.A.A.C.B.A.z.z.z.z.x.A.z.xQtQtQt.u.u.#.b.a",
"QtQtQtQtQtQtQtQtQtQtQtQtQtQtQtQtQtQtQtQtQtQtQtQtQtQtQtQtQtQtQtQtQtQtQtQtQtQtQtQt.F.w.w.w.F.z.F.A.A.B.B.B.Q.R.S.C.C.B.T.k.h.#.#.f",
"QtQtQtQtQtQtQtQtQtQtQtQtQtQtQtQtQtQtQtQtQtQtQtQtQtQtQtQtQtQtQtQtQtQtQtQtQtQtQtQtQtQtQtQtQtQtQt.F.z.A.A.D.A.C.U.C.V.W.P.o.h.#.#.b",
"QtQtQtQtQtQtQtQtQtQtQtQtQtQtQtQtQtQtQtQtQtQtQtQtQtQtQtQtQtQtQtQtQtQtQtQtQtQtQtQtQtQtQtQtQtQtQtQtQtQt.F.w.F.F.L.u.u.h.h.u.k.#.b.c",
"QtQtQtQtQtQtQtQtQtQtQtQtQtQtQtQtQtQtQtQtQtQtQtQtQtQtQtQtQtQtQtQtQtQtQtQtQtQtQtQtQtQtQt.w.xQtQtQtQtQtQtQt.k.k.#.#.b.#.b.#.a.b.f.X",
"QtQtQtQtQtQtQtQtQtQtQtQtQtQtQtQtQtQtQtQtQtQtQtQtQtQtQtQtQtQtdKQtQtQtQtQtQtQtQtQtQtQtQtQtQtQtQtQtQtQtQtQt.k.h.#.a.m.#.b.c.c.c.c.e",
"QtQtQtQtQtQtQtQtQtQtQtQtQtQtQtQtQtQtQtQtQtQtQtQtQtQtQtQtQtQtQtQtQtQtQtQtQtQtQtQtQtQtQtQtQtQtQtQt.w.xQtQtQt.k.#.#.#.l.c.f.c.Y.Z.0",
"QtQtQtQtQtQtQtQtQtQtQtQtQtQtQtQtQtQtQtQtQtQtQtQtQtQtQtQtQtQtQtQtQtQtQtQtQtQtQtQt.x.A.A.A.A.A.A.A.A.A.A.B.A.A.1.#.#.#.b.c.X.2.3.0",
"QtQtQtQtQtQtQtQtQtQtQtQtQtQtQtQtQtQtQtQtQtQtQtQtQtQtQtQtQtQtQtQtQtQtQtQtQtQt.wQt#2.A.E.A.A.A.A.A.C.C.C.D.U.D.P.4.b.a.c.X.e.0.0.0",
"QtQtQtQtQtQtQtQtQtQtQtQtQtQtQtQtQtQtQtQtQtQtQtQtQtQtQtQtQtQtQtQtQt.kQtQt.k.u.kQt.5.k.kQtQt.w.E.w.x.w.z.6.z.F.E.7.c.8.0.0.0.0.0.0",
".9dk.F.w.x.wQt.w.wQtQtQtQtQtQtQtQtQtQtQtQtQtQtQtQtQtQtQtQtQtQt.kQt.kQt.h.n.t.#.o.#.#.#.n.y#..A.B.C.C.B.A##.z.A.B#a.D#bat#d#e#f#g",
"QtQtQtQt.z.x.E.wQt.xQtQtQtQtQtQtQtQth2QtQtQtQtQtQtQtQtQtQtQtQtQtQtQtQtQtQt.n.o.k.#.#.#.#.h.u.A.D.U#h#i#j#i#i#i#i#i.S#i#k#l#m#n#o",
"QtQt.x.x.A.wQt.w.wQtQtQtQtQtQtQtQtQtQtQtQtQtQtQtQtQtQtQtQtQtQtQtQtQtQtQtQtQtQtQt.oQt.t.k.h.n#p.B.H#q#r#s#t#u#v#w#w#x#w#t#y#z#A#z",
".A.A.w.E.A.A.A.FQtQt.wQtQtQtQtQtQtQtQtQtQtQtQtQtQtQtQtQtQtQtQtgtQtQtQtQtQtQtQtQtQtQt.tQtQt.u#B#C#i#k#x#D#E#F#G#F#H#I#J#K#L#L#M#K",
".A.A.A.A.A.A.A.A.A.A.z.w.x.wQtQtQtQtQtQtQtQtQtQtQtQtQtQtQtQtQtQtQtQtQtQtQtQtQtQtQtQtQtQtQt.k#N.D#O#P#t#z#G#Q#R#S#T#U#V#W#X#Y#S#Z",
"#0#1#2#3#3#4.A.F.A.A.A.A.A.A.A.z.A.x.x.wQt.wQt.xQtQtQt.x.wQtQtQt.A.z.A.A.z.z.E.wik.x.z.w.x#5#6.B#i#k#x#D#7#G#R#8#V#9a.#9a##Waa#I",
"abacadaeaeafagahaiajajajakajajajajalamamajanaoaoap.G.A.z.A.A.A.A.A.B.B#i#O#i#i#i#iaq#O#i.Sil.C#O#saras#I#K#Kat#Y#Vauava##W#Vat#G",
"awaxayazazazazaAaBawaCaeaeaeaeaeaDafafaeaeaeaeaeaeaEagaFaG#2.U#O#q#k#waH#x#uaIar#Dar#var#v#t#laJ#o#G#Kaa#T#8a#av#9aKavaLaMaMat#L",
"aNaOaPaQaRaSaTaTaSaUaSaTaPaVaWaWaXaXaYaVaZa0a0a0a1a2aYaAaBa3a4aeafa5a6a7a8a9b.b#babbbcbcbd#J#K#I#G#Z#Jbebf#8bgbhbibibhbhaL#Vatbj",
"bkblbmbnbobpbqbqbrbsbtbubvbwbxbybzbybybAbqbwbBbCbDbDbxbxbybEaSaQbFbGaYayawaxbHbI#VaRaLauaL#YaL#V#Ubc#RaabdbJaMaubKbhbhbhbL#W#Vbc",
"#F#L#K#RbMat#VbNbObPbQbRbSbTbTbUbVbWbVbXbYbZb0b0b1b2b3b4b5b6b7b8b9c.c#cacbccc7aKbibhbhbKa.aLbgaubKbK#Xbcbd#S#YaLa.bibhcda.a.#W#Y",
"cecf#vcgchci#Ebd#SataMcjckclclcmcncocncncncpcqcpcpcqcncncqcmcrcpcpcrcmcrcsctcuckg8bTbTcubTcwcxcycycycyczbLbLbLaKaKaubgcAcA#Wa#bL",
"cBcBcBcBcBcCcDcEcFgmbd#XbicHcIcrcncqcmcmcJcJcncncKcKcLcLcLcKcMcLcLcLcLcNcOcNcPcKcQcQcKcLcMcMcRcKcKcQcScpcrcTckbha.bg#W#YaLaLaKbh",
".0cUcV.0.0.0.0cUcWcBcXbe#8#XbickcYcTcZcsc0c1cncJc2cMcMcLcNcNcNcLcLcOcLcNc3cOc3cOcOcOc4cOcOc4c3cOcOc4cNcLcoc5ckbiau#Wbfbfa.cAa.c6",
".0.0.0.0.0.0.0.0c7.0c8#Ac9#Fd.#8d##XdadbdbdccIcTcZddcqc2c2dedfdfcLcNcNcOc3c3dgdhcNc3c3c3c3c3c3ihdhdgc2dicYcwdjcjdkbhcz#Xbf#Y#V#W",
"dldm#jdndodp#r#d#ldqdraI#Ads#Fdt#Zdu#KatbfaMdac6dbcvcYclddc1dvcMcNcOc4c4c3dgcLc2c2deesdecMdwdecMdvdxcYdbdjbL#WaM#8a#dacA#Vbf#8d#",
"dydzdA.WdB.0dCdD.0.0dEdEdFdG#m#y#AaI#y#z#K#T#V#9aKaKdkdcdcdcckcIcsdvdedHdHdwcncZcYdbdkdaa#aL#V#WdIdbdbcdc6audJ#9#X#Wava.a#aM#Z#G",
".#.h.adKdLdM.0dE.0.0cV.0.0cVdNdOdP#AdtatavbKcudQbVbTcxa.#V#Wa.c6czdbdRcvbTc5cYdbdS#U#RdTcXcecF#7dubfaMaMd#dUdVdWbfatatbf#T#R#7aI",
".n.h.#.#dXdY.0.0.0.0dZcBd0d1d2bdaMbibTclcscJcLcNcLd3cocYbiaLbJdtd.atd4bKdad5dad6d7d8dZ.0dZcVd9#x#z#Kbj#Zdududu#L#Fc9#D#y#D#ue..0",
".x#C.Le#eaeb.0.0.0.0.0dZdZecbbaa#Tat#8edeedjefcvdbavaLbcbeegehcOejekelemeieneodZ.0.0.0.0.0.0.0do#m#oarep#DaJaJeq#A#w#m#m#wer.0.0",
"#i.H.D.DdBes.0.0.0.0.0.0.0cBetcB#g#Fdtaabd#Zdu#7eucBcBcBdZcV.0.0.0ec.0.0.0.0.0.0.0.0.0.0.0.0.0.0dEdGevew#jexeyezeAeBdFeCeD.0.0.0",
"#PeE.D.UeFdB.0.0.0.0.0.0eGeHeIbe#KeJ#GeKeheheLeMehcU.0.0.0.0.0.0eNeOdZ.0.0.0.0.0.0.0.0.0.0.0.0.0.0.0.3.0ePeQ.0eR.XeSes.0.0.0.0.0",
"eTeUeVeWeXaqeYeZ.0.0.0#feIbj#UbJ#K#Jbbe0e1e2dZe3cU.0.0.0.0.0.0.0cVdZdZ.0.0.0.0.0.0.0.0dMdMe4.0dM.0.0e5.0eSe6.eeSe7e7e8e9e4eSf.dM",
"eTf#fafbfb#v#m#sfcfdfe#KffcA#Xfgbedufh.0.0.0.0.0.0.0.0.0.0.0.0.0.0.0.0.0.0.0.0e4e4fifjfkeSeSflfifmeSfifi.efi.f.Xfi.a.ifn.b.#fo.f",
"fp#x#l#taI#vareqdsaE#Rata##Va#daffbJbbfqfr.0.0.0.0.0esfseS.Y.0.0.0.0.0.0.0.0.0.Yfm.c.ceSfi.c.c.cfi.m.cftfi.c.c.m.i.l.c.c.c.0fudY",
"fv#H#Hc9#H#F#E#7#7#Fduc9fwekfxarc9#Fdu#Mfyd0.0.0.0.0fsfz.mfAfBfC.0.0.0.0.0.0.0.0eS.c.cfm.c.m.f.c.i.i.f.i.b.a.b.#.a.#.cfDfEes.0.0",
"fFfGaNfH#GfIfJds#Fep#w.SfK.0.0.0.0.0cVdZfLdZdZ.0.0.0.0.0.0fs.0.0.0.0.0.0.0.0.0.0fififi.c.i.#.i.b.m.#.#.b.f.#.#.f.l.#fM.XfNfN.0dM",
"aHarfOfOar#v#ufP#q#OfQ#B.bfofR.ceS.0.0.0.0.0.0.0.0.0.0.0.0.0.0.0.0dMdM.YeSfieSe6.f.c.f.a.#.l.l.#.#.#.o.n.nQtQt.o.k.#.#.#.a.#.i.a",
"fOdD.0.0fsfSfT#p#B.o.u.h.#.#.n.#.l.#fif..YfkfU.0.0.0.0.0.0.0.0.0.0.X.0e6.YdYfie6.0fVdYfi.b.a.#.#.a.u.uQt.kQtQtQtQtQt.h.u.t.#.h.n",
"bJfWerfX.0fY.#.#.nQt.tQtQt.tQtQtQt.h.#.k.#dK.a.ifZfufof0eSeSfZ.YeSeS.0fkf1.Yf0.Y.Y.0dM.0.Y.X.c.ef2.f.#.o.nQt.k.tQt.k.nQt.#.o.n.u",
"bKbbekdlf3.h.#QtQtQtQtQtQtQtQtQtQtQtQtQt.kQt.k.t.n.n.n.n.n.n.ndKdK.i.mf4ft.#.a.m.af.flflfk.0fj.c.c.#.#.h.nQt.tQtQtQtQtQtQtQtQtQt",
"cYbearf5.z#5.tQtQtQtQtQtQtQtQtQtQtQtQtQtQtQtQtQtQtQtQtQtQtQtQtQt.u.h.#.a.#.#.o.#.#fM.4.i.i.m.b.a.l.b.n.u.kQteQQtQtQtQtQtQtQtQtQt",
"cjbd#z#df6.U.A.z.wQtQtQtQtQtQtQtQtQtQtQtQtQtQtQtQt.k.kQt.k.u.uf7.h.tQt.1.w.k.k.#.u.h.n.o.#.#.#.#.#.o.h.tQtQtQtQtQtQtQtQtQtQtQtQt"};
