/* XPM */
static char *dummy[]={
"64 64 654 2",
"Qt c #00001c",
"Qt c #00001f",
"#r c #000020",
"#G c #000023",
".f c #000024",
"Qt c #000026",
"#J c #000027",
"#Y c #000028",
".z c #000029",
".B c #00002c",
"ac c #00002d",
".m c #00002e",
".f c #00002f",
".T c #000030",
"#7 c #000031",
".m c #000032",
"fL c #000034",
"#6 c #000036",
"aV c #000037",
"a8 c #000039",
"#q c #00003a",
"bh c #00003c",
"bo c #00003d",
"#Y c #000f30",
"bf c #000f32",
"aQ c #000f34",
"#3 c #000f36",
"#r c #000f37",
"#a c #000f39",
"aO c #000f3a",
"c# c #000f3c",
"#w c #000f3d",
"ck c #000f40",
"#e c #001037",
".m c #00103a",
".1 c #001040",
"cD c #001f37",
"aV c #001f39",
".S c #001f3a",
"#i c #001f3c",
"c4 c #001f3d",
"bT c #001f40",
".P c #00203a",
"aQ c #00203c",
"dt c #00203d",
"Qt c #002040",
"bX c #002f3a",
"aI c #002f3c",
"bO c #002f40",
".# c #00303a",
".E c #00303c",
"dW c #00303d",
".C c #003040",
"## c #004040",
"#x c #004545",
"cc c #004646",
"Qt c #004b4b",
"#H c #004c4c",
"ef c #005151",
"ai c #005252",
"#P c #005858",
".s c #06061c",
"Qt c #06061f",
"bK c #060620",
"Qt c #060623",
".y c #060624",
"bJ c #060627",
"bY c #060628",
"c. c #060629",
"gr c #06062a",
"cw c #06062b",
".z c #06062d",
"cw c #06062f",
".a c #061634",
"co c #062633",
"e0 c #062734",
"bx c #063636",
"fl c #07071c",
"gZ c #07071f",
"fO c #070720",
"g0 c #070723",
"gf c #070724",
"b# c #070725",
".3 c #070727",
"f. c #070728",
"#l c #070729",
"gL c #07072a",
"#f c #07072c",
"#e c #07072d",
"gt c #07072e",
"#g c #07072f",
".n c #071731",
".s c #071735",
"h6 c #07182c",
"is c #07182e",
"a8 c #072838",
".A c #073838",
"eQ c #080824",
"#0 c #080826",
"gO c #082732",
"jh c #082734",
"hi c #082737",
"ba c #083737",
"jO c #093a3a",
"j5 c #0a3a3a",
"j6 c #0a3b3b",
"kk c #0b3b3b",
"bO c #0c3b3b",
"kX c #0c3d3d",
"ky c #0d0d1c",
"b1 c #0d0d1f",
".v c #0d0d20",
"cy c #0d0d23",
".L c #0d0d24",
"hp c #0d0d25",
"a2 c #0d5050",
".x c #0e0e1c",
"ch c #0e0e1f",
".B c #0e0e20",
".A c #0e0e21",
".T c #0e0e22",
".R c #0e0e23",
"hW c #0e0e24",
"#k c #0e0e27",
"bb c #0e1e2b",
"g1 c #0f0f1c",
"#. c #0f0f1d",
"fJ c #0f0f20",
".3 c #0f0f24",
".6 c #0f0f26",
"cZ c #0f1f30",
"bW c #0f202d",
"ac c #0f2e2e",
"b# c #0f3030",
"ax c #0f4545",
"a7 c #0f4b4b",
".I c #10101e",
".H c #101021",
".S c #101025",
"go c #101027",
"#u c #102f2f",
"a5 c #104b4b",
"ad c #113232",
"#N c #115353",
"#0 c #115454",
"cz c #123333",
"aU c #124d4d",
"aC c #125454",
"aN c #125555",
"g2 c #131320",
"b8 c #133232",
"av c #135454",
"ah c #135757",
".w c #14141c",
".7 c #14141f",
"bZ c #141420",
"b2 c #143333",
"#B c #145757",
".V c #15151c",
".K c #15151f",
".W c #151520",
"hI c #151523",
"bL c #153636",
".5 c #16161d",
"dW c #161622",
"cY c #161623",
".4 c #162626",
"bH c #162727",
"cg c #163535",
"bE c #163636",
"cb c #163737",
"dU c #172828",
"bt c #173636",
"bi c #173838",
"hl c #181822",
"hn c #181824",
"b. c #182727",
"do c #183737",
"fj c #192929",
"bM c #193838",
"bz c #193939",
"cI c #1a2a2a",
"bk c #1a3939",
"g3 c #1b171f",
".J c #1c1c1c",
"dm c #1c3b3b",
".9 c #1d1d1d",
"gX c #1d2d2d",
"ig c #1e1c17",
"b0 c #1e1e1e",
"dn c #1e3d3d",
"bi c #1f1f1f",
"dT c #1f2e2e",
"#p c #202020",
"cf c #203030",
"aP c #211e19",
"bV c #212121",
"cJ c #213232",
"bU c #222222",
"bq c #223232",
"aH c #224e4e",
"g7 c #231f1e",
"aT c #232323",
"bn c #233232",
"bw c #233333",
"bp c #233434",
"#O c #234a4a",
"h5 c #24211b",
"dd c #242424",
"bm c #243333",
"dG c #243434",
"cx c #252525",
"cc c #253434",
"bo c #253535",
"#z c #254545",
"aG c #255050",
"hq c #26211c",
"b7 c #262626",
"bN c #263535",
"bv c #263737",
"#Z c #265353",
"cw c #272727",
"dE c #273636",
"h4 c #28261f",
"cH c #282828",
"dF c #283838",
"g4 c #292322",
"cG c #292929",
"aT c #295454",
"#Y c #295656",
"bT c #2a2a2a",
"hs c #2b2518",
"bR c #2b2620",
"hr c #2c2518",
"cm c #2c2c2c",
"ce c #2d2d2d",
"bu c #2d3d3d",
"ie c #2e271a",
"bD c #2e2e2e",
"b6 c #2f2f2f",
"#X c #2f5b5b",
"bA c #303030",
"bB c #313131",
"h8 c #322815",
"g6 c #322a19",
"cq c #323232",
"bC c #333333",
"a4 c #334848",
"dU c #342c21",
"bD c #343434",
"aO c #344a4a",
"cJ c #352b1a",
"dV c #352d22",
"bI c #353535",
"ht c #362b1b",
"dW c #362e23",
"dH c #36322c",
"bP c #363636",
"be c #364646",
"fh c #373028",
"h1 c #37332b",
"cl c #373737",
"#W c #376363",
"dX c #383023",
"b3 c #383838",
"c1 c #39332b",
"dI c #393939",
"aW c #394f4f",
"bH c #3a3a3a",
"ay c #3a5050",
"eu c #3b342c",
"bG c #3b3b3b",
"a3 c #3b5050",
"b5 c #3c3c3c",
"fk c #3d342b",
"Qt c #3d372f",
"Qt c #3d3d3d",
".a c #3e3121",
".# c #3e382f",
"fg c #3f3322",
"dv c #3f3324",
"Qt c #3f3830",
".c c #3f3f3f",
"aF c #3f5454",
"Qt c #403425",
"Qt c #403625",
"dZ c #403627",
"Qt c #404040",
"#M c #405656",
"#F c #405757",
"Qt c #41331d",
".c c #413526",
"cD c #414141",
"Qt c #415656",
".# c #423627",
"fV c #42382a",
"Qt c #423b34",
".# c #424242",
"bF c #434343",
"Qt c #435c5c",
"Qt c #443726",
"a1 c #444444",
"Qt c #453d35",
"Qt c #454545",
".f c #464646",
"#V c #465c5c",
"Qt c #473a29",
"hu c #483623",
"Qt c #483a2b",
"Qt c #484848",
"cK c #493f36",
"Qt c #49423a",
"cu c #494949",
"Qt c #4a3921",
"Qt c #4a4138",
"bR c #4a4a4a",
"Qt c #4b3619",
"dc c #4b4138",
"Qt c #4b4b4b",
".z c #4b6464",
"ak c #4c4c4c",
"Qt c #4d4d4d",
"aM c #4e4e4e",
"Qt c #4f3c2a",
"Qt c #4f3f2e",
"aP c #4f4f4f",
"Qt c #503b24",
"Qt c #503d2b",
"ij c #503e2d",
"cU c #504131",
"Qt c #505050",
"d9 c #513b1b",
"Qt c #513b28",
"gs c #513c24",
"Qt c #513f2e",
"a0 c #515151",
".# c #523d25",
"Qt c #52483e",
"c8 c #525252",
".W c #53402f",
"Qt c #53463c",
"Qt c #535353",
"cF c #543e25",
"Qt c #54412e",
"Qt c #545454",
"d8 c #553d1c",
"Qt c #563e1d",
"cR c #565656",
".E c #575757",
"i# c #583c1e",
".z c #584027",
".w c #584229",
"#d c #585858",
"aX c #595959",
"Qt c #5a3f1e",
"e. c #5a4128",
"Qt c #5a432b",
"aZ c #5a5a5a",
"Qt c #5b3f1e",
"dx c #5b401e",
"Qt c #5b5b5b",
"fJ c #5c401e",
".z c #5c4228",
"cQ c #5c5c5c",
"#O c #5d3e20",
"ee c #5d411f",
"ar c #5d5d5d",
"hK c #5e4328",
"b# c #5e452b",
"hS c #5e4835",
"au c #5e5e5e",
"fX c #5f4120",
"bh c #5f4b38",
"#J c #5f5f5f",
"bT c #604021",
"#X c #604220",
"fI c #604221",
"cO c #606060",
"e# c #614220",
"dg c #614e3c",
"#7 c #616161",
"cM c #624220",
"eR c #624322",
"dc c #62554c",
"#E c #626262",
"bV c #634321",
"ag c #636363",
"bi c #644422",
"#D c #64462b",
"#D c #646464",
"ek c #654d3c",
"aQ c #656565",
".0 c #674523",
"ic c #674623",
"eM c #67492f",
"hG c #674a2e",
".0 c #676767",
"eS c #684523",
"fe c #684624",
".0 c #68482c",
"ew c #68482d",
"at c #686868",
".l c #694623",
"#H c #694724",
".i c #696969",
"c2 c #6a4623",
".0 c #6a4624",
"ds c #6a523d",
".0 c #6a6a6a",
"eb c #6b4724",
".# c #6b523f",
"er c #6c4825",
"Qt c #6c4f34",
".k c #6c6c6c",
"Qt c #6d5441",
"Qt c #6e4825",
"#5 c #6e5440",
"Qt c #6f4825",
"cL c #6f4926",
"cj c #704926",
".o c #704c28",
"#S c #707070",
"ed c #714926",
"ia c #714b27",
"#U c #717171",
"eS c #724a26",
"h. c #724c28",
"cq c #727272",
"eT c #735034",
"dM c #744b27",
"gw c #744e2a",
"as c #747474",
"fL c #754b27",
"aI c #757575",
"dj c #764c28",
"dr c #765945",
"#T c #767676",
"dz c #774c28",
"fC c #784d29",
"d2 c #794d29",
"ib c #794f29",
"ey c #794f2a",
"g9 c #79502c",
"aJ c #7a7a7a",
"gx c #7b512d",
"fn c #7c4f2a",
"hN c #7c502c",
"ct c #7c593d",
"#R c #7c7c7c",
"eC c #7d512b",
"fo c #7e502b",
"fp c #7e522c",
"cB c #7e7e7e",
"dN c #7f512c",
"i. c #7f522d",
"cs c #7f6652",
"am c #7f7f7f",
"dC c #80502c",
"ei c #80512c",
"a. c #808080",
"d3 c #81512c",
"hL c #81522d",
"hU c #81532d",
"hM c #81532e",
"cr c #81746a",
"aL c #818181",
"fY c #82522d",
"eB c #82532d",
"gv c #82542f",
"fm c #83522d",
"ex c #83542e",
"hw c #835530",
"#3 c #838383",
"fd c #84532e",
"ej c #84542e",
"fs c #84552f",
"hO c #845530",
"af c #848484",
"h9 c #855020",
"dB c #85542e",
"cM c #85552f",
"fM c #86552f",
"hb c #865631",
"hR c #87542f",
"cN c #87552f",
"hF c #875630",
"gy c #875731",
"cp c #878787",
"dg c #885630",
"gu c #885731",
"fu c #895730",
"ez c #895731",
"ek c #8b5731",
"fv c #8b5831",
"gl c #8c5731",
"dS c #8c5831",
"eA c #8c5832",
"aA c #8c8c8c",
"el c #8d5731",
"eo c #8d5831",
"eq c #8d5a32",
"#4 c #8d8d8d",
"fB c #8e5832",
"fT c #8e5932",
"eG c #8f5933",
"c6 c #8f5a33",
"gW c #905a33",
"ft c #905a34",
"en c #905c34",
"fU c #915a33",
"eD c #915a34",
"em c #915c34",
"#6 c #919191",
"dA c #925c34",
"ep c #925d35",
"aD c #929292",
"eF c #935b35",
"hk c #935c35",
"c3 c #935d35",
"hc c #945c35",
"eP c #945d35",
"d5 c #945d36",
"fA c #945e36",
"a# c #949494",
"eL c #955d36",
"gz c #955e36",
"dO c #965e36",
"hP c #965e37",
"fz c #965f37",
"ha c #966036",
"ae c #969696",
"hx c #975e37",
"d4 c #975f37",
"eH c #985f37",
"c5 c #986038",
"an c #989898",
"ar c #999999",
"dh c #9a6038",
"dR c #9b6139",
"eU c #9c6139",
"di c #9c623a",
"eM c #9d6139",
"eE c #9d6239",
"dQ c #9e623a",
"eK c #9e633a",
"fP c #9f623a",
"#5 c #9f9f9f",
"fc c #a0633b",
"c4 c #a0643c",
"aK c #a0a0a0",
"eI c #a1643b",
"dP c #a1643c",
"fr c #a1663b",
"hd c #a2581a",
"fQ c #a25f2c",
"fO c #a2643c",
"eJ c #a2653c",
"fb c #a2653d",
"hQ c #a2663c",
"fq c #a2673c",
"fy c #a3653d",
"fR c #a4602d",
"gA c #a4663c",
"eO c #a4663e",
"hE c #a4673d",
"ad c #a4a4a4",
"fw c #a5612e",
"eN c #a5663e",
"eV c #a6673e",
"aa c #a6a6a6",
"aC c #a7a7a7",
"eX c #a8683f",
"fa c #a86840",
"ac c #a8a8a8",
"f3 c #a9693f",
"eW c #a96940",
"fx c #aa6940",
"fZ c #aa6a3f",
"gi c #ab632c",
"fS c #ab6a40",
"eY c #ab6a41",
"e9 c #ac6a40",
"e1 c #ad6b41",
"gj c #ad6c41",
"fN c #ae6c41",
"e8 c #ae6c42",
"gh c #af6d42",
"f8 c #af6e42",
"eZ c #b06d42",
"ab c #b0b0b0",
"gk c #b1662f",
"e7 c #b16e43",
"aq c #b1b1b1",
"hy c #b26e42",
"f. c #b26f43",
"f2 c #b36f43",
"e6 c #b47044",
"hj c #b47144",
"ao c #b4b4b4",
"f1 c #b57044",
"f7 c #b76d35",
"e2 c #b77145",
"gg c #b77245",
"e0 c #b77345",
"aB c #b7b7b7",
"f0 c #b87245",
"f# c #b87446",
"e3 c #ba7346",
"gV c #ba7446",
"gf c #bc6d33",
"f6 c #bc7447",
"he c #bc7647",
"hC c #bd7547",
"hD c #bd7648",
"ge c #be6722",
"hi c #be7648",
"e5 c #be7848",
"gD c #c07648",
"ap c #c0c0c0",
"e4 c #c27849",
"gd c #c47134",
"gB c #c4794a",
"f4 c #c47a4a",
"hB c #c57b4b",
"hA c #c67b4b",
"hz c #c87c4c",
"f5 c #c97c4c",
".x c #c97d4d",
"hh c #cc7e4e",
"hf c #ce7f4e",
"hg c #d0804f",
"gT c #d16233",
"gU c #d26b47",
"ga c #d2752c",
".q c #d28250",
"gE c #d4744f",
"gN c #d47e41",
"gM c #d8734f",
"gR c #d88142",
"g# c #d98143",
"gc c #dc644d",
"gL c #dc6f3c",
"f9 c #dd7720",
"gQ c #dd8344",
"g. c #de8035",
"gJ c #e48236",
"gI c #e48336",
"gb c #e67745",
"gK c #f0702b",
"gO c #f0852c",
"gS c #f47350",
"gG c #f4882c",
"gP c #f57324",
"gH c #fc8820",
"Qt.#.a.b.b.b.b.a.b.a.b.b.a.b.b.b.b.b.a.c.d.b.b.b.b.b.b.b.b.b.b.b.b.b.b.b.b.b.b.b.b.d.b.b.a.eQtQtQtQtQt.f.g.g.g.g.g.g.h.i.g.g.h.g",
".j.d.b.b.b.b.b.b.b.b.b.b.b.b.b.b.b.b.b.b.a.d.b.a.b#1.b.b.b.b.b.b.b.b.a.b.b.b.b.b.b.b.b.b.a.#QtQt.eQtQtQtQtQt.k.l.g.g.g.m.g.g.g.n",
".dQt.a.b.a.b.b.bah.b.b.b.b.b.d.d.a.d.a.b.a.a.b.d.b.b.b.b.b.b.b.b.b.b.b.b.b.b.b.b.b.a.b.d.d.a.b.dQt.#Qt.j.dQtQtQt.k.k.E.o.k.f.k.p",
".#.e.b.b.b.b.b.b.b.a.a.b.b.b.#.e.b.b.a.a.b.c.a.a.b.b.b.b.b.b.b.b.b.b.b.b.b.b.b.b.b.b.b.b.a.b.b.a.e.#.b.b.c.d.j.#QtQtQtQtQt.oQtQt",
"Qt.#.a.b.b.b.b.b.b.b.e.d.b.b.a.c.b.a.d.d.d.aQt.e.c.b.b.b.b.a.a.a.b.b.b.b.b.b.b.b.c.a.d.a.b.b.b.b.b.b.b.b.a.a.d.#QtQt.j.#.#Qt.e.e",
"QtQt.c.b.b.b.b.b.b.a.e.b.b.#.c.b.b.b.a.c.b.a.j.b.a.b.b.b.b.b.b.b.b.b.a.d.b.b.b.b.b.b.b.c.b.b.b.b.b.b.b.a.a.a.e.dQt.#.d.gQtQtQtQt",
"Qt.#Qt.e.d.b.b.b.b.b.c.b.a.a.b.b.b.b.a.b.d.d.c.a.b.b.b.b.b.b.b.b.b.b.a.c.a.b.a.c.e.eQt.a.a.b.d.b.b.a.d.b.a.e.c.b.d.dQtQtQtQtQt.h",
"Qt.qQtQtQtQt.b.b.b.b.b.b.b.M.b.b.a.b.b.d.a.b.a.b.b.d.b.b.c.b.b.b.b.b.b.a.c.d.a.dQtQt.#.b.a.a.a.b.b.b.a.d.d.d.#Qt.#QtQtQtQtQtQtQt",
".g.l.fQtQt.#.#.e.e.c.b.b.b.b.T.b.b.b.a.b.b.b.a.b.b.a.b.b.b.b.b.b.b.a.d.b.bQtQtQtQtQt.b.d.d.d.#Qt.e.dQtQtQtQtQt.dQtQtQtQtQtQtQtQt",
".g.g.l.g.p.p.oQt.#.r.s.t.b.b.b.b.b.b.b.b.b.b.b.a.a.b.b.b.a.b.b.b.b.b.b.d.b.d.#.a.#.#.d.d.#Qt.e.a.a.#.a.0Qt.e.c.e.#QtQt.#QtQtQtQt",
".l.l.u.g.q.f.k.q.g.k.v.w.x.b.b.c.c.b.a.b.c.a.d.d.a.d.#.t.jQt.e.b.a.b.d.b.dQtQt.d.#.b.e.d.d.j.a.c.#Qt.#.a.#.#.j.d.dQtQtQtQtQtQtQt",
".k.q.k.g.g.q.g.g.q.pQt.#.e.a.a.b.b.d.bQt.dQtQtQtQtQtQtQtQtQtQt.d.d.a.dQt.#QtQt.#Qt.a.a.d.e.d.j.#.d.#.#.#Qt.#Qt.#QtQtQtQtQtQtQtQt",
"QtQtQtQtQtQtQt.k.k.q.l.kQtQt.j.e.b.#.d.j.dQtQtQtQtQtQt.NQtQtQtQtQtQtQt.kQtQtQtQtQtQtQtQt.j.b.b.#QtQtQtQtQt.#.jQtQtQtQtQtQtQtQtQt",
".#Qt.e.jQt.#Qt.kQtQtQt.kQtQtQtQtQtQtQtQtQt.k.j.c.#QtQtQt.o.kQtQt.fQt.q.f.f.o.f.kQtQt.fQt.kQtQtQtQtQtQtQtQtQtQtQtQtQtQt.kQtQtQtQt",
".w.e.b.b.c.b.#.#QtQtQtQtQtQt.oQt.kQtQtQtQtQtQt.#QtQtQtQt.jQtQt#9.kQt.o.q.l.q.g.g.q.q.q.m.g.q.q.f.k.kQtQtQtQtQtQt.#QtQtQtQtQtQt.j",
".x.b.b.b.b.b.a.a.#QtQtQtQtQt.j.#Qt.y.z.A.#Qt.y.B.x.y.#.pQtQtQtQtQt.o.o.f.o.p.f.g.g.g.g.g.u.u.C.D.E.g.g.g.g.g.z.#QtQtQtQtQtQtQt.j",
".b.b.a.b.b.b.b.b.b.a.a.#Qt.#.#.#.e.F.#.F.#.#.G.H.I.J.B.K.LQt#BQtQt.oQtQtQt.f.k.l.g.g.g.g.g.g.h.M.N.O.m.g.P.g.q.pQtQtQtQtQtQt.k.#",
".b.b.b.b.b.b.b.b.b.a.c.#QtQt.e.aQtQtQtQt.fQtQtQtQt.f.Q.R.S.T.U.V.W.e.G.k.oQtQt.f.p.q.l.g.m.X.i.Y.Z.N.0.D.1.X.m.m.g.8QtQtQtQtQtQt",
".t.b.b.b.b.b.b.b#v.#.d.d.j.#Qt.oQt.k.kQtQtQtQtQtQtQt.q.q.g.g.2.3.4.5.S.6.7.k.k.g.g.g.g.g.h.O.n.D.E.N.n.Z.8.g.m.i.g.f.kQt.kQtQtQt",
".J.9.J#..t.s.a.b.b.dQt.#QtQtQtQtQt.kQtQtQtQtQt.k.l.g.l.q.g.g.m.m.n###a#b.h#c#d#e#f#g.n.N#h.E###h#######i#j.g.q.l.g.p.f.f.qQtQtQt",
".f#d#k#l#m.t#n.#.e.dQt.#Qt.k.f.fQtQt.kQtQtQt.fQtQtQt.f.g.g.h#o#a.O.Y.N##.E.E.n#p#p#p################.N#h.n.O.n.h.n.h.q.q.f.p.f.k",
".q#q.0.0#h#i.0.N#r.l.q.f.k.q.g.g.g.fQt.f.g.f.q.pQt.f.f.q.g.h.g.m.E.N#s#h.N#####t#u#v##########################.N.P.N#w.g.q.q.k.q",
".h###x#y#y#z#y#x##.E.n#A.P.h.n.n.n.O.n#o.n.g.g#lQt.q.f.f.g.g.m.h##.P.m.n.n####.N###########h##############.E##.0###h#i.g.g.g.k.g",
"#h###B#C#D#E#F#G#H####################.N#h.h.g.g.p.g.f.p.g.g.u.h.g#o#o.h.N.N##af.0.E.N######.N########.Y#h#h##########.M#o.m.g.h",
"###I#G#J#K#L#D#M#N#O#y#x###x###y#y############.Pad.g.h.g.g.g.g.m.g.g.n#i#s##.E#a##############.N.N##.N##.N####.N######.N.n.N.O.h",
"###x#P#Q#L#R#S#Sam#T#U#V#W#X#Y#Z#0#P#I##########.m.P#1.p.k.f.h.g.h#A.n.h.g#s.P.n##.N####.N####.N############.N#h################",
"#####H#G#2#L#T#3#4#5#5#5#6#T#7#8#N#P#P#H########.E.m.q.f.q#z.q.g.g.g.n.M.h.h#a#i################################################",
"#######0#9a.a##5aaabaceZaeafagah#P#P#Pai##########aj#1.q.k.q.f.p.g.l.g.h.g.g.g#o############################.m##################",
"#####Iakalamanaoapaqarafasatauav#P#P#Paw#############s.g.g.g.g.l.g.q.g.q.g.h.h.E########.E#############################x#y#y#y#y",
"##axayazaAaAaAaaaBaCaDaEaFaG#P#Hey#Haw##############.i.q.f.q.g.g.f.g.q.g.g.g.h.h####.n#s#o###################x#I#y#P#P#Pes#P#P#P",
"#xaH#2aIaJa.a#aKaDaL#LaM#P#P#x#######################h.E.h.g.m.m.g.g.q.m.g.m.g.h.P.D#i.E.h#a.N########ap#####xai#PaN#P#P#P#P#P#P",
"aOaPaQ#S#KaR#EagaSaTaU#H##aw##############################.M.M.n.EaV#i.g.q#q#o.g.h#s.E#C.n.E#i.M##############aw#x#H#Iaiaw#H#Iai",
"aWaXaYaRaZa0a1a2#y#Haw#############################h######.Y##.E#####r##.E.n.g.g.O##.8#h.E.M.0#s.N#s############################",
"ak#9aRa3a4a5####################a#####.8############.E.N.N.E.0.8###s######.N.O.P.M.E.E.E.O.Oa6.g.E###h##########################",
"aPaYa0a7aw##################ac####.E#s####.8##.n.P###s#o.h#a.8.i.P##.P########a8######a9##a9b.b#babba9##a9####bc################",
"bdbe#H##########################.n#o.g#q.u.g#d.q.pbf.k.g.g.g.l.q.m.q.q.g#1.q.E.M##########bg####bhbibibj####atbibc##############",
"bkaw##############.N.Nbl.P.M.D.PaV#r.l.q.g.g.g.p.k.k.fQt.p.k.jQtQt.o.fQt.p.j#d.g.u.M##########bj##bmbnbobpbqbrbrbs##########bhbt",
"bubvbwbj########bx.E.h.h.p.f.k.p.k.oQtQt.f.q.k.f.oQt.eQt.e.#.#.d.dQt.f.f#1by#1.2.O########bzbrbjbc##bAbBbCbDbDbBbBbBbBbAbEbobj##",
"bFbGbHbIbrbc##a9b#a9.E.W.2.q.fQtQtQtQtQtQt.zbJ.jbK#.#..x.t.b.b.e.#Qt.k.q.hbx.Ca9####bLbM####bN######bObnbmbwbDbDbIbPbDbDbO######",
"bQakbRbHbDbSbBbrbTbUbV####bWbX.Pcs#d.f.q.kQtbYbZ.V.9b0#pbVb0.J.J.Vb1bJ.f.n.Mb2ba##########################bBbSbIa.b3bDbO########",
"auakbdb4bFb3b5b3bDb6bAb7bqb8####.E.u.h.gQt.#.V#p#pb0b0b0b0b9b9b0b0.9.Jc.c#caaV############################cbbwbCbSccbw##bj######",
"atbQa0akcdbDbSbScebmcfa9cgbO######bYc.Qt.e.#.ychci.e.acj.j.rbJ.R.dQtQt.qbf.n.ha9####################################bpbn########",
"#TckaY#9#2a1clbBbAbrcmb6bLa9bgb#cn#pbV.V.t.B.y.B.r.v.ebK.s.a.#.#Qt.k.e.j.k.f.Pco################################bEbjbibq########",
"aAcp#RcqaIcrcsctaXaMaPcucvb3bAbCb6b6b6cwb7#pcxbVbVbVbUb0.9.J.V.J.L.L#.bZbZcy#m.Lb0czb#a9#####u################cAbAbAbBbIbDbIbCbS",
"cBcpaAafcpaAaL#TaQatatcCa0aMakakcucDcvcEcEcFbGbDcmb6bBbAcGbTcwcGcGb7bVb0cxcGcxcGcHcmcxcm##bOcIb#a9a9b#a9##bgbscJbIcKcLcMcNcOcPbH",
"aEcQcRaZcQaYaRcRcCa0aMakbRbRcucdcdcDcScTcUcVbPbSbSbDbHcWbGclbDb6gHcecHb7cwcebTcXbV#pb0b0.5cYcZb#c0#p.9#pbUbTcec1c2cNc3c4c5c6c7bF",
"c8akbRcvc9bdcPcSbdbRa0d.d#dadbdcbIbBbDbDbPbHbAcGb9.9b.bV#pbU.9.J.Jb0.J#p#pcw.9b0#pcxcxbU.9b0.Jb0.9#pddcxcxcmbSdedfdgc3dhdidgdjdk",
"dldmdnbk####bOdobkdobPdpdqdrdsaka1cdbPbDb6bBbDb6cHcm#p.9.9.9.9b0b0#pcmbBbBbBaacGcwbAbDbBcxcxb6cmbAdtc1dudvdwdxdydzcNc3dAc3dBdCdD",
"dE####################dodFdndGbnbAbBbCbDbDbDbDbDbDbAcecebrcmcmcHb7cwcmcecGbAcebAbBbDdHbScmbSbAbBdIdJdKdJdLdMdNdCdgdOdPdQc4dRdOdS",
"##############################dobOdTbTbIbGbPbIbIbPbDbDbBbBcecmcHbBcmcmbrdUdVdWdXdHb6cebScmbBbBbAdYdYdZd0d1dDd2dzdBdBdBd3d4d5c5c3",
"##################################bab8brbAbAbAclclb3bPbIbDbAbAd6d7d8d9e.e#eaebeceddydyeeefd7egeheiejekelemendgdBeoepeqeqdgereset",
"########################.N####a9####bLceeuevewexeycM#YeAdgeBcNeCcNeDeEeFeGeDeHdheIeJeIeKeLeGeGeGeMdPc4eNeNeOc4dRdhePd4eieQeReSdC",
"####.E################.N.N#s.0######bVb5eTemeUeOeVeWeXeYeZe0e1e2e3e4e5e6eZe7e8e9e8e8e6e6eZf.e6f#eZeZfafbc4dAdhfcdPc4eOfdfefffgfh",
".m.O.N.Na9#########################ofifjcwfkflfmfnfodOd5fpeBeGfqfrfqfsejfteMeMfufvenc4c4dQeMfwfxfafydifzfAc5c4dPc4fBfdfCfDbCcmcm",
"a9.n.0a9##########.N#s.E.N#####s.8.g.gfEb0bUbCfFfGfHc2fIfJfKdyedd2fofLfMeJfNfydQdhfOfPfQfRfPfSeZfbfcdQdOdBfmdhdQfQfTfUfodDfVbrcm",
"ba############fP#s#j.g.gfW.q.i.p#o.q.f.VbUb6fFdedZfXfYeHfZf0f1f2fNf3f1f0f4f5f6f7f8f9g.g#gagbgcgdgegfggghgidQeUeXgggjgkfcglgmgnbU",
"###############pgo.7gpgqgrQtcy.k.pQt.obJ#mbUfhgsgtfXfKejgugv#GgwgxgygzgAgBgCgDgEgFgGgHgHgGgIgJgKgLgMgNgOgPgQgRg.gSgTgUgVe9gWd3fK",
"a9a9b#gXb#bggYc0.J.7.9#..L.vgZflQt.#QtQtQt.eg1g2g3g4g5g6cHcX.J.x.x.xg1g7g8g9h.gwh#haf8hbfshchdeNgVgVe2gBgChehfhghhe4higVhjf0gghk",
"bJ.Shl#phmhnc0.J.9bV.9b0.J.Jhohp.G.#Qt.#.e.a.d.d.d.d.b.b.d.b.b.e.b.b.b.b.x.x.x.J.whqg5hrhshthuhvh#hwgudhhxhyhzhAhBe6e1hChDhEhFhG",
"Qt.j.F.#hH#f.9.9brbDcebU#p.JhlhI#mhJQt.kQt.a.c.d.cgI.c.b.b.b.b.b.b.b.b.b.b.b.b.c.x.sci.Jcig1.J#pddb7cHcmbShKhLhMhNhOhPhQc5hRhScl",
".#.e.b.b.#Qt.zbJ.WbTbCbUb0.9.J.V.J.w.r.e.b.b.c.b.b.b.b.b.b.b.b.b.b.b.b.b.b.b.b.s.b.wcj.w.Jb1.J.9b0c0cxcmbDbDclbHb3b5hTfmhUhVdIce",
".a.a.b.a.e.b.b.ahWhX.J.9.9.JcXb0b0.J.J.J.s.b.b.b.b.b.b.b.b.b.b.b.b.b.b.b.b.b.b.b.bch.bci.s.w.J.Jb9cXbUcxcmcmcebSbSclhYhZh0bPbBcX",
".b.b.b.b.sbUbAcxh1h2h3h4h5h6h7.J.Jb9bUb0.J.J.J.V.b.b.b.b.b.b.b.b.b.b.b.b.b.b.sci.bgZbZ.J.Jcy.9b0#p#pbUcmcmcxcmcmcebDbGbIbBbrcx#p",
".b.b.b.b.bg1.b.x.Vh8fKeCh9eGi.i#i#iaibicidieife5.J.w.b.b.b.b.b.b.b.b.b.b.s.s.t.s.J.w.J.J.9.9#pb0b0#pcxcGcmcxcmcmbBc9ihiiijikdyil"};
